<svg width="500" height="85" fill="none" version="1.1" viewBox="0 0 500 85" xmlns="http://www.w3.org/2000/svg">
 <path d="m335.07 51.161 20.794-36.896 20.589 36.792c-5.839-2.6495-13.112-3.9757-20.999-3.9757-7.3765 0-14.444 1.3262-20.384 4.0757m-106.64 3e-3 20.794-36.896 20.59 36.792c-5.839-2.6495-13.112-3.9757-20.999-3.9757-7.3765 0-14.444 1.3262-20.384 4.0757m-198.53 3e-3 20.794-37.711 20.794 37.611c-5.839-2.6494-13.216-3.9756-21.103-3.9756-7.3766 0-14.545 1.3262-20.488 4.0756m470.09 9.174c0 15.492-14.24 24.665-39.745 24.665-18.232 0-33.701-3.364-49.58-13.353l5.225-9.274c14.854 9.3775 27.556 12.638 44.254 12.638 18.542 0 28.272-5.402 28.272-14.88 0-7.6435-7.068-10.804-20.999-12.23l-24.585-2.4455c-17.926-1.7338-29.296-8.5624-29.296-21.097 0-14.88 16.083-24.358 41.588-24.358 15.878 0 28.476 3.0569 41.078 10.904l-5.1205 9.6817c-10.039-6.6248-21.818-10.193-37.287-10.193-18.027 0-28.681 5.7062-28.681 13.557 0 7.44 7.6825 10.293 18.85 11.415l25.098 2.4456c20.18 1.9376 30.934 9.1738 30.934 22.524m-93.121 22.831-45.788-81.231h-10.345l-45.688 81.231h12.292l5.0195-9.274c5.839-10.804 15.98-16.51 33.086-16.51 17.108 0 27.862 5.606 33.805 16.614l4.916 9.174h12.702zm-106.64 0-45.788-81.231h-10.345l-45.688 81.231h12.292l5.0195-9.274c5.839-10.804 15.979-16.51 33.086-16.51s27.862 5.606 33.805 16.614l4.9155 9.174h12.702zm-105.31-22.831c0 15.492-14.24 24.665-39.745 24.665-18.232 0-33.701-3.364-49.58-13.353l5.2245-9.274c14.854 9.3775 27.556 12.638 44.254 12.638 18.541 0 28.272-5.402 28.272-14.88 0-7.6435-7.068-10.804-20.999-12.23l-24.585-2.4455c-17.926-1.7338-29.296-8.5624-29.296-21.097 0-14.88 16.084-24.358 41.588-24.358 15.878 0 28.476 3.0569 41.078 10.904l-5.1205 9.6817c-10.04-6.6248-21.818-10.193-37.287-10.193-18.028 0-28.681 5.7062-28.681 13.557 0 7.44 7.682 10.293 18.85 11.415l25.098 2.4456c20.18 1.9376 30.934 9.1738 30.934 22.524m-154.68-48.822-40.258 71.65h12.292l5.0196-9.2745c5.839-10.7 15.878-16.51 33.086-16.51 17.208 0 27.966 5.8095 33.805 16.614l4.916 9.174h12.702l-42.817-76.033c-2.0485-3.6683-4.916-5.1982-9.63-5.1982h-34.52l5.2704 5.3594c3.2099 3.1938 5.729 4.2188 10.201 4.2188z" fill="#0038e5"/>
</svg>
