<svg width="500" height="180" version="1.1" viewBox="0 0 500 180" xmlns="http://www.w3.org/2000/svg">
 <path d="m41.465 0.38972h97.377c15.493 0 28.08 12.71 28.08 28.325v97.143c0 15.477-12.724 28.19-28.078 28.19h-87.003v-12.852h86.173c9.2669 0 16.184-7.0464 16.184-16.028v-95.761c0-9.2589-6.9167-16.168-16.184-16.168h-95.857c-9.2689 0-16.184 7.0464-16.184 16.168v56.792c-4.2893 3.8703-8.7142 7.8763-12.174 12.437-0.13766 0.27531-0.41497 0.55262-0.55262 0.69027v-70.612c0-15.615 12.726-28.327 28.218-28.327z" fill="#f68b1f"/>
 <path d="m35.655 22.913c27.94 1.2429 54.085 25.01 54.498 53.614 0.27931-31.23 29.327-52.788 54.36-53.754v35.511c-18.119 0.55461-40.389-0.13567-54.498 18.933-59.892 0-94.059 54.444-89.632 102.39h38.454c-5.5362-38.554 9.1272-90.235 51.178-102.39 31.122 0 52.838 29.433 54.498 54.304h-35.41c-0.55262-19.621-1.2449-41.453-19.088-54.304-13.556-18.516-34.027-18.24-54.36-18.793z" fill="#a6193c"/>
 <path d="m444.53 37.974c-1.2469-0.41496-2.7671-0.69027-4.1496-0.82992-3.1821-0.27532-6.2245 0.13965-8.7162 2.2125-1.9352 1.5202-2.9048 3.4534-3.4574 5.8035-0.55262 1.7955-0.69227 3.7307-0.69227 5.6659 0 3.1781 0.69227 7.1841 3.182 9.3965 2.2145 2.0708 5.3945 2.7631 8.2993 2.7631 0.41497 0 3.597-0.13965 5.5322-0.55262zm4.8399-25.427c1.6599 0 3.1821 0.27731 4.7023 0.55262v56.104c-4.425 1.3806-7.3297 1.7955-11.204 2.0728-2.7651 0.13766-5.6698 0.27531-8.4369-0.13965-3.8723-0.55262-7.7467-1.7955-10.789-4.421-2.0748-1.7955-3.597-4.008-4.7023-6.4938-1.2449-3.0404-1.6598-6.2185-1.6598-9.3965 0-3.0404 0.41496-6.0808 1.5202-8.9836a22.58 22.58 0 0 1 4.1496-7.0464c1.7995-1.9352 4.012-3.4554 6.5038-4.5606 2.7651-1.1052 5.5302-1.5202 8.4349-1.6579 0.69227 0 4.1496 0.13965 6.5038 0.69028v-16.168c1.6579-0.27531 3.3177-0.55262 4.9776-0.55262zm31.4 50.713c2.3501 0 5.3945-0.96758 6.9147-3.3157 1.5222-2.2105 2.3541-5.5262 2.3541-9.8115 0-4.2833-0.83192-7.7387-2.3541-9.9492-1.5202-2.2105-3.7347-3.1781-6.9147-3.1781-3.0444 0-5.6718 1.5202-6.7791 3.1781-1.9352 2.9028-2.2125 6.4958-2.2125 9.9492 0 3.4554 0.27731 6.9088 2.2145 9.8115 1.5202 2.3481 4.1496 3.3157 6.7771 3.3157zm0 8.1536c-2.9047 0-5.8095-0.55262-8.4389-1.6579-2.3501-0.96759-4.425-2.6254-6.0848-4.5606-1.6598-1.9352-2.7671-4.421-3.597-6.7711-0.82993-2.6254-1.1072-5.5262-1.1072-8.1516 0-2.7651 0.2773-5.6659 1.1072-8.2913 0.69227-2.3501 1.9352-4.9756 3.597-6.7711 1.7975-1.9352 3.595-3.593 6.0848-4.6983a21.871 21.871 0 0 1 8.4389-1.6579c2.9048 0 5.8095 0.55262 8.4369 1.6559 4.8419 2.2125 8.022 6.3581 9.6819 11.471 0.8299 2.7631 1.1072 5.5262 1.1072 8.2893 0 1.5202-0.1397 3.0404-0.2773 4.423-0.2753 2.4878-1.1052 5.2509-2.3501 7.4614a16.046 16.046 0 0 1-4.842 5.6659c-2.2145 1.5202-4.7023 2.7631-7.3317 3.1781-1.3826 0.27731-2.7651 0.41497-4.425 0.41497zm-282.73 12.437c1.7995 0 3.597 0.13766 5.2569 0.55262l19.088 31.505v-31.505c2.0748-0.27731 4.1496-0.55262 6.2245-0.55262 1.9352 0 3.7347 0.27531 5.5322 0.55262v55.549c-1.7955 0.41496-3.595 0.69028-5.5322 0.69028-1.7975 0-3.4574-0.27532-5.2569-0.55262l-19.364-31.368v31.23c-1.9352 0.41496-3.8743 0.69028-5.9492 0.69028-1.9352 0-3.8703-0.27532-5.8095-0.69028v-55.414c2.0748-0.41496 3.8743-0.69028 5.8095-0.69028zm95.029 15.615c0.55262 1.2429 0.82793 2.7631 1.1052 4.1436l0.55262-0.55262c1.5222-1.5202 3.182-3.0384 5.2569-3.591 2.6274-0.82993 4.9796-0.82993 7.7467 0 0.27532 1.5182 0.41497 3.0384 0.41497 4.5586 0 2.3501-0.13965 4.5606-0.82993 6.7711-2.0748-0.41496-4.5646-0.41496-6.5018-0.13965-1.5222 0.2793-2.7671 1.2449-3.597 2.3501-1.5202 2.3501-1.7955 4.9756-1.7955 7.7407v19.068c-2.0748 0.41297-4.2893 0.55262-6.3641 0.55262-2.2145 0-4.2893-0.2773-6.5018-0.55262v-40.074c3.597-0.82993 8.022-0.96759 10.514-0.27531zm153.54 0h7.3297c0.27731 1.6559 0.55262 3.3157 0.55262 4.9736 0 1.7955-0.27531 3.4554-0.55262 5.2509h-7.3317v14.232c0 1.1052 0 2.2105 0.27731 3.3177 0.96758 2.2105 1.7975 2.9008 4.2893 2.9008 1.6579 0 3.3177-0.41496 4.8399-0.69027 0.55262 1.7955 1.2449 3.591 1.2449 5.5262 0.27731 1.5202 0 3.1781-0.13965 4.6983l-0.69028 0.13965c-1.2449 0.27532-2.3521 0.55262-3.597 0.55262-4.8399 0.69028-11.064 0.27532-14.939-3.3177-2.6274-2.3481-4.01-6.0788-4.01-11.052l-0.13965-38.693c2.0748-0.41497 4.1496-0.55262 6.2245-0.55262 2.2145 0 4.4289 0.13965 6.5038 0.55262v12.162zm-41.913 22.384c-4.1496-2.0728-5.8095-5.6658-5.8095-10.087 0.13965-6.0808 3.8743-10.502 9.6838-12.437 3.0424-0.82793 6.4998-0.96758 9.6818-0.69027 3.1821 0.27531 6.6394 1.1052 9.6818 2.3481 0 1.7955-0.27531 3.4554-0.82993 5.1132-0.55262 1.6579-1.1052 3.1781-1.9352 4.6983-2.2145-0.82793-4.9796-1.7955-6.9167-2.0728-1.6598-0.27532-4.1496-0.27532-5.6718 0.55262-0.55262 0.41496-0.82993 0.82992-0.82993 1.6579 0 1.1072 0.69228 1.5202 1.6599 2.0748 0.55462 0.13765 0.96958 0.41297 1.6599 0.55062 2.0748 0.69227 4.1496 1.1072 6.3641 1.9352 1.7975 0.69028 3.8723 1.7955 5.1172 3.3157 0.96759 0.96759 1.5222 2.2125 2.0748 3.4554 0.55262 1.5202 0.69227 3.1781 0.69227 4.8359 0 0.96759-0.13965 1.9352-0.2773 2.9028-0.55262 1.9352-1.2449 3.591-2.6274 5.2509-3.8743 4.421-9.5442 6.0808-15.216 6.0808-3.0424 0-6.3641-0.27731-9.2669-1.2449l-3.7347-1.2429c0.13766-1.6579 0.41497-3.3177 0.82993-5.1132 0.41496-1.6579 1.1052-3.591 1.9352-5.1132a64.798 64.798 0 0 0 5.5342 1.7955c2.7651 0.69227 6.6394 0.69227 8.4389-0.27532 1.1052-0.55262 1.7955-1.2429 1.7955-2.3481 0-1.9352-1.6598-2.3501-3.3197-2.7651-2.9048-1.1052-5.9452-1.7955-8.7142-3.1781zm-31.675-58.59c2.3521 0 5.3945-0.96758 6.9167-3.3157 1.5202-2.2105 2.3501-5.5262 2.3501-9.8115 0-4.2833-0.82993-7.7387-2.3501-9.9492-1.5222-2.2105-3.7347-3.1781-6.9167-3.1781-3.0424 0-5.6718 1.5202-6.7771 3.1781-1.9352 2.9028-2.2145 6.4958-2.2145 9.9492 0 3.4554 0.2793 6.9088 2.2145 9.8115 1.5202 2.3481 4.1496 3.3157 6.7771 3.3157zm0 8.1536c-2.9048 0-5.8095-0.55262-8.4389-1.6579-2.3501-0.96759-4.425-2.6254-6.0848-4.5606-1.6598-1.9352-2.7671-4.421-3.597-6.7711-0.82993-2.6254-1.1052-5.5262-1.1052-8.1516 0-2.7651 0.27531-5.6659 1.1052-8.2913 0.69227-2.3501 1.9372-4.9756 3.597-6.7711 1.7975-1.9352 3.597-3.593 6.0848-4.6983a21.869 21.869 0 0 1 8.4389-1.6579c2.9048 0 5.8095 0.55262 8.4389 1.6559 4.8399 2.2125 8.02 6.3581 9.6818 11.471 0.82993 2.7631 1.1052 5.5262 1.1052 8.2893 0 1.5202-0.13765 3.0404-0.27531 4.423-0.27731 2.4878-1.1072 5.2509-2.3521 7.4614a16.046 16.046 0 0 1-4.8419 5.6659c-2.2125 1.5202-4.7023 2.7631-7.3297 3.1781-1.3845 0.27731-2.9048 0.41497-4.427 0.41497zm-23.928-6.3561c0.41297 1.3806 0.41297 2.9008 0.69028 4.2833-0.27731 0.13966-0.41497 0.13966-0.69227 0.27532-3.4574 1.3825-6.9147 1.9352-10.649 1.9352-8.7142 0-16.323-3.8703-19.366-12.712-0.82993-2.4878-1.2449-5.3885-1.2449-8.5666 0-4.1456 0.82993-8.2913 2.9048-12.022 1.7975-3.4554 4.9796-6.3581 8.5766-7.7407a19.336 19.336 0 0 1 4.01-1.2429c3.4594-0.69028 7.0544-0.55262 10.514 0 1.9352 0.27731 3.7347 0.82993 5.3945 1.5202 0 1.2449 0 2.6254-0.41497 3.8703-0.13965 1.3806-0.82992 2.7631-1.3845 4.1456a26.127 26.127 0 0 0-4.7023-1.2449c-2.9048-0.41496-6.3641-0.69028-8.9916 0.55262-2.7651 1.2449-4.2873 3.8703-5.1172 6.6334a22.089 22.089 0 0 0-0.69227 5.3886c0 2.3501 0.2793 4.423 0.82993 5.9432 1.5222 4.8359 5.6718 6.7711 10.374 6.7711 2.9048 0 5.8095-0.55462 8.5786-1.6599 0.41297 1.3826 0.96559 2.4878 1.3806 3.8703zm-68.609-35.651c1.3825 0 2.6274 0.27531 4.01 0.41297l0.13966 0.69227c0.13965 0.82793 0.41496 1.7955 0.41496 3.1781l0.13965 0.41496 0.27531-0.27731 1.3826-1.3825c1.2449-1.2429 3.597-2.4858 5.2569-2.9008 1.3826-0.55262 3.182-0.69028 4.7023-0.69028 4.012 0 8.024 1.1052 10.789 4.1437 1.1072 1.3825 1.9372 3.1801 2.6294 5.2529 0.55262 1.9352 0.82993 4.2833 0.82993 6.9088v25.287c-1.6599 0.27731-3.1821 0.55262-4.8419 0.55262-1.6598 0-3.182-0.27531-4.8419-0.55262v-23.354c0-2.6254-0.13765-7.7367-3.1801-8.8419-1.9372-0.96758-4.427-0.55461-6.2245 0.13766-4.5646 1.9352-5.9492 7.0464-5.9492 11.607v20.313c-1.5202 0.27531-3.1801 0.55262-4.7023 0.55262-1.6598 0-3.3197-0.13965-4.9796-0.55262v-40.489c1.2449-0.13766 2.6274-0.41297 4.1496-0.41297zm-69.437 6.9088c1.1052-0.2773 2.2145-0.82993 2.9047-1.3826 1.6599-1.5202 2.3501-3.7307 2.3501-5.9412 0-1.2449-0.13766-2.3501-0.69028-3.3177-0.96958-1.9352-3.3197-3.3157-4.9796-3.591-1.9352-0.41496-3.7347-0.55262-5.6718-0.55262-0.82993 0-1.7975 0.13766-2.6274 0.13766h-0.13965v15.2c2.9048-0.13965 6.0868 0.13966 8.8539-0.55262zm-8.7142 26.254c1.5202 0.13965 3.1801 0.13965 4.8399 0.13965 1.2449 0 3.7347-0.2793 4.9796-0.41696 2.6294-0.55262 4.9796-1.5182 6.5038-4.006 0.69028-1.1052 0.82793-2.7631 0.82793-4.008 0-3.4534-1.6598-6.4938-4.9796-7.8763-1.9352-0.82793-4.7023-1.1052-6.9167-1.1052h-5.2549zm-6.6394-48.778c4.7023-0.41496 9.5442-0.82992 14.246-0.41496 2.4898 0.27731 5.1172 0.69028 7.4694 1.6579 3.1821 1.3826 5.6718 3.3157 7.192 6.3561 0.82993 1.5202 1.5222 4.2833 1.5222 7.0484 0 3.0404-0.82993 6.2185-2.9048 8.5666-0.96758 1.1052-1.7975 1.9352-3.0424 2.7631-0.13966 0.13965-0.27731 0.13965-0.41497 0.27731 1.2449 0.55262 2.3501 0.96758 3.4574 1.6579 2.3521 1.5202 4.01 3.593 5.1172 6.2185 0.82993 1.9352 1.2449 4.421 1.2449 6.6334 0 2.4858-0.55262 5.5262-1.9352 7.7367-1.3846 2.3501-2.9048 3.8703-5.1192 5.3905-4.5646 3.0404-10.927 3.7307-16.319 3.7307-4.7043 0-9.1312-0.55262-13.833-1.1052v-55.964c1.2449-0.2773 2.2145-0.55262 3.3197-0.55262zm62.797 117.04c1.2449 0 2.3521-0.13766 3.1821-0.55262 3.3197-1.7955 3.595-6.9088 3.595-10.224 0-1.7955-0.13765-3.4554-0.41496-4.9756-0.69028-3.591-2.4898-5.9412-6.3621-5.9412-3.7347 0-5.5322 2.4878-6.2245 5.9412-0.27731 1.3826-0.41496 3.0404-0.41496 4.9756 0 3.1781 0.27731 8.5666 3.7347 10.224 0.82993 0.41496 2.0748 0.55262 2.9048 0.55262zm0 10.226c-3.3197 0-6.2245-0.55262-8.5766-1.6579-2.3501-1.1052-4.425-2.4878-6.0848-4.423a17.792 17.792 0 0 1-3.597-6.7711c-0.96758-2.6254-1.2449-5.2509-1.2449-8.1516 0-4.008 0.69227-8.429 2.7671-11.884 1.2449-2.2105 2.7651-4.2833 4.8399-5.8035 3.4594-2.6254 7.609-3.591 11.896-3.591 4.2893 0 8.5766 0.96559 12.034 3.591 3.0424 2.3501 5.3945 5.6659 6.3641 9.3966 0.82793 2.6254 1.1052 5.5262 1.1052 8.2913 0 2.7631-0.27731 5.5262-1.1072 8.1516-0.69028 2.4878-2.0748 4.8379-3.595 6.7711-1.7995 1.9352-3.8743 3.4554-6.2245 4.423-2.6294 1.1052-5.6718 1.6579-8.5766 1.6579zm229.2-26.394c-0.13766-0.55062-0.27531-1.1052-0.41496-1.7955a5.7656 5.7656 0 0 0-5.5322-4.008c-1.7975 0-3.597 0.55462-4.8419 1.7955-1.2449 1.2449-1.5202 2.6274-1.9352 4.1476h12.724zm-12.864 9.5362c0.13965 0.82793 0.2793 1.5202 0.69227 2.2105 1.1072 1.9352 2.7671 2.9028 4.8419 3.591 1.1052 0.27931 2.7651 0.55462 3.8723 0.55462 3.8723 0 7.0544-0.96759 10.789-2.0728 0.82992 1.3826 1.5222 3.0404 1.9352 4.5606 0.41699 1.9352 0.69229 3.591 0.69229 5.5262a38.847 38.847 0 0 1-14.244 2.6254c-3.184 0-6.6414-0.41497-9.6838-1.6559-6.5018-2.4898-10.514-8.2933-11.481-15.062-0.69227-4.01-0.27731-8.8459 0.96758-12.714 1.2449-3.8703 3.4594-7.0464 6.6394-9.5362 3.4594-2.6234 7.7467-3.7307 12.034-3.7307 3.8743 0 7.609 0.96958 10.789 3.3177 2.9048 2.2105 4.9796 5.1132 6.2245 8.7063 0.9696 3.0384 1.1072 5.9412 1.1072 9.1192 0 1.5202-0.2773 3.0404-0.5526 4.5606zm-93.505-9.5362c-0.13965-0.55062-0.2773-1.1052-0.41496-1.7955a5.7656 5.7656 0 0 0-5.5322-4.008c-1.7995 0-3.597 0.55462-4.8419 1.7955-1.2449 1.2449-1.5222 2.6274-1.9352 4.1476h12.724zm-13.002 9.5362c0.13766 0.82793 0.27532 1.5202 0.69028 2.2105 1.1072 1.9352 2.7671 2.9028 4.8419 3.591 1.1072 0.27931 2.7671 0.55462 3.8723 0.55462 3.8743 0 7.0544-0.96759 10.789-2.0728 0.82993 1.3826 1.5222 3.0404 1.9372 4.5606 0.41497 1.9352 0.69227 3.591 0.69227 5.5262a38.847 38.847 0 0 1-14.248 2.6254c-3.1801 0-6.6394-0.41497-9.6818-1.6559-6.5018-2.4898-10.514-8.2933-11.481-15.062-0.69028-4.01-0.27531-8.8459 0.96958-12.714 1.2449-3.8703 3.4574-7.0464 6.6394-9.5362 3.4574-2.6234 7.7447-3.7307 12.034-3.7307 3.8723 0 7.607 0.96958 10.789 3.3177 2.9047 2.2105 4.9796 5.1132 6.2245 8.7063 0.96758 3.0384 1.1052 5.9412 1.1052 9.1192 0 1.5202-0.27532 3.0404-0.55262 4.5606zm-111.07-71.857-0.41496-0.13766c-2.7671-0.13965-5.5322-0.55262-8.2993 0.13965-2.7671 0.69028-4.7023 2.4858-4.7023 5.5262 0 2.3501 1.1052 4.421 3.4574 4.9756 3.1821 1.2429 6.7771 0.69027 9.9591-0.13965zm0-8.2893c0-1.3825-0.13965-2.4878-0.55262-3.4554a6.9367 6.9367 0 0 0-1.3845-1.9352c-0.69028-0.55262-1.3826-0.96758-2.4898-1.1052-0.96758-0.27531-2.2125-0.41496-3.595-0.41496-2.3521 0-4.7043 0.2773-7.0544 0.82992-0.69227 0.13966-1.3845 0.41497-2.2145 0.69028l-0.82993 0.27731-0.41496-0.69028c-1.1052-1.9352-1.6599-4.2853-1.6599-6.4958v-0.82793c0.2793-0.13966 0.41496-0.13966 0.69227-0.27731 2.9048-0.82993 6.0848-1.6579 9.1292-1.6579 2.7671-0.13965 6.6394-0.13965 10.097 0.82793 2.0748 0.69227 3.8743 1.6599 5.2569 2.9028 1.3826 1.2429 2.4898 2.9028 3.182 4.9736 0.69028 1.9352 1.1052 4.2853 1.1052 6.9107v25.149c-1.2449 0.27531-2.6274 0.55262-3.8703 0.82793-2.4918 0.41496-4.9816 0.96759-7.4714 1.1052-4.8419 0.27731-9.4065 0.13965-13.971-1.5182-1.6599-0.69227-3.3197-1.9352-4.5646-3.3177a14.404 14.404 0 0 1-2.7651-8.5666c0-1.9352 0.55262-4.423 1.5202-6.0808 1.3846-2.7631 3.8743-4.8359 6.5038-6.0788 4.01-2.0748 9.2649-2.0748 13.554-1.7955 0.55262 0 0.96758 0 1.3826 0.13566h0.13965v-0.41297zm81.056 65.361c-0.55262-0.13965-1.6598-0.41497-2.4898-0.41497-3.8703 0-7.0544 1.2429-8.7142 4.9736-0.55262 1.1052-0.96758 2.9028-1.1052 4.1456-0.27731 2.2105-0.13965 4.9756 0.55262 7.1861 1.7975 4.2833 7.3317 6.3561 11.619 4.5606v-20.451zm6.3641-26.394c2.2145 0 4.1496 0.27731 6.3641 0.55262v54.997c-2.6294 0.82993-5.2589 1.5202-8.024 1.7955-3.0444 0.41496-5.9492 0.55461-8.9916 0.55461-5.1172 0-10.789-1.3826-14.663-4.8379-5.6698-4.6963-7.3297-13.127-5.9452-20.174 0.55263-2.7631 1.3826-5.3886 2.7651-7.8763a20.092 20.092 0 0 1 5.5322-5.8055c2.3541-1.5182 4.9796-2.7611 7.7467-3.3157a23.34 23.34 0 0 1 4.5646-0.41297c1.5222 0 2.9048 0.13766 4.427 0.41297h0.13766v-15.338c1.7975-0.13965 3.8723-0.55262 6.0848-0.55262z" fill="#a6193c"/>
</svg>
