<svg width="500" height="87" version="1.1" xmlns="http://www.w3.org/2000/svg">
 <path d="m136.07 26.866a5.9459 5.9459 0 0 1-2.5676-2.4108h-0.46486v2.7784h-4.0378v-26.978h4.4594v7.0054q0 1.4865-0.0433 3.0973h0.47298a6.7567 6.7567 0 0 1 2.5892-2.3676 7.7567 7.7567 0 0 1 3.7162-0.88378q2.5459 0 4.481 1.2162 1.9405 1.2162 3.0108 3.527 1.0811 2.3108 1.0757 5.5648c0 2.1703-0.38919 3.9865-1.173 5.5405q-1.173 2.3351-3.2081 3.5432a8.8108 8.8108 0 0 1-4.5811 1.2162q-2.0784-0.0027-3.7405-0.84054zm6.7135-4.5567q1.373-1.6486 1.373-4.8919c0-2.1622-0.43784-3.6702-1.3162-4.8162q-1.3135-1.7189-3.8594-1.7243-2.3135 0-3.9162 1.4486-1.6054 1.4513-1.6027 3.8757v2.6648q0 2.3081 1.427 3.6973 1.427 1.3892 3.8594 1.3919 2.6567 0 4.0351-1.6486m24.467 1.8027v-0.43243q0.86486-0.66216 1.1946-1.8784 0.32972-1.2162 0.33243-2.6676v-5.0108q0-3.3324-2.3324-5.1702-2.3324-1.8405-6.827-1.8378-3.7216 0-6.8919 1.2946v3.6054a17.297 17.297 0 0 1 3.3081-0.96216q1.7838-0.32973 3.427-0.33243 2.6216 0 3.7838 0.97567 1.1514 0.97837 1.1514 2.7784v0.78378a24.324 24.324 0 0 0-3.7189-0.30811q-4.6567-0.0027-7.0108 1.6811-2.3459 1.6865-2.3486 4.8162 3e-3 2.8946 1.8378 4.5811 1.8432 1.6838 4.9702 1.6811 2.1919 0 3.7378-0.94054 1.5486-0.94054 2.5243-2.7784h0.31081v0.62973q0 1.6486 0.94053 2.3703 0.94054 0.71892 2.7027 0.71892 1.3649 0 2.5081-0.5081v-3.4432a14.595 14.595 0 0 1-3.6054 0.35135zm-4.3676-1.273q-1.5027 1.3486-3.7405 1.3513-1.6432 0-2.5-0.8081a2.7567 2.7567 0 0 1-0.86486-2.0919q0-1.5676 1.2973-2.4243 1.2865-0.86216 4.1459-0.86486c1.0189 0 2.0811 0.10811 3.1757 0.2973v0.99189q0 2.1946-1.5054 3.5405zm10.913-15.257h3.9919v3.2108h0.46756q1.0919-1.8405 2.7784-2.7648 1.6865-0.92432 3.8378-0.91891 3.4865 0 5.2865 1.8594 1.8027 1.8567 1.8027 5.1892v13.081h-4.4675v-12.576q3e-3 -3.7973-3.9919-3.7973-2.3108 0-3.7756 1.373-1.473 1.3676-1.4703 3.6405v11.354h-4.4594v-19.659zm24.43 17.584q-2.8189-2.5459-2.8189-7.6 0-3.4108 1.4486-5.7567a9.054 9.054 0 0 1 3.8946-3.5189q2.4459-1.1757 5.5-1.1757c2.0351 0 3.7946 0.38378 5.3648 1.1405v3.6405a12.432 12.432 0 0 0-5.1324-1.0622q-2.8973 0.0054-4.6784 1.6054-1.7838 1.6054-1.7838 4.9729c0 2.2378 0.54594 4 1.627 5.0324q1.6216 1.5459 4.6784 1.5459c2.0378 0 3.9378-0.35135 5.6432-1.0595v3.6405q-2.5459 1.1351-5.8756 1.1378c-3.3648 0-5.9946-0.84864-7.8648-2.5432m18.635-0.05676q-2.6648-2.6054-2.6648-7.6918 0-3.3324 1.2703-5.6432 1.2703-2.3108 3.4865-3.4865 2.2081-1.1757 5.0324-1.173c3.0054 0 5.3784 0.87027 7.1459 2.6027q2.6432 2.6054 2.6459 7.6919 0 3.3324-1.273 5.6567a8.3783 8.3783 0 0 1-3.4865 3.4865q-2.2135 1.154-5.0324 1.1513-4.4621 0-7.1243-2.6027zm10.957-2.6648q1.3676-1.5459 1.3703-5.0351c0-2.3243-0.46486-3.9378-1.3919-4.9919q-1.3919-1.5811-3.8162-1.5838c-1.6216 0-2.9189 0.51621-3.8189 1.5486q-1.3486 1.5459-1.3513 5.0351c0 2.3243 0.45946 3.9378 1.373 4.9892q1.3703 1.5892 3.7973 1.5838c1.6189 0 2.9189-0.51351 3.8378-1.5459m19.6 4.0567q-1.8973-1.2135-3-3.5216-1.0919-2.3081-1.0946-5.5621c0-2.1703 0.38108-3.9892 1.154-5.5432q1.1513-2.3351 3.173-3.5405a8.6486 8.6486 0 0 1 4.5594-1.2162q1.9892 0 3.5621 0.76216 1.5676 0.76486 2.4243 2.1351h0.46757q-0.0432-1.5703-0.0432-3.0108v-6.7297h4.4675v26.976h-4.0378v-3.0946h-0.46486q-1.0189 1.6865-2.8216 2.6216a8.4594 8.4594 0 0 1-3.9919 0.94054c-1.6486 0-3.0973-0.4027-4.3702-1.2162zm9.6486-3.8946q1.5676-1.3486 1.5622-3.6621v-2.9351q0-2.3108-1.4297-3.7189-1.4324-1.4081-3.8594-1.4054-2.627 0-4.0135 1.6594-1.3919 1.6676-1.3919 4.8784c0 2.1432 0.42973 3.6973 1.2919 4.8378 0.86486 1.1351 2.1622 1.7027 3.9162 1.7027q2.3513 0 3.9162-1.3513zm25.649 1.5054v-0.43243q0.86486-0.66216 1.1946-1.8784a10.27 10.27 0 0 0 0.33243-2.6676v-5.0108q0-3.3324-2.3324-5.1702-2.3351-1.8405-6.8297-1.8378a18.108 18.108 0 0 0-6.8919 1.2946v3.6054a17.297 17.297 0 0 1 3.3081-0.96216 18.919 18.919 0 0 1 3.4297-0.33243q2.6216 0 3.7811 0.97567 1.154 0.97837 1.1514 2.7784v0.78378a24.324 24.324 0 0 0-3.7162-0.30811q-4.6567-0.0027-7.0135 1.6811-2.3459 1.6865-2.3459 4.8162 3e-3 2.8946 1.8378 4.5811 1.8432 1.6838 4.9702 1.6811 2.1892 0 3.7378-0.94054 1.5486-0.94054 2.5243-2.7784h0.31081v0.62973q0 1.6486 0.94054 2.3703 0.94053 0.71892 2.7 0.71892 1.3649 0 2.5081-0.5081v-3.4432a14.595 14.595 0 0 1-3.6054 0.35135zm-4.3675-1.273q-1.5135 1.3486-3.7405 1.3513-1.6432 0-2.5027-0.8081a2.7297 2.7297 0 0 1-0.86216-2.0919q0-1.5676 1.2946-2.4243 1.2892-0.86216 4.1486-0.86486c1.0189 0 2.0784 0.10811 3.173 0.2973v0.99189q0 2.1946-1.5054 3.5405zm-117.82 56.078v-0.93243q1.8703-1.4432 2.5946-4.0811a21.622 21.622 0 0 0 0.72162-5.7838v-10.878q-5e-3 -7.2216-5.054-11.219-5.0621-4-14.83-3.9946-8.0783 0-14.959 2.8054v7.8189a37.027 37.027 0 0 1 7.1837-2.0838q3.8648-0.72162 7.4351-0.72162 5.6946-0.0027 8.2 2.127 2.5054 2.1297 2.5081 6.0378v1.6973a51.351 51.351 0 0 0-8.0702-0.67838q-10.113 0-15.213 3.654-5.0973 3.6594-5.0946 10.459-3e-3 6.2838 3.9919 9.9459 3.9973 3.654 10.795 3.654 4.7567 0 8.1135-2.0432 3.3621-2.0378 5.4784-6.0378h0.67837v1.3567q0 3.573 2.0432 5.1405 2.0378 1.5676 5.8648 1.5676 2.973 0 5.4459-1.1v-7.481q-3.7405 0.84864-7.8189 0.76486zm-9.4783-2.7648q-3.273 2.9378-8.1162 2.9351-3.5676 0-5.4432-1.7405-1.8649-1.7378-1.8649-4.5432 0-3.4054 2.8054-5.2702 2.8054-1.8703 9.0135-1.873c2.2054 0 4.5108 0.22703 6.8838 0.65135v2.1567q3e-3 4.7648-3.2703 7.6919zm86.1-30.089q-3.7027-4.0351-10.838-4.0351-4.7594 0-8.4513 2.0838-3.6973 2.0865-5.8243 6.1648h-0.94594c-0.8081-2.3324-2.1297-4.2135-3.9811-5.6135q-3.4838-2.6324-9.0972-2.6351-4.4243-0.0027-7.9459 2-3.527 1.9946-5.6486 5.9946h-1.0162v-6.9729h-8.6675v42.675h9.6918v-24.651q-3e-3 -4.7648 3.0189-7.8189 3.0108-3.0621 7.6054-3.0621 7.9054 0.0027 7.9027 8.2432v27.289h9.6891v-24.651q0-4.9324 2.9784-7.9054 2.9702-2.9784 7.6486-2.9757 7.8973 0.0027 7.9 8.2432v27.289h9.6918v-28.392q0-7.2189-3.6973-11.262zm45.854 32.854v-0.93243q1.8648-1.4432 2.5946-4.0811a21.622 21.622 0 0 0 0.72161-5.7838v-10.878q-3e-3 -7.2216-5.054-11.219-5.0621-4-14.83-3.9946-8.0783 0-14.957 2.8054v7.8189a37.027 37.027 0 0 1 7.181-2.0838q3.8676-0.72162 7.4351-0.72162 5.6973-0.0027 8.2 2.127 2.5054 2.1297 2.5108 6.0378v1.6973a51.351 51.351 0 0 0-8.0729-0.67838q-10.113 0-15.211 3.654-5.0973 3.6594-5.0973 10.459 0 6.2838 3.9946 9.9459 3.9973 3.654 10.792 3.654 4.7594 0 8.1162-2.0432 3.3594-2.0378 5.4784-6.0378h0.67838v1.3567q0 3.573 2.0432 5.1405 2.0378 1.5676 5.8648 1.5676a13.243 13.243 0 0 0 5.4378-1.1v-7.481q-3.7405 0.84864-7.8189 0.76486zm-9.4702-2.7648q-3.273 2.9378-8.1162 2.9351-3.5675 0-5.4324-1.7405-1.8676-1.7378-1.8676-4.5432 0-3.4054 2.8054-5.2702 2.8054-1.8703 9.0108-1.873c2.2081 0 4.5108 0.22703 6.8864 0.65135v2.1567q0 4.7648-3.273 7.6919zm33.13 1.8243 25.559-27.027v-7.7351h-36.205v7.7351h24.53l-25.3 27.027v7.7432h37.062v-7.7432zm36.427 3.1054q-5.7784-5.6567-5.781-16.708 0-7.2189 2.7621-12.238 2.7568-5.0135 7.5648-7.5648 4.8-2.5486 10.919-2.5513 9.7756 0.0027 15.511 5.6567 5.7351 5.654 5.7378 16.705c0 4.8135-0.91891 8.9162-2.7621 12.281q-2.7648 5.0594-7.5648 7.5648-4.8 2.5054-10.922 2.5081-9.6891 0.0054-15.465-5.654m23.8-5.7783q2.9784-3.3621 2.9757-10.922c0-5.0405-1.0027-8.5405-3.0189-10.838q-3.0162-3.4459-8.2837-3.4432c-3.5135 0-6.3324 1.1162-8.2837 3.3567q-2.9351 3.3648-2.9324 10.924c0 5.0405 0.98919 8.5405 2.9757 10.838q2.973 3.4459 8.2405 3.4432c3.5135 0 6.3486-1.1162 8.327-3.3594m20.827-32.259h8.6729v6.9729h1.0162q2.3784-3.9946 6.0378-5.9973 3.6486-1.9973 8.327-2 7.5594 0.0054 11.473 4.0378 3.9108 4.0378 3.9081 11.262v28.392h-9.6918v-27.289q0-8.2432-8.6729-8.2432-5.0162 0-8.2 2.9757-3.1892 2.9757-3.1865 7.9054v24.651h-9.6918v-42.675zm50.37-8.3918q1.4649 1.2297 4.0081 1.2297c1.6973 0 2.9405-0.40811 3.8892-1.2297q1.4297-1.2324 1.427-3.8513 0-5.1621-5.4-5.1621-2.5432 0-3.973 1.2703-1.4297 1.273-1.427 3.8919-3e-3 2.6216 1.4703 3.8513zm5.7135 44.208v-0.89189q1.5297-1.2027 2.254-3.427 0.89188-2.7594 0.89188-6.2486v-25.251h-9.6918v34.946q0 4.6811 2.4676 6.7162 2.4594 2.0405 6.9702 2.0432 3.654 0 6.6297-1.1892v-7.4783a39.459 39.459 0 0 1-9.5216 0.8zm48.367 0.05676v-0.93243q1.8649-1.4432 2.5946-4.0811a21.622 21.622 0 0 0 0.72162-5.7838v-10.878q-5e-3 -7.2216-5.054-11.219-5.0648-4-14.83-3.9946-8.0783 0-14.959 2.8054v7.8189a37.027 37.027 0 0 1 7.1838-2.0838 40.54 40.54 0 0 1 7.4351-0.72162q5.6946-0.0027 8.2 2.127 2.5054 2.1297 2.5081 6.0378v1.6973a51.351 51.351 0 0 0-8.0702-0.67838q-10.116 0-15.213 3.654-5.0973 3.6594-5.0946 10.459-3e-3 6.2838 3.9919 9.9459 3.9973 3.654 10.795 3.654 4.7567 0 8.1135-2.0432 3.3567-2.0378 5.4864-6.0378h0.67838v1.3567q0 3.573 2.0432 5.1405 2.0351 1.5676 5.8675 1.5676 2.973 0 5.4351-1.1v-7.481q-3.7378 0.84864-7.8189 0.76486zm-9.4783-2.7648q-3.2702 2.9378-8.1162 2.9351-3.5702 0-5.4351-1.7405-1.8703-1.7378-1.873-4.5432 0-3.4054 2.8054-5.2702c1.873-1.2432 4.8702-1.873 9.0135-1.873 2.2054 0 4.5108 0.22703 6.8837 0.65135v2.1567q3e-3 4.7648-3.273 7.6919zm-124.08-43.486-7.8648 6.0378-3.1811-3.8162 9.7756-9.2486h2.4513l9.7756 9.2486-3.1811 3.8162zm-286.19-32.4a21.216 21.216 0 0 0-17.281 8.9189l-55.135 77.554h33.135l60.513-85.116-22.649 85.113h25.276v-86.47z" fill="#003c2d"/>
 <path d="m44.959 70.107-11.819 16.627c30.216-29.63 66.359-9.4027 73.864-64.64-18.081 16.735-34.924 10.097-62.046 48.013" fill="#00e12d"/>
</svg>
