<?xml version="1.0" encoding="UTF-8"?>
<!-- Created with Inkscape (http://www.inkscape.org/) -->
<svg width="500" height="166" version="1.1" viewBox="0 0 500 166" xmlns="http://www.w3.org/2000/svg">
 <g transform="matrix(1.2042 0 0 1.2042 -227.87 -253.78)">
  <path d="m551 304.59v-11.617h13.803v-7.7907h-13.803v-10.797h17.9v-7.9272h-26.512v44.833c9.0213 2.592 17.495 3.9617 27.88 4.2301v-8.0584c-6.5597-0.2736-12.987-1.2328-19.268-2.8724zm29.792 2.5988c4.6467-0.40787 8.4733-1.3644 11.205-2.7341 1.7817-0.9596 3.2815-2.5965 3.0108-5.0585-0.40933-3.4181-4.2399-4.9183-6.9705-6.15-3.4187-1.5024-6.9695-3.1404-9.5668-5.6017-2.872-2.8705-3.8295-6.286-3.6907-9.8437 0.54947-7.7881 7.3788-12.161 14.624-12.161 5.0559 0 9.4307 1.6388 12.844 5.0555l-5.5985 5.7411s-3.2788-3.0089-7.2453-3.0089c-3.416 0-5.7427 1.7791-5.8787 4.5105-0.2748 3.8291 4.7852 5.8803 7.5159 7.1089 4.0985 1.9128 7.1083 3.5535 9.436 5.6016 2.3215 2.3244 4.2308 5.6065 3.9603 9.71-0.6788 8.6064-8.6121 12.567-15.852 14.075-3.6949 0.6788-7.9295 1.0871-13.533 1.0871v-8.1964c2.46 0 5.3291-0.1356 5.7399-0.1356zm-138.18 5.3257v-46.057h26.517v7.9272h-17.771v10.797h13.808v7.7907h-13.808v11.617h17.771v7.9245zm45.516 0.82813c-4.9229-0.13986-9.7071-1.5096-13.401-4.6512l-0.948-0.95653 5.5987-5.8768 0.96 0.95587c2.188 1.9113 5.3307 2.4597 7.9237 2.4597 3.9655 0 6.4268-1.7787 6.6973-4.9153 0.27747-3.8324-4.5131-5.8805-7.2427-7.1123-3.6904-1.6407-7.1093-3.2811-9.5691-5.7369-2.8683-2.6008-3.8283-6.1508-3.6907-9.7085 0.6868-7.9245 7.6547-12.161 14.629-12.161 3.0039 0 5.7399 0.40893 8.3345 1.6388v8.4733c-3.6921-1.776-6.0136-2.3245-8.2015-2.3245h-0.13307c-3.4175 0-5.6081 1.7791-5.8803 4.5105-0.27733 3.8291 4.7827 5.8803 7.516 7.1089 4.1041 1.9128 7.1081 3.5535 9.2947 5.7423 2.8693 2.7292 3.8267 6.2827 3.552 9.7009-0.68267 8.4748-7.6505 12.853-15.44 12.853zm-60.681-0.55226-21.599-29.52v29.244h-8.4717v-46.057h7.1013l20.505 28.02v-28.02h8.4733v46.333zm-60.136-21.32 5.0505-15.718 5.0589 15.718zm10.109-25.013h-9.9801l-15.848 46.057h8.8815l4.5093-13.664h14.897l4.3775 13.664h9.4295zm-43.876 38.542h-5.74v-12.435h4.9213c3.9667 0 8.888 1.0885 8.888 6.2853 0 4.512-3.9667 6.014-8.0693 6.1493zm-5.74-31.024h4.6492c3.5536 0 7.9284 1.0937 7.9284 5.6008 0 4.5116-3.9603 6.0159-8.0603 6.1539h-4.5173zm15.719 14.76c3.4187-1.6407 5.6065-5.8779 5.6065-9.8385 0-1.7805-0.27586-3.4189-0.95573-4.9216-2.6-5.74-9.4296-7.3796-15.58-7.5183h-13.397v46.057h14.217c5.0536 0 9.4296-1.2239 12.439-3.6861 2.868-2.326 4.5068-5.7412 4.5068-9.7055 0-2.5969-0.68533-5.3315-2.7349-7.5175-1.0919-1.0912-2.4597-2.1861-4.1012-2.8695zm172.21 24.054v-38.406h-11.479v-7.9272h31.707v7.9272h-11.483v38.406zm-232.77 4.1643c-2.7428 2.5407-6.0472 4.4183-10.698 6.0869l-55.627 19.36v-47.925l40.971-23.62 0.0328-0.0189c0.84706-0.51014 1.5659-1.0076 2.2617-1.4909 0.13147-0.0885 0.26453-0.18253 0.39573-0.27133 9.7156 0.43387 17.135 3.07 22.667 8.0496 5.8231 5.5 8.6528 12.015 8.6528 19.911 0 7.9064-2.838 14.422-8.6559 19.918zm-31.313-47.907-35.012 20.189v-20.189zm-39.553 68.156-17.491-29.96 17.491-10.135zm22.446-121.64c11.322 0 19.682 2.6425 25.551 8.076 5.7411 5.3111 8.6543 12.012 8.6543 19.918 0 8.4797-3.5028 15.892-9.8789 20.95h-46.772v27.353l-18.331 10.617v-86.913zm51.522 58.239-0.0381-0.0325c-5.3387-4.8105-12.367-7.7775-20.945-8.8452 5.2695-5.6844 8.2084-13.223 8.2084-21.367 0-9.2251-3.4035-17.047-10.113-23.252-6.7453-6.2457-16.114-9.2829-28.634-9.2829h-45.32v96.013l24.125 41.322 60.432-21.03c5.2009-1.8683 9.0996-4.1015 12.285-7.0556 6.6996-6.3189 10.095-14.135 10.095-23.233 0-9.0947-3.3956-16.912-10.095-23.235z" fill="#004b8d"/>
 </g>
</svg>
