<svg xmlns="http://www.w3.org/2000/svg" width="500" height="145" viewBox="0 0 500 145" fill="none"><g clip-path="url(#clip0_25767_76489)"><path d="M169.314 71.7237C169.314 55.2361 181.624 42.812 198.112 42.812C207.146 42.812 214.486 46.5419 219.23 52.4137C219.911 53.3144 219.911 54.1085 219.23 54.7824L214.146 59.6399C213.245 60.5407 212.111 60.3205 211.437 59.5265C208.161 56.2503 204.437 54.1085 198.672 54.1085C188.283 54.1085 181.05 61.5616 181.05 71.7304C181.05 81.8992 188.277 89.5726 198.892 89.5726C204.537 89.5726 208.267 87.424 211.43 84.1545C212.217 83.3672 213.352 83.1403 214.252 84.0411L219.337 88.8986C220.017 89.5792 220.017 90.3666 219.337 91.2673C214.593 97.1391 207.253 100.869 198.332 100.869C181.738 100.862 169.314 88.3248 169.314 71.7237Z" fill="#7664FA"></path><path d="M224.768 71.6103C224.768 55.3495 236.065 42.812 252.893 42.812C269.494 42.812 279.095 55.3495 279.095 69.1282C279.095 73.9857 278.081 76.3544 273.898 76.3544H236.625C238.093 85.1621 244.646 91.0338 255.602 91.0338C261.02 91.0338 265.43 89.6793 269.834 86.7434C270.515 86.2897 271.189 86.4031 271.642 87.0837L274.805 91.3741C275.486 92.2749 275.259 92.9555 274.351 93.8563C269.494 98.6004 262.381 100.856 254.587 100.856C236.512 100.862 224.768 88.0979 224.768 71.6103ZM268.253 67.5401C267.572 58.5056 261.587 53.0809 252.893 53.0809C244.199 53.0809 237.76 58.3922 236.519 67.5401H268.253Z" fill="#7664FA"></path><path d="M286.882 97.8119V20.4448C286.882 19.4306 287.449 18.75 288.463 18.75H297.498C298.512 18.75 299.079 19.4306 299.079 20.4448V97.8119C299.079 98.8261 298.512 99.5066 297.498 99.5066H288.463C287.449 99.5066 286.882 98.8261 286.882 97.8119Z" fill="#7664FA"></path><path d="M306.873 71.7237C306.873 55.2361 319.183 42.812 335.671 42.812C344.706 42.812 352.045 46.5419 356.789 52.4137C357.47 53.3144 357.47 54.1085 356.789 54.7824L351.705 59.6399C350.804 60.5407 349.67 60.3205 348.996 59.5265C345.72 56.2503 341.997 54.1085 336.232 54.1085C325.843 54.1085 318.61 61.5616 318.61 71.7304C318.61 81.8992 325.836 89.5726 336.452 89.5726C342.097 89.5726 345.827 87.424 348.989 84.1545C349.777 83.3672 350.911 83.1403 351.812 84.0411L356.896 88.8986C357.577 89.5792 357.577 90.3666 356.896 91.2673C352.152 97.1391 344.812 100.869 335.891 100.869C319.297 100.862 306.873 88.3248 306.873 71.7237Z" fill="#7664FA"></path><path d="M360.065 71.8372C360.065 55.463 372.263 42.812 388.75 42.812C405.125 42.812 417.322 55.463 417.322 71.8372C417.322 88.2114 405.125 100.862 388.75 100.862C372.263 100.862 360.065 88.2114 360.065 71.8372ZM388.75 89.5659C398.239 89.5659 405.578 82.453 405.578 71.8372C405.578 61.2213 398.239 54.1085 388.75 54.1085C379.149 54.1085 371.809 61.2213 371.809 71.8372C371.809 82.453 379.149 89.5659 388.75 89.5659Z" fill="#7664FA"></path><path d="M424.214 25.1898C424.214 21.3532 427.264 18.1904 431.327 18.1904C435.277 18.1904 438.327 21.3532 438.327 25.1898C438.327 29.1399 435.277 32.3027 431.327 32.3027C427.264 32.3027 424.214 29.1399 424.214 25.1898ZM425.115 45.8544C425.115 44.8402 425.682 44.1596 426.697 44.1596H435.844C436.859 44.1596 437.426 44.8402 437.426 45.8544V97.8061C437.426 98.8203 436.859 99.5009 435.844 99.5009H426.697C425.682 99.5009 425.115 98.8203 425.115 97.8061V45.8544Z" fill="#7664FA"></path><path d="M450.304 97.813V45.8613C450.304 44.8471 450.871 44.1665 451.885 44.1665H460.466C461.48 44.1665 462.047 44.6202 462.047 45.9747L462.501 52.754C465.664 47.1091 471.195 42.812 479.896 42.812C491.639 42.812 500 50.9457 500 65.5117V97.813C500 98.8272 499.319 99.5078 498.305 99.5078H489.384C488.37 99.5078 487.803 98.8272 487.803 97.813V67.7737C487.803 59.0794 483.512 54.1085 475.719 54.1085C467.926 54.1085 462.508 59.0794 462.508 67.7737V97.813C462.508 98.8272 461.94 99.5078 460.926 99.5078H451.892C450.864 99.5078 450.304 98.8272 450.304 97.813Z" fill="#7664FA"></path><path d="M143.291 72.0898C143.291 43.0313 125.736 17.2623 99.0725 6.31947C98.1651 2.76306 94.969 0.127441 91.1323 0.127441C86.5884 0.127441 82.9052 3.81062 82.9052 8.35456C82.9052 12.8985 86.5884 16.5817 91.1323 16.5817C92.4134 16.5817 93.6078 16.2614 94.6887 15.741C117.722 24.989 132.929 47.1215 132.929 72.0898C132.929 103.904 108.174 130.047 76.7799 132.649V120.672C92.5802 118.917 106.506 109.616 114.172 95.6702C118.309 95.2365 121.545 91.7802 121.545 87.5299C121.545 82.9859 117.862 79.3094 113.325 79.3094C108.788 79.3094 105.098 82.9926 105.098 87.5299C105.098 88.3372 105.251 89.0979 105.465 89.8318C98.859 102.53 85.8344 110.643 71.3418 110.643C50.0834 110.643 32.7884 93.3482 32.7884 72.0898C32.7884 50.8314 50.0834 33.5364 71.3418 33.5364C85.9211 33.5364 99.0191 41.7435 105.585 54.5746C105.291 55.422 105.098 56.3095 105.098 57.257C105.098 61.8009 108.781 65.4841 113.325 65.4841C117.869 65.4841 121.545 61.8009 121.545 57.257C121.545 53.1334 118.503 49.7505 114.539 49.1566C106.953 34.8442 92.8271 25.2893 76.7799 23.5077V6.59973C76.7799 6.55302 76.7532 6.51298 76.7532 6.46627C76.7599 6.33282 76.8266 6.22606 76.8266 6.09261C76.8266 3.23013 74.5046 0.914786 71.6488 0.914786C32.1412 0.914786 0 32.8425 0 72.0898C0 101.142 17.5552 126.917 44.2183 137.86C45.1258 141.417 48.3219 144.052 52.1585 144.052C56.7025 144.052 60.3857 140.369 60.3857 135.825C60.3857 131.281 56.7025 127.598 52.1585 127.598C50.8774 127.598 49.6831 127.918 48.6021 128.439C25.5688 119.191 10.3623 97.0648 10.3623 72.0898C10.3623 40.3089 35.0704 14.1796 66.4176 11.5373V23.4276C41.7495 25.9031 22.4261 46.7812 22.4261 72.0965C22.4261 97.4117 41.7495 118.29 66.4176 120.765V138.2C66.4176 141.063 68.7396 143.385 71.5954 143.385C71.8423 143.385 72.0558 143.278 72.296 143.245C111.497 142.885 143.291 111.124 143.291 72.0898Z" fill="#7664FA"></path></g><defs><clipPath id="clip0_25767_76489"><rect width="500" height="143.925" fill="white" transform="translate(0 0.127441)"></rect></clipPath></defs></svg>