<svg width="500" height="277" version="1.1" viewBox="0 0 500 277" xmlns="http://www.w3.org/2000/svg">
 <path d="m438.27 44.376h1.1395c3.5115 0 6.9299 1.6392 8.8601 4.5899 0.15405 0.23139 0.28777 0.46306 0.42439 0.71363 2.5086 4.6094 3.5115 9.8935 3.1452 15.139l-1.7557 21.002-0.96507 13.346c-0.11627 1.6973 1.2936 3.1051 2.9912 2.9507 5.5405-0.48193 18.124-1.4464 36.943-2.3528 6.1015-0.28923 11.156 4.7056 10.944 10.819-0.19185 5.2457-3.6655 9.8356-8.7031 11.379-6.9125 2.102-18.203 3.6257-35.092 5.9207-2.2586 0.30842-3.9388 2.2371-3.9388 4.4934v7.7142c0 29.565-3.1249 44.357-9.3426 44.357h-0.98252c-2.9359 0-5.8311-0.98368-7.9909-2.9894-6.4852-6.0556-9.7292-17.511-9.7292-34.386l-0.2122-11.552c-0.0378-1.9476-1.718-3.4519-3.6684-3.2978-1.9098 0.15436-4.6306 0.46307-8.2613 0.9645-12.988 1.8514-26.287 4.3585-37.542 4.5126-1.1773 0-2.3546-0.11569-3.5115-0.34707l-0.61915-0.13488c-4.6713-0.94502-7.8747-5.2457-7.4677-9.99l0.34592-4.4742c0.0958-1.3116 0.46218-2.6037 1.0813-3.7801 1.1976-2.2758 2.933-4.6672 7.5084-5.5541 8.145-1.6008 10.52-1.6008 20.499-2.9508l19.688-2.1988c9.4967-1.1764 12.139-0.92553 12.139-10.26v-39.69c0-7.7337 6.2759-14.001 14.014-14.001" fill="#e62a36"/>
 <path d="m329.27 26.653c-1.3313-1.4271-3.3981-2.3336-5.6364-2.3336-2.2383 0-4.305 0.90644-5.6364 2.3336-1.8517 2.0057-2.2383 4.1465-2.2383 11.726 0 7.5793 0.36627 9.7007 2.2383 11.726 1.3313 1.4273 3.3981 2.3336 5.6364 2.3336 2.2383 0 4.3051-0.90636 5.6364-2.3336 1.8546-2.0057 2.2383-4.1463 2.2383-11.726 0-7.579-0.36626-9.7006-2.2383-11.726zm4.3632 26.903c-2.6074 2.6037-5.9445 4.0306-9.9792 4.0306-4.0347 0-7.334-1.427-9.9211-4.0306-3.7266-3.7222-3.6684-7.9069-3.6684-15.178 0-7.2706-0.0581-11.456 3.6684-15.178 2.6045-2.6036 5.8864-4.0307 9.9211-4.0307 4.0347 0 7.3718 1.4271 9.9792 4.0307 3.7237 3.7221 3.6103 7.9071 3.6103 15.178 0 7.2709 0.11337 11.456-3.6103 15.178zm-53.371 4.0306c-3.9376 0-7.3346-1.427-9.9211-4.0306-3.706-3.7222-3.6673-7.9069-3.6673-15.178 0-7.2706-0.0581-11.456 3.6673-15.178 2.6057-2.6036 6.0029-4.0307 9.9211-4.0307 6.9488 0 12.16 4.0885 13.492 11.61h-5.848c-0.90694-3.8185-3.4551-6.4799-7.6436-6.4799-2.2389 0-4.2463 0.84857-5.5782 2.2757-1.8528 2.0057-2.2775 4.185-2.2775 11.784 0 7.5985 0.42469 9.7586 2.2775 11.784 1.3319 1.4273 3.3394 2.2758 5.5782 2.2758 4.1885 0 6.7945-2.6615 7.7017-6.48h5.7899c-1.2732 7.5407-6.6392 11.61-13.492 11.61m-37.388-0.28923-17.468-26.576v26.576h-5.7329v-37.761h5.2504l17.468 26.518v-26.518h5.7521v37.761zm-54.644-29.218-5.887 16.759h11.62zm9.9406 29.218-2.6057-7.5793h-14.921l-2.6057 7.5793h-6.0994l13.859-37.781h4.6132l13.859 37.781zm-52.212-16.662h-9.033v11.513h9.033c3.9763 0 6.2154-2.4493 6.2154-5.7855 0-3.3365-2.2391-5.728-6.2154-5.728zm-0.52093-15.949h-8.4929v10.819h8.4929c3.6673 0 6.1573-1.9092 6.1573-5.4192 0-3.5099-2.49-5.4192-6.1573-5.4192m1.0616 32.631h-15.287v-37.761h14.708c7.0064 0 11.407 3.9729 11.407 10.337 0 4.0888-2.5479 7.0009-5.0957 8.0037 2.9147 1.1764 5.6748 3.9728 5.6748 8.7557 0 6.9619-4.7289 10.665-11.407 10.665zm67.403 96.139 0.0769 0.73284c0.63689 5.7279 5.366 10.125 11.118 10.376 13.492 0 35.091-19.401 39.839-41.927 1.4863-7.0584 0.67554-13.307-1.4863-18.186-0.0192-0.0579-0.0387-0.0963-0.0769-0.15436-1.2741-2.8156-4.7097-3.915-7.47-2.5069-24.803 12.555-42.001 32.245-42.001 51.685m50.802-79.939c7.1997-2.3915 15.191 0.94473 18.24 7.8877 6.6207 15.043 9.9391 46.652 9.9391 94.808v7.0006c0 44.859-13.606 74.712-40.803 89.524-4.6905 2.5455-9.9406 3.8763-15.268 3.8763-13.762 0-23.857-8.9871-30.265-27-1.6409-4.5902-2.5478-9.3923-2.8568-14.252-0.23168-3.6836 3.0499-6.6148 6.6977-5.9785 1.8723 0.32789 3.2234 1.6586 4.4202 3.1438 5.0573 6.2869 8.5316 11.668 15.673 17.588 2.4322 2.0252 5.5012 3.1629 8.6668 3.1629 9.2264 0 16.928-7.8686 23.104-23.644 5.0187-12.786 7.2384-26.499 6.9488-40.23l-0.69473-32.4s-23.741 32.014-52.733 30.895c-17.121-0.65577-29.416-16.065-23.22-43.933 5.173-23.278 16.001-39.516 37.523-53.961 10.018-6.7113 20.962-11.919 32.389-15.737l2.2197-0.73282zm59.219 18.765c2.3342 0.15435 4.5928 1.0799 6.1945 2.7964 3.34 3.6065 4.712 9.9129 4.151 18.9l-1.6598 26.306c-0.42441 6.6535-0.32847 13.365 0.44475 19.999 1.1191 9.7586 3.0115 14.792 9.0519 15.004l10.154 0.63632 2.1424 0.13488c2.2179 0.13516 3.9184 2.0636 3.7818 4.2815-0.13372 2.1406-0.98542 4.1658-2.4127 5.7663-3.1452 3.5295-7.4125 6.8273-12.837 9.8938-2.8168 1.6005-6.0608 2.3528-9.3019 2.1406-13.395-0.84852-17.682-13.326-22.371-37.453-1.5639-8.0229-2.2964-16.2-2.4127-24.377l-0.30813-21.947c0.98252-15.525 2.933-22.911 15.383-22.121m-177.75 0.03866c2.3354 0.15435 4.5937 1.0799 6.196 2.7964 3.3391 3.6065 4.7097 9.913 4.1498 18.9l-1.6601 26.306c-0.42441 6.6535-0.30871 13.365 0.44417 19.999 1.1194 9.7586 3.0109 14.792 9.0525 15.004l10.153 0.63631 2.1426 0.13488c2.2388 0.13516 3.9182 2.0636 3.7833 4.2815-0.13517 2.1406-0.98455 4.1658-2.413 5.7663-3.1269 3.5295-7.4119 6.8273-12.836 9.8938-2.8179 1.6005-6.0608 2.3528-9.3034 2.1406-13.396-0.84852-17.681-13.326-22.371-37.453-1.5633-8.0229-2.2967-16.2-2.4127-24.377l-0.30871-21.947c0.98426-15.525 2.9339-22.911 15.384-22.121m-62.654-91.781c12.469 0 15.287 8.3121 22.409 54.559 3.7641 24.474 5.6364 55.813 5.6364 92.552 0 24.743-1.8531 40.943-5.5786 48.58-1.872 3.8379-6.4852 5.3422-10.249 3.3365-5.0184-2.6807-8.1261-6.5765-9.3229-11.706-0.57904-2.488-0.57904-5.0914-0.2122-7.6177 0.90723-6.3259 4.285-20.732 4.285-35.023 0-8.2926 0-22.525-1.0808-44.26h-3.5516 1.2159c-11.62 0-25.247 1.62-33.778 4.8792-18.588 7.0971-30.555 25.303-30.555 45.167v5.9977c0.09651 11.938 5.4431 18.688 16.349 18.688 10.172 0 22.641-9.3342 37.388-28.022l2.297-2.4493c1.0811-1.1569 2.9725-0.88717 3.6868 0.50144 0.65637 1.2537 0.77206 2.7194 0.30871 4.0501-10.288 29.738-25.633 44.608-46.035 44.608-13.955 0-24.321-7.2322-31.096-21.716-5.8099-12.439-6.9873-26.499-4.1692-39.921 6.3503-30.259 33.257-50.798 58.138-52.708 15.422-1.1764 27.293 2.372 27.293 2.372-1.1773-35.563-10.423-67.808-10.423-67.808l-0.48254-4.3393c-0.54038-4.725 2.799-9.0064 7.4892-9.6621" fill="#171b3d"/>
</svg>
