<?xml version="1.0" encoding="UTF-8"?>
<svg id="Layer_1" data-name="Layer 1" xmlns="http://www.w3.org/2000/svg" viewBox="0 0 349.36 135.73">
  <defs>
    <style>
      .cls-1 {
        fill: #f37124;
        stroke-width: 0px;
      }
    </style>
  </defs>
  <path class="cls-1" d="M190.2,38.75l27.97-10.3V.97l-33.85,26.49c-2.13,1.64-3.43,3.27-3.43,5.72,0,4.25,4.09,7.52,9.32,5.56M180.88,134.09h17.99V47.42h-17.99v86.68ZM99.27,134.09h17.99v-33.36h44.97v-16.35h-44.97c-.33-13.57,8.83-21.75,21.42-21.75,6.87,0,12.76,2.45,17.17,5.56l11.45-12.92c-8.34-6.21-17.34-9.49-28.13-9.49-23.71,0-39.9,15.7-39.9,38.6v49.72ZM18.32,81.6c2.62-11.77,11.94-18.97,24.86-18.97s21.75,7.2,23.39,18.97H18.32ZM85.04,88.96c0-19.95-14.39-43.17-41.87-43.17C18.97,45.78,0,63.93,0,90.1s19.13,45.63,44.97,45.63c16.03,0,28.95-7.69,37.45-18.97l-12.59-10.3c-6.21,8.18-14.72,12.43-25.35,12.43-14.06,0-23.55-8.01-26.17-20.93h57.84c5.56,0,8.88-2.62,8.88-9"/>
  <path class="cls-1" d="M269.97,108.88h-1.24l10.33,25.11h5.06l-11.06-25.83c-.62-1.45-1.65-2.58-3.62-2.58-1.76,0-3,.93-3.72,2.58l-11.06,25.83h4.96l10.33-25.11ZM227.08,133.99h4.65v-28.42h-4.65v28.42ZM241.03,120.66c4.96,0,8.78-3.41,8.78-7.96s-3.41-7.13-8.58-7.13h-12.09v4.13h11.47c2.58,0,4.34,1.45,4.34,3.82s-1.65,4.13-3.93,4.13v3ZM289.4,133.99h4.65l-.21-25.63-2.48.93,16.43,22.73c.93,1.34,2.17,1.96,3.31,1.96,1.55,0,2.69-1.34,2.69-3.1v-25.32h-4.65l.21,25.63,2.48-.93-16.43-22.73c-.93-1.24-1.76-1.96-3.2-1.96-1.55,0-2.79,1.34-2.79,3.1v25.32ZM259.95,128.3h19.01v-4.13h-19.01v4.13ZM342.3,133.99h5.89l-13.12-14.26,13.02-14.16h-5.99l-10.75,11.88c-1.34,1.55-1.45,3.1,0,4.65l10.95,11.88ZM323.29,133.99h4.65v-28.42h-4.65v28.42ZM229.15,133.99h11.99c6.3,0,9.82-3.1,9.82-7.85,0-5.48-4.96-8.47-9.92-8.47h-11.88v4.13h12.5c2.58,0,4.34,1.34,4.34,3.72,0,2.69-2.17,4.34-5.27,4.34h-11.57v4.13Z"/>
</svg>