<?xml version="1.0" encoding="UTF-8"?> <svg xmlns="http://www.w3.org/2000/svg" width="137" height="41" viewBox="0 0 137 41" fill="none"><path d="M34.4701 13.2466H29.8741C29.613 13.2466 29.4041 13.4552 29.4041 13.7159V39.5308C29.4041 39.7915 29.613 40.0001 29.8741 40.0001H34.4701C34.7313 40.0001 34.9402 39.7915 34.9402 39.5308V13.7159C34.9402 13.4552 34.7313 13.2466 34.4701 13.2466Z" fill="#082A4D"></path><path d="M114.953 31.0299L120.698 18.8787L126.599 31.0299H114.953ZM136.47 39.4784L123.779 13.6114C123.675 13.3506 123.413 13.1942 123.152 13.1942H118.191C117.93 13.1942 117.668 13.3506 117.564 13.6114L105.238 39.4784C105.134 39.687 105.291 39.9999 105.552 39.9999H110.357C110.618 39.9999 110.879 39.8435 110.983 39.5827L112.916 35.4628H128.793L130.778 39.5827C130.882 39.8435 131.143 39.9999 131.404 39.9999H136.157C136.418 39.9999 136.575 39.7392 136.47 39.4784Z" fill="#082A4D"></path><path d="M95.3679 24.7198C95.1068 25.3456 94.689 25.8671 94.1667 26.2844C93.6444 26.7016 92.9655 27.0666 92.1821 27.2752C91.3986 27.536 90.5108 27.6403 89.4662 27.6403H81.0054V17.9402H89.4662C91.5553 17.9402 93.1222 18.3574 94.1667 19.1396C95.2113 19.9741 95.7335 21.1214 95.7335 22.5816C95.7858 23.416 95.6291 24.094 95.3679 24.7198ZM98.606 15.7498C97.6137 14.9154 96.308 14.3417 94.7934 13.8724C93.2788 13.4552 91.4509 13.2466 89.3618 13.2466H75.9915C75.7304 13.2466 75.5215 13.4552 75.5215 13.7159V39.5308C75.5215 39.7915 75.7304 40.0001 75.9915 40.0001H80.5353C80.7965 40.0001 81.0054 39.7915 81.0054 39.5308V32.3861H89.3618H89.5185L94.4278 39.6872C94.5845 39.8958 94.7934 40.0001 95.0023 40.0001H100.695C100.956 40.0001 101.165 39.6872 101.009 39.4265L95.4724 31.3952C96.5169 31.0301 97.4048 30.5086 98.1882 29.9349C98.9716 29.3613 99.5984 28.6833 100.068 27.901C100.591 27.1709 100.956 26.3365 101.165 25.4499C101.426 24.5634 101.531 23.6246 101.531 22.6338C101.531 21.1735 101.27 19.8176 100.8 18.6703C100.382 17.523 99.5984 16.5321 98.606 15.7498Z" fill="#082A4D"></path><path d="M62.4116 34.3154C61.6281 34.9413 60.5314 35.2542 59.0168 35.2542H47.7878V28.0573H59.0168C60.4791 28.0573 61.6281 28.3702 62.4116 28.996C63.195 29.6218 63.5606 30.5084 63.5606 31.6557C63.5606 32.8031 63.195 33.6896 62.4116 34.3154ZM47.7878 17.9921H56.9277C58.39 17.9921 59.539 18.2529 60.3225 18.7744C61.1059 19.2959 61.4715 20.0781 61.4715 21.0169C61.4715 21.0169 61.4715 21.0169 61.4715 21.069C61.4715 22.425 60.2702 23.5201 58.9123 23.5201H47.7878V17.9921ZM65.6497 25.0325C66.7465 23.7287 67.2687 22.2685 67.2687 20.5475C67.2687 19.5045 67.0598 18.5658 66.642 17.627C66.2242 16.7405 65.5974 15.9582 64.7096 15.2802C63.8217 14.6544 62.7249 14.1329 61.4192 13.7678C60.1135 13.4028 58.5467 13.1942 56.771 13.1942H42.7218C42.4606 13.1942 42.2517 13.4028 42.2517 13.6635V39.4784C42.2517 39.7392 42.4606 39.9478 42.7218 39.9478H58.8601C60.6358 39.9478 62.2027 39.7392 63.5083 39.3741C64.814 39.0091 65.9108 38.4354 66.7987 37.7053C67.6866 36.9752 68.3133 36.1407 68.7311 35.1499C69.1489 34.159 69.3578 33.0117 69.3578 31.76C69.3578 30.2998 69.0445 28.9439 68.4177 27.7965C67.8432 26.7014 66.9031 25.7626 65.6497 25.0325Z" fill="#082A4D"></path><path d="M4.64825 4.79798C4.64825 4.22432 4.23043 3.96356 3.39479 3.96356H1.56683V5.6324H3.39479C4.17821 5.58025 4.64825 5.37164 4.64825 4.79798ZM1.56683 1.2517V2.81623H3.13365C3.91707 2.81623 4.33489 2.55548 4.33489 2.03397C4.33489 1.51245 3.91707 1.2517 3.13365 1.2517H1.56683ZM6.21508 4.95443C6.21508 6.10176 5.27498 6.77973 3.49925 6.77973H0V0.10437H3.29034C4.96162 0.10437 5.84949 0.782336 5.84949 1.82536C5.84949 2.50333 5.48389 3.02484 4.96162 3.2856C5.6928 3.54635 6.21508 4.12002 6.21508 4.95443Z" fill="#082A4D"></path><path d="M12.8999 4.17217L11.8031 1.61676L10.7586 4.17217H12.8999ZM13.3699 5.31949H10.2363L9.66178 6.77973H8.04272L11.0719 0.10437H12.6388L15.6157 6.77973H13.9967L13.3699 5.31949Z" fill="#082A4D"></path><path d="M24.1811 0.10437V6.77973H22.8755L19.4807 2.71193V6.77973H17.9661V0.10437H19.2718L22.6143 4.17217V0.10437H24.1811Z" fill="#082A4D"></path><path d="M26.9497 3.44198C26.9497 1.46023 28.5165 0 30.6056 0C31.7546 0 32.747 0.41721 33.3737 1.19948L32.3814 2.08605C31.9113 1.56454 31.3368 1.30378 30.6579 1.30378C29.4044 1.30378 28.5165 2.19035 28.5165 3.44198C28.5165 4.69361 29.4044 5.58018 30.6579 5.58018C31.3368 5.58018 31.9113 5.31943 32.3814 4.79791L33.3737 5.68448C32.747 6.46675 31.7546 6.88396 30.6056 6.88396C28.5165 6.88396 26.9497 5.42373 26.9497 3.44198Z" fill="#082A4D"></path><path d="M41.2594 3.44198C41.2594 2.19035 40.3715 1.30378 39.1703 1.30378C37.9691 1.30378 37.0812 2.19035 37.0812 3.44198C37.0812 4.69361 37.9691 5.58018 39.1703 5.58018C40.3715 5.58018 41.2594 4.69361 41.2594 3.44198ZM35.4622 3.44198C35.4622 1.46023 37.029 0 39.1703 0C41.3116 0 42.8784 1.46023 42.8784 3.44198C42.8784 5.42373 41.3116 6.88396 39.1703 6.88396C37.029 6.88396 35.4622 5.42373 35.4622 3.44198Z" fill="#082A4D"></path><path d="M23.6591 13.2466H0.470048C0.20891 13.2466 0 13.4552 0 13.7159V18.4095C0 18.6703 0.20891 18.8789 0.470048 18.8789H21.0999C21.3611 18.8789 21.6222 18.7224 21.7267 18.4617L23.9725 13.7681C24.0769 13.5073 23.9202 13.2466 23.6591 13.2466Z" fill="#082A4D"></path><path d="M13.318 24.8763C13.2136 24.6155 12.9524 24.4591 12.6913 24.4591H5.53612H0V24.9284V29.622V34.8893V36.9232V39.5829C0 39.8437 0.20891 40.0523 0.470048 40.0523H5.06607C5.32721 40.0523 5.53612 39.8437 5.53612 39.5829V36.9232V34.8893V30.0914H15.2504C15.5116 30.0914 15.6683 29.8307 15.5638 29.5699L13.318 24.8763Z" fill="#082A4D"></path></svg> 