<svg width="719" height="149" viewBox="0 0 719 149" fill="none" xmlns="http://www.w3.org/2000/svg">
<path d="M74.8123 148.386C115.582 148.386 148.67 115.298 148.67 74.5286C148.67 33.7594 115.582 0.671387 74.8123 0.671387C34.0431 0.671387 0.955078 33.7594 0.955078 74.5286C0.955078 115.298 34.0431 148.386 74.8123 148.386Z" fill="#171527"/>
<path fill-rule="evenodd" clip-rule="evenodd" d="M74.8114 112.639C95.8607 112.639 112.922 95.578 112.922 74.5287C112.922 53.4794 95.8607 36.4183 74.8114 36.4183C53.7621 36.4183 36.7011 53.4794 36.7011 74.5287C36.7011 95.578 53.7621 112.639 74.8114 112.639ZM124.517 74.5287C124.517 102.004 102.286 124.235 74.8114 124.235C47.3365 124.235 25.1055 102.004 25.1055 74.5287C25.1055 47.0538 47.3365 24.8228 74.8114 24.8228C102.286 24.8228 124.517 47.0538 124.517 74.5287Z" fill="url(#paint0_linear_3353_77186)"/>
<path d="M243.207 45.355C236.707 45.355 228.213 48.457 224.742 55.7688V46.5367H216.766V102.52H224.742V71.9436C224.742 58.28 234.417 53.2577 243.207 53.2577C251.774 53.2577 256.649 59.6094 256.649 69.8756V102.52H264.625V69.9494C264.773 54.7348 256.796 45.355 243.207 45.355Z" fill="white"/>
<path d="M368.617 45.355C362.117 45.355 353.624 48.457 350.152 55.7688V46.5367H342.176V102.52H350.152V71.9436C350.152 58.28 359.828 53.2577 368.617 53.2577C377.184 53.2577 382.059 59.6094 382.059 69.8756V102.52H390.035V69.9494C390.183 54.7348 382.206 45.355 368.617 45.355Z" fill="white"/>
<path d="M404.881 46.6108V102.595H412.784L412.71 46.6108H404.881Z" fill="white"/>
<path d="M514.78 74.381C514.78 56.6552 503.406 45.429 487.526 45.429C471.647 45.429 459.387 56.6552 459.387 74.381C459.387 92.1067 471.573 103.702 487.6 103.702C498.753 103.702 508.428 97.7937 512.933 87.823C510.422 87.2321 507.32 86.6413 504.957 86.0504C501.485 92.1806 495.06 95.7996 487.6 95.7996C477.26 95.7996 468.988 89.4479 467.585 78.517H514.706C514.78 77.483 514.78 75.5627 514.78 74.381ZM467.511 70.6143C469.062 59.9788 477.26 53.2578 487.526 53.2578C497.719 53.2578 505.104 59.905 506.655 70.6143H467.511Z" fill="white"/>
<path d="M325.336 46.5369H317.434V102.521H325.336V46.5369Z" fill="white"/>
<path d="M199.631 46.5369H191.654V102.521H199.631V46.5369Z" fill="white"/>
<path d="M442.991 20.7607H435.014V46.6108H425.93V54.5873H435.014V102.595H442.991V54.5873H452.075V46.6108H442.991V20.7607Z" fill="white"/>
<path d="M301.63 20.7607C287.006 20.7607 282.206 31.1746 282.206 44.6166V46.5369H273.121V54.4396H282.206V102.595H290.182V54.4396H304.88V46.6108H290.182V44.6905C290.034 37.3048 290.995 28.4419 301.556 28.4419H307.465V20.8346L301.63 20.7607Z" fill="white"/>
<path d="M195.643 20.7607H195.422C192.246 20.8346 189.809 23.4196 189.809 26.5955C189.809 29.8452 192.394 32.4302 195.643 32.4302C198.893 32.4302 201.478 29.8452 201.478 26.5955C201.404 23.3457 198.819 20.7607 195.643 20.7607Z" fill="white"/>
<path d="M408.796 20.7607C405.62 20.7607 403.035 23.3457 402.961 26.5955C402.961 29.8452 405.546 32.4302 408.796 32.4302C411.971 32.4302 414.63 29.8452 414.63 26.5955C414.63 23.3457 412.045 20.7607 408.796 20.7607Z" fill="white"/>
<path d="M321.423 20.6868H321.275C318.099 20.7606 315.662 23.3456 315.662 26.5215C315.662 29.7712 318.247 32.3562 321.423 32.3562C324.599 32.3562 327.258 29.7712 327.258 26.5215C327.184 23.3456 324.599 20.6868 321.423 20.6868Z" fill="white"/>
<path d="M558.946 45.355C551.634 45.355 544.544 48.6047 541.589 54.144V46.6106H527.113V129.774H541.589V95.1348C544.544 100.748 551.708 103.776 558.946 103.776C573.496 103.776 586.125 92.402 586.125 74.5286C586.125 56.8767 573.496 45.355 558.946 45.355ZM556.582 89.817C548.975 89.817 541.885 84.4254 541.811 74.7501C541.811 65.3703 548.532 59.3879 556.582 59.3879C564.633 59.3879 571.206 65.6657 571.206 74.7501C571.206 83.8346 564.559 89.817 556.582 89.817Z" fill="white"/>
<path d="M638.122 46.6106V53.5531C634.06 47.2753 625.862 45.355 620.84 45.355C606.216 45.355 592.479 56.5813 592.479 74.5286C592.479 92.402 606.142 103.702 620.84 103.702C626.305 103.702 634.503 101.191 638.122 95.4302V102.594H652.598V46.6106H638.122ZM622.908 89.5216H622.686C614.34 89.5955 607.619 82.8006 607.545 74.4547C607.545 65.3703 614.931 59.3879 622.908 59.3879C630.515 59.3879 638.196 64.9272 638.196 74.4547C638.122 84.0562 630.737 89.5216 622.908 89.5216Z" fill="white"/>
<path d="M703.411 46.4629L689.526 81.2497L675.715 46.4629H660.131L681.549 98.8277L669.215 129.552H684.504L718.774 46.4629H703.411Z" fill="white"/>
<defs>
<linearGradient id="paint0_linear_3353_77186" x1="74.8138" y1="24.828" x2="74.8138" y2="124.229" gradientUnits="userSpaceOnUse">
<stop stop-color="#00EE26"/>
<stop offset="1" stop-color="#FFC600"/>
</linearGradient>
</defs>
</svg>
