<svg xmlns="http://www.w3.org/2000/svg" width="40.822" height="51" viewBox="0 0 40.822 51"><path d="M36.441,30.042c1.338-.164,1.9-.6,1.864-2.137a30.6,30.6,0,0,0-.39-4.184A19.246,19.246,0,0,0,32,12.552C28.53,9.42,23.757,7.62,17.717,7.648a12.119,12.119,0,0,1-5.09-1.062,12.34,12.34,0,0,1-4.188-3.15L6.551,1.276A3.735,3.735,0,0,0,.927,6.192L2.818,8.35A19.861,19.861,0,0,0,9.554,13.4a19.474,19.474,0,0,0,8.193,1.7c4.061-.018,7.138,1.074,9.243,2.973a12.312,12.312,0,0,1,3.681,7.805c.43,3.4,2.6,4.545,5.77,4.157ZM4.387,20.962h0c3.17-.388,5.342.754,5.77,4.154a12.309,12.309,0,0,0,3.681,7.805c2.1,1.9,5.181,2.992,9.241,2.975a19.44,19.44,0,0,1,8.193,1.7,19.831,19.831,0,0,1,6.737,5.052l1.89,2.158a3.735,3.735,0,0,1-5.623,4.918l-1.89-2.16a12.345,12.345,0,0,0-4.189-3.15,12.092,12.092,0,0,0-5.088-1.062c-6.04.027-10.814-1.773-14.281-4.905A19.235,19.235,0,0,1,2.912,27.284,31.337,31.337,0,0,1,2.52,23.1c-.03-1.543.529-1.975,1.867-2.138Zm14.018.546h4.02a1.989,1.989,0,0,1,1.984,1.984v4.02A1.989,1.989,0,0,1,22.424,29.5H18.4a1.989,1.989,0,0,1-1.984-1.984v-4.02A1.989,1.989,0,0,1,18.4,21.508Z" transform="translate(-0.002 -0.001)" fill-rule="evenodd"/></svg>