<svg width="930" height="303" viewBox="0 0 930 303" fill="none" xmlns="http://www.w3.org/2000/svg">
<path d="M121.11 284.49V210.86C121.113 202.812 124.311 195.095 130.003 189.406C135.694 183.716 143.412 180.52 151.46 180.52H284.46C286.717 180.525 288.952 180.085 291.038 179.224C293.125 178.363 295.02 177.099 296.616 175.503C298.213 173.908 299.478 172.013 300.34 169.928C301.202 167.842 301.644 165.607 301.64 163.35V17.14C301.64 12.5942 299.834 8.23456 296.62 5.02019C293.405 1.80581 289.046 0 284.5 0H138.26C133.714 0 129.355 1.80581 126.14 5.02019C122.926 8.23456 121.12 12.5942 121.12 17.14V150.14C121.129 154.129 120.352 158.08 118.831 161.768C117.311 165.455 115.078 168.807 112.26 171.63V171.63C106.569 177.322 98.8492 180.52 90.8 180.52H17.14C12.5942 180.52 8.23456 182.326 5.02019 185.54C1.80582 188.755 0 193.114 0 197.66V284.49C0 289.036 1.80582 293.395 5.02019 296.61C8.23456 299.824 12.5942 301.63 17.14 301.63H103.98C106.23 301.63 108.459 301.187 110.538 300.325C112.617 299.464 114.505 298.201 116.096 296.609C117.687 295.017 118.949 293.128 119.809 291.048C120.669 288.969 121.111 286.74 121.11 284.49V284.49Z" fill="#0047BB"/>
<path d="M429.801 251.92L467.611 299.35C467.892 299.703 468.25 299.988 468.656 300.184C469.063 300.379 469.509 300.481 469.961 300.48H504.481C505.06 300.481 505.627 300.314 506.114 299.999C506.6 299.684 506.985 299.235 507.222 298.707C507.459 298.178 507.538 297.592 507.449 297.019C507.36 296.447 507.107 295.912 506.721 295.48L455.261 237.81C454.769 237.26 454.497 236.548 454.497 235.81C454.497 235.072 454.769 234.36 455.261 233.81L506.331 175.62C506.718 175.188 506.971 174.652 507.059 174.079C507.148 173.505 507.068 172.918 506.83 172.389C506.592 171.86 506.206 171.411 505.718 171.097C505.23 170.783 504.661 170.617 504.081 170.62H469.501C469.048 170.621 468.602 170.723 468.195 170.921C467.788 171.118 467.431 171.405 467.151 171.76L429.801 218.94C429.414 219.428 428.885 219.783 428.288 219.956C427.69 220.13 427.053 220.113 426.465 219.909C425.878 219.705 425.368 219.323 425.007 218.816C424.646 218.309 424.452 217.702 424.451 217.08V130.08C424.451 129.284 424.135 128.521 423.572 127.959C423.009 127.396 422.246 127.08 421.451 127.08H394.641C393.845 127.08 393.082 127.396 392.519 127.959C391.957 128.521 391.641 129.284 391.641 130.08V297.52C391.641 298.316 391.957 299.079 392.519 299.641C393.082 300.204 393.845 300.52 394.641 300.52H421.451C422.246 300.52 423.009 300.204 423.572 299.641C424.135 299.079 424.451 298.316 424.451 297.52V253.79C424.45 253.167 424.642 252.559 425.003 252.051C425.363 251.542 425.873 251.158 426.461 250.953C427.049 250.747 427.687 250.73 428.285 250.903C428.884 251.077 429.413 251.432 429.801 251.92Z" fill="#000"/>
<path d="M558.32 127.08H531.51C529.853 127.08 528.51 128.423 528.51 130.08V297.52C528.51 299.177 529.853 300.52 531.51 300.52H558.32C559.977 300.52 561.32 299.177 561.32 297.52V130.08C561.32 128.423 559.977 127.08 558.32 127.08Z" fill="#000"/>
<path d="M687.42 284.57V297.52C687.42 298.316 687.737 299.079 688.299 299.641C688.862 300.204 689.625 300.52 690.42 300.52H717.471C718.266 300.52 719.029 300.204 719.592 299.641C720.154 299.079 720.471 298.316 720.471 297.52V173.67C720.471 172.874 720.154 172.111 719.592 171.549C719.029 170.986 718.266 170.67 717.471 170.67H690.42C689.625 170.67 688.862 170.986 688.299 171.549C687.737 172.111 687.42 172.874 687.42 173.67V183.57C687.419 183.969 687.298 184.359 687.073 184.689C686.848 185.019 686.53 185.274 686.159 185.421C685.788 185.569 685.381 185.602 684.991 185.516C684.601 185.43 684.246 185.23 683.971 184.94C675.751 175.94 662.601 168.56 644.531 168.56C611.531 168.56 585.23 194.56 585.23 235.13C585.23 275.7 611.48 302.63 644.3 302.63C663.44 302.63 677.541 294.15 685.651 283.93C685.782 283.771 685.959 283.657 686.158 283.603C686.356 283.549 686.567 283.558 686.761 283.628C686.954 283.698 687.122 283.826 687.24 283.994C687.358 284.163 687.421 284.364 687.42 284.57V284.57ZM618.75 235.13C618.75 210.52 635.391 197.39 652.971 197.39C670.971 197.39 687.42 210.99 687.42 235.6C687.42 260.21 671.021 273.8 652.971 273.8C635.391 273.8 618.75 259.74 618.75 235.13V235.13Z" fill="#000"/>
<path d="M827.13 298.56L872.96 174.72C873.13 174.266 873.187 173.778 873.127 173.297C873.067 172.817 872.891 172.358 872.615 171.96C872.339 171.562 871.97 171.237 871.541 171.012C871.112 170.787 870.635 170.67 870.15 170.67H841.7C841.068 170.67 840.451 170.871 839.939 171.243C839.427 171.614 839.046 172.138 838.85 172.74L808.62 264.52C808.489 264.92 808.234 265.268 807.893 265.515C807.552 265.762 807.141 265.895 806.72 265.895C806.299 265.895 805.889 265.762 805.547 265.515C805.206 265.268 804.952 264.92 804.82 264.52L774.58 172.74C774.384 172.138 774.003 171.614 773.491 171.243C772.979 170.871 772.363 170.67 771.73 170.67H743.05C742.571 170.671 742.099 170.787 741.674 171.009C741.249 171.23 740.883 171.55 740.607 171.941C740.331 172.333 740.152 172.785 740.087 173.26C740.021 173.735 740.07 174.218 740.23 174.67L785.84 298.52C786.046 299.102 786.426 299.606 786.929 299.964C787.432 300.322 788.033 300.516 788.65 300.52H824.32C824.933 300.519 825.53 300.331 826.032 299.98C826.535 299.63 826.918 299.134 827.13 298.56V298.56Z" fill="#000"/>
<path d="M922.771 170.68H895.961C894.304 170.68 892.961 172.023 892.961 173.68V297.53C892.961 299.187 894.304 300.53 895.961 300.53H922.771C924.428 300.53 925.771 299.187 925.771 297.53V173.68C925.771 172.023 924.428 170.68 922.771 170.68Z" fill="#000"/>
<path d="M909.611 155.21C920.745 155.21 929.771 146.605 929.771 135.99C929.771 125.375 920.745 116.77 909.611 116.77C898.477 116.77 889.451 125.375 889.451 135.99C889.451 146.605 898.477 155.21 909.611 155.21Z" fill="#000"/>
</svg>
