<svg width="500" height="87" version="1.1" viewBox="0 0 500 87" xmlns="http://www.w3.org/2000/svg">
 <path d="m139.35 13.196c1.1247-0.71504 1.6884-1.863 1.6884-3.4688v-0.95346c0-3.0172-2.0556-4.5289-6.1703-4.5415-1.7511 0-3.1291 0.3011-4.2859 0.966-1.1759 0.66492-1.8396 1.9132-1.8396 3.5818v0.95346c0 1.6121 0.56884 2.7663 1.7004 3.4689 1.119 0.71504 2.5982 1.0664 4.4251 1.0664 1.8275 0 3.3573-0.35136 4.4752-1.0664m-15.095-3.5191v-0.87818c0-5.6706 3.559-8.6627 10.62-8.6627 7.0606 0 10.658 2.9921 10.658 8.6627v0.87818c0 5.7082-3.5596 8.6878-10.658 8.6878-7.099 0-10.62-2.8917-10.62-8.6878zm-2.5847 3.5754c0.39201 0.26355 0.42995 0.74024 0.16436 1.079-2.0671 2.6909-5.2595 4.0271-9.5833 4.0271-6.8336 0-10.254-2.8917-10.254-8.6878v-0.87818c-6e-3 -5.7647 3.4136-8.6564 10.254-8.6564 4.3365 0 7.4404 1.1918 9.2926 3.5817 0.26558 0.33873 0.2149 0.81546-0.12642 1.0538l-2.143 1.8254c-0.44255 0.36382-0.8977 0.31365-1.3528-0.12545-1.3275-1.4929-3.2176-2.2268-5.6767-2.2394-3.8435 0-5.7652 1.5117-5.7652 4.5415v0.95346c0 3.0172 1.9153 4.5289 5.7652 4.5289 2.7119 0 4.6905-0.80285 5.9423-2.4024 0.41721-0.46417 0.85962-0.52691 1.3337-0.18818l2.1431 1.587zm-24.547-12.652c0.45515 0 0.77114 0.31363 0.77114 0.76527v15.77c0 0.45163-0.32873 0.76518-0.77114 0.76518h-3.4199c-0.22764 0-0.39201-0.0752-0.49309-0.22574l-9.0019-10.363c-0.13902-0.20072-0.36667-0.13799-0.36667 0.12546v9.6977c0 0.45163-0.32873 0.76518-0.77114 0.76518h-2.8257c-0.45515 0-0.77127-0.32615-0.77127-0.76518v-15.77c0-0.45164 0.32873-0.76527 0.77127-0.76527h3.4199c0.2149 0 0.37927 0.062728 0.49309 0.20073l8.9766 10.35c0.17696 0.17564 0.36667 0.11291 0.36667-0.15054v-9.635c0-0.45164 0.32873-0.76527 0.77114-0.76527zm-28.675 11.178c0.24024 0 0.31612-0.11291 0.22764-0.33873l-2.8385-6.4359c-0.06314-0.23836-0.29079-0.23836-0.39187 0l-2.7878 6.4359c-0.05054 0.22581 0.02534 0.33873 0.24024 0.33873zm-12.005 6.1223c-0.34133 0-0.59417-0.12547-0.75854-0.38902-0.16436-0.25081-0.18957-0.52683-0.05054-0.84052l7.0485-15.694c0.13902-0.276 0.35393-0.414 0.64472-0.40145h4.6527c0.31599 0 0.51829 0.138 0.61951 0.40145l7.1243 15.694c0.26558 0.61477-0.10108 1.2295-0.79648 1.2295h-3.1545c-0.31599 0-0.5309-0.15054-0.64472-0.46423l-0.83442-1.8881c-0.05068-0.13808-0.16436-0.20081-0.32873-0.21328h-8.5783c-0.16436 0-0.27818 0.0752-0.34133 0.21328l-0.82182 1.8881c-0.11382 0.31369-0.34133 0.46423-0.65745 0.46423h-3.1417zm-9.8428-4.0335c1.4286 0 2.143-0.5771 2.143-1.7125 0-1.0287-0.64485-1.5368-1.9408-1.5368h-7.984c-0.1897 0-0.29079 0.10037-0.27818 0.28855v2.691c-0.0126 0.18821 0.08848 0.27602 0.27818 0.27602h7.7818zm-1.0052-6.323c1.1442 0 1.8901-0.61473 1.8901-1.5619 0-0.9472-0.58157-1.3863-1.7385-1.3863h-6.922c-0.1897 0-0.29079 0.10037-0.27818 0.28855v2.3774c-0.0126 0.18818 0.08848 0.28855 0.27818 0.28855h6.7703zm-10.645 10.35c-0.45515 0-0.77127-0.32615-0.77127-0.76531v-15.763c0-0.45163 0.32873-0.76527 0.77127-0.76527h11.581c3.4832 0 5.4239 1.5117 5.4239 4.278 0 1.6372-0.64472 2.8667-1.9153 3.657-0.16436 0.13799-0.16436 0.23836 0.0252 0.31363 1.966 0.55201 3.1545 2.0261 3.1545 3.9707 0 3.3935-2.1809 5.0809-5.8664 5.0809h-12.396zm51.187 10.626h-7.4974c-0.63211 0-1.0683 0.21328-1.3085 0.62737l-29.161 36.545c-0.49309 0.61477-1.277 0.84688-1.9976 0.59594-0.76491-0.26342-1.277-1.0037-1.277-1.8442v-33.528c0-0.67114-0.22127-1.2482-0.65745-1.7249-0.41084-0.45163-0.89756-0.67751-1.4539-0.67751h-7.4973c-0.63211 0-1.0683 0.21328-1.3149 0.62724l-32.948 40.447c-0.53733 0.65867-0.83444 1.5056-0.84708 2.3962l-0.16436 12.721c0 0.77791 0.3224 1.3675 0.8534 1.5683 0.42986 0.16301 0.90398 0.0313 1.2833-0.38266l29.022-36.244c0.48672-0.61477 1.277-0.84675 1.9976-0.59594 0.75867 0.26355 1.2706 1.0037 1.2706 1.8442v33.327c0 0.62724 0.17073 1.2106 0.48049 1.6435 0.40461 0.5645 0.92927 0.84675 1.5488 0.84675h7.5226c0.78388 0 1.0619-0.28848 1.4665-0.77155l29.13-36.376c0.48672-0.60217 1.2833-0.84675 1.9976-0.59594 0.75867 0.26355 1.2707 1.0037 1.2707 1.8443v33.34c0 0.76518 0.24648 1.4678 0.67629 1.9256 0.392 0.42032 0.87873 0.6336 1.4351 0.6336h6.0686c0.53103 0 1.0241-0.17561 1.3908-0.50176 0.54363-0.47683 0.81545-1.1165 0.81545-1.9007v-53.387c0-0.67127-0.22127-1.2484-0.65108-1.7251-0.41098-0.45163-0.8977-0.67751-1.4539-0.67751zm57.697 47.278h-28.105v-12.564h8.7427c0.93551 0 1.6942-0.87818 1.6942-1.9508v-7.8033c0-1.0728-0.75867-1.951-1.6942-1.951h-8.7427l0.0126-9.5157c0.31612-1.8379 1.5046-2.8917 3.2557-2.8917h24.533c0.55691 0 1.0312-0.21328 1.416-0.6336 0.41193-0.44526 0.61383-1.0161 0.61383-1.681v-5.8839c0-0.68997-0.20868-1.2797-0.61383-1.7438-0.38482-0.43916-0.85908-0.65867-1.4214-0.65867h-36.197c-0.60691 0-1.1695 0.25718-1.5488 0.70881-0.38564 0.46423-0.59431 1.0476-0.59431 1.6936v20.606h-8.3633c-0.93564 0-1.7005 0.87195-1.7005 1.951v7.8033c0 1.0726 0.75854 1.9508 1.7005 1.9508h8.3127l0.0443 0.86558v19c0 1.3236 0.25284 2.2457 0.7649 2.8039 0.18333 0.20068 0.7332 0.80922 2.4463 0.80922h35.425c0.55691 0 1.0366-0.21328 1.4295-0.6336 0.42954-0.45786 0.67615-1.1667 0.67615-1.9383v-5.9026c0-0.69634-0.22087-1.2923-0.66396-1.7752-0.43631-0.45163-0.90379-0.67114-1.4472-0.67114m292.14-46.293 0.34688-0.32629c-0.40379-0.42656-0.9038-0.6523-1.4472-0.6523h-47.114c-0.55691 0-1.0434 0.22575-1.4539 0.67751-0.43631 0.47669-0.65176 1.0538-0.65176 1.7249v5.8839c0 0.70258 0.22222 1.2797 0.66396 1.7125 0.40515 0.39512 0.90379 0.60217 1.4417 0.60217h18.287v45.183c0 0.67114 0.22222 1.2482 0.65853 1.7251 0.41057 0.45163 0.89702 0.67737 1.4539 0.67737h6.3902c0.5813 0 1.0813-0.23211 1.4797-0.68374 0.41734-0.47669 0.63143-1.0538 0.63143-1.7187v-42.234l0.0136-0.12547c0.34147-1.8003 1.523-2.829 3.2493-2.829h14.95c0.54336 0 1.0434-0.21965 1.4472-0.62737 0.44309-0.44526 0.66396-1.0161 0.66396-1.6873v-5.8839c0-0.69634-0.22087-1.2859-0.65719-1.7501l-0.34688 0.31992zm-243.14 17.896c0 3.2682-0.86043 5.6393-2.6368 7.2702-1.7886 1.6371-4.3293 2.4652-7.5407 2.4652h-21.676v-14.866c0.0501-0.52696 0.44851-3.1427 3.2995-3.1427h18.377c3.3753 0 5.9607 0.621 7.6802 1.8442 1.6816 1.1919 2.5041 3.2995 2.5041 6.4359m10.614 0c0-6.7747-1.6951-11.674-5.0325-14.572-3.294-2.8541-8.3442-4.3031-15.001-4.3031h-30.71c-0.55555 0-1.0366 0.23211-1.4282 0.69011-0.39838 0.46409-0.60705 1.06-0.60705 1.7125v53.387c0 0.6523 0.20867 1.2482 0.60705 1.7125 0.38618 0.45786 0.86585 0.68997 1.4282 0.68997h6.164c0.55691 0 1.0434-0.22588 1.4539-0.67751 0.42954-0.47669 0.65176-1.0538 0.65176-1.7249v-16.824h18.958l11.89 17.608c0.76559 1.0726 1.8401 1.6184 3.1924 1.6184h5.1396c1.1247 0 1.916-0.51436 2.3577-1.5306 0.45529-1.0474 0.30353-2.1264-0.43631-3.1175l-10.86-15.883 1.0623-0.37629c7.4092-2.6033 11.171-8.7944 11.171-18.404m295.91 29.087c-0.41735-0.43902-0.92277-0.67737-1.4729-0.67737h-23.585c-1.8022 0-3.2683-1.4553-3.2683-3.2431v-41.651c0-0.69621-0.20325-1.2797-0.61382-1.7375-0.38618-0.43916-0.86586-0.66491-1.4228-0.66491h-6.4661c-0.55691 0-1.0366 0.23211-1.4295 0.68997-0.40379 0.47669-0.60569 1.0538-0.60569 1.7125v53.387c0 0.6649 0.2019 1.242 0.60569 1.7125 0.38618 0.458 0.87263 0.69011 1.4295 0.69011h35.356c0.5691 0 1.0867-0.23211 1.4919-0.67751 0.43631-0.47669 0.65718-1.0538 0.65718-1.7251v-6.0908c0-0.67114-0.22764-1.2546-0.67615-1.7313m-48.233-47.968h-6.4661c-0.55691 0-1.0379 0.23211-1.4228 0.68997-0.39838 0.47046-0.60705 1.0602-0.60705 1.7125v53.387c0 0.65244 0.20867 1.2484 0.60705 1.7125 0.3916 0.458 0.87263 0.69011 1.4282 0.69011h6.4675c0.58807 0 1.0745-0.23211 1.4472-0.69011 0.38618-0.46409 0.58808-1.06 0.58808-1.7125v-53.387c0-0.68374-0.20867-1.2859-0.61247-1.7438-0.38618-0.43916-0.86721-0.65867-1.4228-0.65867m-72.293 0h-6.1626c-0.58266 0-1.0813 0.23211-1.4797 0.68374-0.41734 0.47669-0.63143 1.0538-0.63143 1.7187v32.374c0 1.1793-0.78456 1.8692-1.5244 2.1264-0.73984 0.25095-1.7886 0.19444-2.5217-0.72764l-28.44-35.523c-0.26559-0.43902-0.69648-0.6523-1.3279-0.6523h-7.5732c-0.56234 0-1.0366 0.23211-1.4228 0.68374-0.39837 0.46423-0.60705 1.06-0.60705 1.7187v53.387c0 0.6649 0.20326 1.242 0.60705 1.7125 0.38618 0.458 0.87263 0.69011 1.4295 0.69011h6.2385c0.5813 0 1.0813-0.23211 1.4797-0.68374 0.41735-0.47683 0.63144-1.0539 0.63144-1.7188v-38.954l32.486 40.704c0.26558 0.43916 0.7019 0.65244 1.3279 0.65244h7.4973c0.55691 0 1.0434-0.23211 1.4539-0.67751 0.43632-0.47046 0.65176-1.0538 0.65176-1.7251v-53.387c0-0.70258-0.22222-1.2859-0.65853-1.7501-0.4038-0.42656-0.9038-0.6523-1.4539-0.6523zm-115.39 41.726-4.4756-3.6696c-0.56233-0.43279-1.1057-0.621-1.6314-0.55827-0.70054 0.08157-1.2574 0.62724-1.6057 1.0664l-0.0569 0.08157c-2.0163 3.1865-4.5637 5.5514-7.5664 7.0192-3.0217 1.4804-6.9024 2.2267-11.524 2.2267-5.8848 0-10.562-1.3988-13.907-4.1462-3.3442-2.7538-4.9688-7.0004-4.9688-12.991v-3.2618c0.0244-11.322 6.378-17.068 18.875-17.068 8.4837 0 14.691 2.8791 18.472 8.5874l0.0759 0.08781c1.0691 1.1416 2.187 1.2358 3.3442 0.25718l4.4065-4.0898c0.52439-0.42656 0.80217-0.87195 0.87805-1.3925 0.0759-0.56463-0.0881-1.1542-0.49323-1.7439-5.0569-8.0542-14.034-12.138-26.676-12.138-19.539 0-29.041 9.0202-29.041 27.575v3.105c0 18.611 9.5014 27.657 29.041 27.657 12.561 0 21.733-4.4599 27.24-13.229l0.0881-0.11911c0.37263-0.44539 0.53117-1.0225 0.44174-1.6749-0.0881-0.6523-0.3916-1.1917-0.90922-1.5806m39.308-4.7736c0.15176 0.45786 0.15176 0.80285 0 1.035-0.0515 0.07534-0.19648 0.29485-0.73306 0.29485h-16.955c-0.30352 0-0.51762-0.0878-0.65718-0.26342-0.11382-0.14431-0.23984-0.41409-0.11382-1.0664l8.5149-23.084c0.15853-0.42656 0.41192-0.68374 0.68292-0.68374 0.2019 0 0.47426 0.16301 0.59486 0.68374l8.6721 23.09zm17.915 14.71-18.965-48.965c-0.63143-1.6309-2.1233-2.6847-3.7981-2.6847h-8.9146c-1.687 0-3.1789 1.06-3.8049 2.6973l-19.894 51.945-0.26558 0.72751c-0.49187 1.3486 0.5122 2.7726 1.9607 2.7726h8.0718l3.3943-9.9234h30.167l3.3631 9.5785 0.0949 0.34499h8.0407c1.4539 0 2.4594-1.4427 1.9472-2.7913z" fill="#1526ff"/>
</svg>
