<?xml version="1.0" encoding="utf-8"?>
<!-- Generator: Adobe Illustrator 15.1.0, SVG Export Plug-In . SVG Version: 6.00 Build 0)  -->
<!DOCTYPE svg PUBLIC "-//W3C//DTD SVG 1.1//EN" "http://www.w3.org/Graphics/SVG/1.1/DTD/svg11.dtd">
<svg version="1.1" id="レイヤー_1" xmlns="http://www.w3.org/2000/svg" xmlns:xlink="http://www.w3.org/1999/xlink" x="0px"
	 y="0px" width="850.394px" height="314.835px" viewBox="0 0 850.394 314.835" enable-background="new 0 0 850.394 314.835"
	 xml:space="preserve">
<g>
	<g>
		<g>
			<rect fill="#37498B" width="850.394" height="314.835"/>
		</g>
	</g>
</g>
<g>
	<g>
		<g>
			<path fill="#FFFFFF" d="M244.104,87.476c-4.619,11.761-9.472,23.564-14.655,35.479l-6.832,15.764l-6.956-15.764
				c-5.292-11.914-10.246-23.718-14.998-35.479h-38.562v3.13c4.314,0,7.861,3.545,7.861,7.906c-0.59,8.139-1.338,16.28-2.183,24.442
				l-2.493,24.798c-1.18,11.891-2.618,23.728-4.312,35.507h12.345c0.749-11.779,1.722-23.616,2.905-35.507l3.798-37.399
				c5.445,11.398,10.732,22.814,15.813,34.292l1.338,3.159c5.287,11.839,10.268,23.676,15.042,35.455h3.702
				c4.646-11.779,9.549-23.616,14.656-35.507l2.285-5.058c4.93-11.521,10.065-22.896,15.481-34.271l3.927,39.38
				c1.209,11.839,2.16,23.676,2.931,35.455h28.346c-1.645-11.779-3.086-23.616-4.267-35.507l-2.488-24.798
				c-1.309-11.914-2.258-23.718-3.003-35.479H244.104"/>
		</g>
	</g>
</g>
<g>
	<g>
		<g>
			<path fill="#FFFFFF" d="M371.034,173.683c3.136-5.875,6.445-11.804,9.964-17.716L415.3,98.771v-2.469h-75.582v17.637l3.027,0.053
				c0-4.208,3.287-7.701,7.366-8.012c2.338-0.051,4.649-0.181,7.011-0.181h24.418c-3.06,5.808-6.293,11.633-9.757,17.439
				l-34.583,57.56v2.461h81.614v-10.238c-5.777,0.455-11.576,0.662-17.38,0.662H371.034"/>
		</g>
	</g>
</g>
<g>
	<g>
		<g>
			<path fill="#FFFFFF" d="M510.875,183.259c0.258-0.053,0.498-0.053,0.809-0.077c-0.551-5.877-0.809-11.729-0.809-17.638v-21.56
				h33.848v21.56c0,5.909-0.232,11.838-0.723,17.715h26.035c-0.483-5.877-0.639-11.806-0.639-17.715v-51.449
				c0-5.98,0.155-11.857,0.639-17.793h-33.142v2.78h0.765c3.674,0,6.624,2.975,6.884,6.64c0.094,2.78,0.181,5.551,0.181,8.373
				v20.313h-33.848v-20.313c0-5.98,0.258-11.857,0.706-17.793h-33.125v2.78h0.671c3.7,0,6.693,2.897,6.986,6.571
				c0.043,2.822,0.095,5.619,0.095,8.441v60.182c-3.381,0.44-6.856,0.586-10.453,0.586c-3.819,0-7.537-0.251-11.219-0.922
				c-10.421-1.927-12.063-11.632-12.063-17.768v-42.612c0-5.756,0.232-11.478,0.638-17.259h-33.088v2.78h0.669
				c3.67,0,6.697,2.897,6.981,6.571c0.025,2.822,0.103,5.619,0.103,8.441v37.924c0,8.596,2.72,27.421,25.885,30.811
				c7.184,1.023,14.627,1.617,22.095,1.617C487.542,184.446,499.304,184.033,510.875,183.259"/>
		</g>
	</g>
</g>
<g>
	<g>
		<g>
			<path fill="#FFFFFF" d="M681.435,139.792L681.435,139.792c0,29.606-25.57,44.654-50.78,44.654
				c-25.242,0-50.813-15.048-50.813-44.654c0-29.62,25.57-44.643,50.813-44.643C655.864,95.149,681.435,110.172,681.435,139.792z
				 M656.656,139.792c-0.027-16.122-6.799-35.119-26.002-35.119c-19.306,0-26.034,18.997-26.086,35.119
				c0.052,16.15,6.78,35.07,26.086,35.07C649.857,174.862,656.629,155.942,656.656,139.792"/>
		</g>
	</g>
</g>
<g>
	<g>
		<g>
			<path fill="#FFFFFF" d="M325.438,114.095c0-5.98,0.232-11.857,0.719-17.793h-34.041v3.08h0.771c4.336,0,7.829,3.648,7.829,8.036
				c0.078,2.212,0.104,4.472,0.104,6.677v51.449c0,5.909-0.256,11.838-0.691,17.715h26.029c-0.486-5.877-0.719-11.806-0.719-17.715
				V114.095"/>
		</g>
	</g>
</g>
<linearGradient id="SVGID_1_" gradientUnits="userSpaceOnUse" x1="123.9487" y1="230.5723" x2="718.4121" y2="230.5723">
	<stop  offset="0" style="stop-color:#344A8C"/>
	<stop  offset="0.0038" style="stop-color:#374A8B"/>
	<stop  offset="0.1012" style="stop-color:#6E4875"/>
	<stop  offset="0.2026" style="stop-color:#914660"/>
	<stop  offset="0.3091" style="stop-color:#AD424E"/>
	<stop  offset="0.4205" style="stop-color:#C13C3E"/>
	<stop  offset="0.5382" style="stop-color:#D03731"/>
	<stop  offset="0.6651" style="stop-color:#DA3227"/>
	<stop  offset="0.808" style="stop-color:#DF2E21"/>
	<stop  offset="1" style="stop-color:#E12D1F"/>
</linearGradient>
<path fill="url(#SVGID_1_)" d="M717.227,253.629c-96.069-16.967-194.978-25.925-296.05-25.925
	c-100.974,0-199.919,8.958-296.018,25.925c-0.487,0.104-1.025-0.173-1.18-0.715c-0.129-0.517,0.155-1.127,0.745-1.229
	c93.732-28.755,193.269-44.189,296.453-44.189c103.24,0,202.768,15.435,296.531,44.189c0.567,0.103,0.843,0.713,0.636,1.229
	C718.275,253.456,717.76,253.732,717.227,253.629"/>
</svg>
