<?xml version="1.0" encoding="UTF-8" standalone="no"?>
<!-- Created with Inkscape (http://www.inkscape.org/) -->

<svg
   width="751"
   height="500"
   viewBox="0 0 751 500"
   version="1.1"
   id="SVGRoot"
   xmlns="http://www.w3.org/2000/svg"
   xmlns:svg="http://www.w3.org/2000/svg">
  <defs
     id="defs426">
    <linearGradient
       id="SVGID_1_"
       gradientUnits="userSpaceOnUse"
       x1="724.95312"
       y1="300.04568"
       x2="890.92407"
       y2="593.896">
		<stop
   offset="0"
   style="stop-color:#00FF5F"
   id="stop16" />

		<stop
   offset="0.3041"
   style="stop-color:#00FF5F"
   id="stop18" />

		<stop
   offset="0.8187"
   style="stop-color:#1E3C3C"
   id="stop20" />

		<stop
   offset="1"
   style="stop-color:#1E3C3C"
   id="stop22" />

	</linearGradient>
    <linearGradient
       id="SVGID_2_"
       gradientUnits="userSpaceOnUse"
       x1="732.99829"
       y1="583.18488"
       x2="1030.9299"
       y2="383.2034">
		<stop
   offset="0"
   style="stop-color:#00FF5F"
   id="stop29" />

		<stop
   offset="0.3041"
   style="stop-color:#00FF5F"
   id="stop31" />

		<stop
   offset="0.8187"
   style="stop-color:#1E3C3C"
   id="stop33" />

		<stop
   offset="1"
   style="stop-color:#1E3C3C"
   id="stop35" />

	</linearGradient>
  </defs>
  <g
     id="g372"
     style="display:inline"
     transform="matrix(1.2614417,0,0,1.2614417,-625.25139,-416.94197)">
    <path
       id="path10"
       d="m 1090.7,723.5 c 0.1,0.5 -0.2,1 -0.7,1.1 -5.8,1.5 -10.4,2.3 -14.9,2.3 -14.9,0 -21.8,-8.1 -21.8,-23.9 v -53.9 c 0,-0.5 0.3,-0.9 0.8,-1 l 14,-2.6 c 0.6,-0.1 1.1,0.3 1.1,1 v 14 c 0,0.5 0.4,1 1,1 h 17.7 c 0.5,0 1,0.4 1,1 V 673 c 0,0.5 -0.4,1 -1,1 h -17.7 c -0.5,0 -1,0.4 -1,1 v 29.2 c 0,5.8 2.1,9.9 8.7,9.9 2.8,0 6.2,-0.7 9.9,-1.6 0.6,-0.1 1.1,0.2 1.2,0.8 z m -61.4,2.2 -12.2,-19.7 c -0.4,-0.6 -1.3,-0.6 -1.6,0 l -12.3,19.7 c -0.2,0.3 -0.5,0.5 -0.8,0.5 H 986 c -0.8,0 -1.2,-0.9 -0.8,-1.5 l 20.3,-30.4 c 0.2,-0.3 0.2,-0.7 0,-1.1 L 985.6,663 c -0.4,-0.6 0,-1.5 0.8,-1.5 h 16.5 c 0.3,0 0.6,0.2 0.8,0.5 l 11.8,18.8 c 0.4,0.6 1.3,0.6 1.7,0 l 11.2,-18.8 c 0.2,-0.3 0.5,-0.5 0.8,-0.5 h 16.4 c 0.8,0 1.2,0.9 0.8,1.5 l -19.2,29.6 c -0.2,0.3 -0.2,0.7 0,1.1 l 20.3,31.1 c 0.4,0.6 0,1.5 -0.8,1.5 H 1030 c -0.2,-0.1 -0.6,-0.3 -0.7,-0.6 m -72.5,-53.3 c -8.2,0 -13.3,5.6 -14.2,14.6 -0.1,0.6 0.4,1.1 1,1.1 h 26.5 c 0.6,0 1,-0.5 1,-1 -0.4,-8.2 -4.7,-14.7 -14.3,-14.7 m 16,53.4 c -0.2,0.3 -0.5,0.4 -0.8,0.4 h -12.9 c -19.3,0 -32.4,-10.3 -32.4,-32.2 0,-23.1 14.1,-33.4 30.5,-33.4 17.9,0 29.6,10.1 29.6,31.7 0,4.6 -2.1,6.8 -6.8,6.8 h -36.3 c -0.6,0 -1,0.5 -1,1.1 1.2,9.2 8.2,12.8 17.6,12.8 h 19.2 c 0.8,0 1.2,0.9 0.8,1.5 z m -94.4,0.4 H 864 c -0.5,0 -1,-0.4 -1,-1 v -51.1 c 0,-5.7 2.8,-8.6 8.3,-10.1 9,-2.5 15.3,-3.1 21,-3.1 18.9,0 26.3,9.7 26.3,23.2 v 41.1 c 0,0.5 -0.4,1 -1,1 h -14.2 c -0.5,0 -1,-0.4 -1,-1 v -39.7 c 0,-6 -2.6,-10.7 -11,-10.7 -2.7,0 -5.5,0.2 -11.3,1.7 -0.4,0.1 -0.7,0.5 -0.7,0.9 v 47.8 c 0,0.6 -0.4,1 -1,1"
       style="display:inline" />
    <g
       id="g344"
       style="display:inline">
      <path
         class="st0"
         d="m 974.6,625.8 c -3.1,0 -6.3,-0.7 -9.2,-2.1 -10.6,-5.1 -15.1,-17.9 -9.9,-28.5 L 1044.8,410 c 5.1,-10.6 17.9,-15.1 28.5,-9.9 10.6,5.1 15.1,17.9 9.9,28.5 l -89.3,185.2 c -3.8,7.6 -11.4,12 -19.3,12 z"
         id="path12"
         style="fill:#1e3c3c" />
      <path
         class="st1"
         d="m 974.6,625.8 c -4.9,0 -9.8,-1.7 -13.8,-5.1 l -298,-252.6 c -9,-7.6 -10.1,-21.1 -2.5,-30 7.6,-9 21.1,-10.1 30,-2.5 l 298,252.6 c 9,7.6 10.1,21.1 2.5,30 -4.2,5.1 -10.2,7.6 -16.2,7.6 z"
         id="path25"
         style="fill:url(#SVGID_1_)" />
      <path
         class="st2"
         d="m 517.3,691.1 c -8.1,0 -15.8,-4.6 -19.4,-12.4 -4.9,-10.7 -0.2,-23.4 10.5,-28.3 L 1055,399.9 c 10.7,-4.9 23.4,-0.2 28.3,10.5 4.9,10.7 0.2,23.4 -10.5,28.3 L 526.2,689.1 c -2.9,1.4 -5.9,2 -8.9,2 z"
         id="path38"
         style="fill:url(#SVGID_2_)" />
      <path
         class="st3"
         d="m 517.3,691.1 c -3.2,0 -6.5,-0.7 -9.5,-2.3 -10.5,-5.3 -14.8,-18.1 -9.5,-28.6 L 657.6,342.3 c 5.3,-10.5 18.1,-14.8 28.6,-9.5 10.5,5.3 14.8,18.1 9.5,28.6 L 536.4,679.3 c -3.8,7.5 -11.3,11.8 -19.1,11.8 z"
         id="path42"
         style="fill:#00ff5f" />
    </g>
  </g>
</svg>
