<svg width="160" height="28" viewBox="0 0 160 28" fill="none" xmlns="http://www.w3.org/2000/svg">
<g clip-path="url(#clip0_1602_3460)">
<path d="M9.59693 17.7967L13.8085 4.43455C13.9318 4.04454 14.2465 3.74381 14.6435 3.63417L28.1622 -0.0623156C28.488 -0.151595 28.7837 0.152268 28.6809 0.471795L24.5516 13.3296C24.4314 13.7039 24.1357 13.9953 23.7577 14.1128L10.1299 18.3261C9.80252 18.4279 9.49413 18.1225 9.59693 17.7983V17.7967ZM16.0748 6.18568L13.5744 14.1206C13.5238 14.2835 13.6772 14.4354 13.8401 14.3837L22.0323 11.851C22.1493 11.815 22.241 11.7241 22.279 11.6082L24.7288 3.97875C24.7794 3.81899 24.6323 3.66706 24.4694 3.71248L16.3326 5.93664C16.2092 5.97109 16.1111 6.06351 16.0732 6.18568H16.0748Z" fill="#15252D"/>
<path d="M21.5863 17.1342C20.8604 21.9568 16.3895 25.5844 11.2053 25.008C7.18355 24.5616 3.40693 20.8322 2.94513 16.8507C2.35364 11.7523 5.95156 7.34944 10.7625 6.57099C10.8289 6.56003 10.8843 6.51304 10.9048 6.44882L11.7256 3.84562C11.7636 3.72658 11.6687 3.60597 11.5438 3.61224C4.7512 4.01478 -0.572136 9.90409 0.0493943 16.8569C0.572872 22.7118 5.17663 27.3057 11.0851 27.8649C17.6594 28.4867 23.3133 23.9429 24.3887 17.8594C24.4757 17.3691 24.5311 16.8695 24.5548 16.362C24.5611 16.2382 24.4393 16.1474 24.3191 16.1834L21.7081 16.9901C21.6417 17.0104 21.5942 17.0668 21.5847 17.1342H21.5863Z" fill="#15252D"/>
<path d="M126.172 8.54506C126.043 8.54506 125.94 8.64673 125.939 8.77342L125.912 11.3136C125.791 11.1087 125.663 10.9116 125.522 10.7254C124.851 9.84016 124.038 9.19574 123.079 8.78906C122.12 8.38239 121.085 8.17906 119.973 8.17906C118.53 8.17906 117.237 8.52473 116.093 9.21607C114.948 9.90741 114.057 10.8537 113.419 12.0534C112.78 13.2531 112.46 14.5967 112.46 16.0794C112.46 17.5622 112.778 18.9371 113.419 20.1368C114.057 21.3365 114.948 22.2828 116.093 22.9741C117.237 23.6654 118.529 24.0111 119.973 24.0111C121.085 24.0111 122.12 23.8015 123.079 23.3855C124.038 22.9694 124.851 22.3234 125.522 21.4491C125.56 21.399 125.596 21.349 125.633 21.2974C125.745 21.1378 125.996 21.1847 126.046 21.3724L126.614 23.4746C126.641 23.5747 126.734 23.6451 126.839 23.6451H127.652C127.78 23.6451 127.885 23.5419 127.885 23.4152V8.77499C127.885 8.64829 127.78 8.54506 127.652 8.54506H126.17H126.172ZM125.043 19.4048C124.528 20.3401 123.837 21.0518 122.972 21.5398C122.106 22.0278 121.188 22.2718 120.22 22.2718C119.251 22.2718 118.339 22.0278 117.484 21.5398C116.628 21.0518 115.944 20.3401 115.428 19.4048C114.913 18.4694 114.655 17.3605 114.655 16.0794C114.655 14.7984 114.912 13.6895 115.428 12.7541C115.944 11.8188 116.628 11.1118 117.484 10.6347C118.339 10.1577 119.251 9.91836 120.22 9.91836C121.188 9.91836 122.106 10.1577 122.972 10.6347C123.837 11.1134 124.526 11.8203 125.043 12.7541C125.558 13.6895 125.817 14.7984 125.817 16.0794C125.817 17.3605 125.558 18.4694 125.043 19.4048Z" fill="#15252D"/>
<path d="M37.9367 22.9428C36.6481 22.2311 35.6591 21.2708 34.9696 20.0601C34.2785 18.8511 33.9346 17.4934 33.9346 15.9872C33.9346 14.4809 34.2801 13.1498 34.9696 11.9298C35.6591 10.7098 36.6497 9.74318 37.9367 9.0315C39.2238 8.31983 40.7343 7.96321 42.4652 7.96321C44.196 7.96321 45.7049 8.31983 46.9936 9.0315C48.2806 9.74318 49.2712 10.7098 49.9607 11.9298C50.6502 13.1498 50.9957 14.5028 50.9957 15.9872C50.9957 17.4715 50.6502 18.8495 49.9607 20.0601C49.2696 21.2708 48.2806 22.2311 46.9936 22.9428C45.7049 23.6545 44.196 24.0111 42.4652 24.0111C40.7343 24.0111 39.2238 23.6545 37.9367 22.9428ZM44.6144 20.2431C45.2833 19.8678 45.8206 19.3125 46.2217 18.5805C46.6242 17.8485 46.824 16.9835 46.824 15.9872C46.824 14.9908 46.6227 14.1321 46.2217 13.4095C45.8191 12.6884 45.2833 12.1394 44.6144 11.7625C43.944 11.3871 43.2275 11.1978 42.4667 11.1978C41.7059 11.1978 40.9562 11.3855 40.2873 11.7625C39.6169 12.1394 39.0811 12.6884 38.6801 13.4095C38.2775 14.1321 38.0778 14.9908 38.0778 15.9872C38.0778 16.9835 38.2791 17.8485 38.6801 18.5805C39.0827 19.3125 39.6169 19.8662 40.2873 20.2431C40.9562 20.6201 41.6837 20.8078 42.4667 20.8078C43.2497 20.8078 43.9456 20.6201 44.6144 20.2431Z" fill="#15252D"/>
<path d="M65.0802 8.33078C64.9518 8.33078 64.8472 8.43401 64.8472 8.5607V16.0482C64.8472 17.0242 64.6713 17.8688 64.321 18.5805C63.9707 19.2922 63.4968 19.8271 62.8992 20.1821C62.3017 20.5388 61.6518 20.7155 60.9512 20.7155C59.9622 20.7155 59.2299 20.3902 58.756 19.7395C58.2821 19.0888 58.0443 18.0205 58.0443 16.5362V8.5607C58.0443 8.43401 57.9397 8.33078 57.8113 8.33078H54.2276C54.0992 8.33078 53.9946 8.43401 53.9946 8.5607V17.5122C53.9946 19.6472 54.4733 21.2645 55.4322 22.3625C56.3911 23.4605 57.7765 24.0095 59.5897 24.0095C61.1351 24.0095 62.4332 23.6342 63.4841 22.8803C63.966 22.5346 64.3971 22.0951 64.7791 21.5648C64.8837 21.4194 65.1088 21.4413 65.1817 21.6055L65.6714 23.4715C65.6984 23.5732 65.7903 23.6435 65.8965 23.6435H68.6624C68.7908 23.6435 68.8954 23.5403 68.8954 23.4136V8.5607C68.8954 8.43401 68.7908 8.33078 68.6624 8.33078H65.0786H65.0802Z" fill="#15252D"/>
<path d="M82.498 8.17906C82.2714 8.13839 81.9829 8.11806 81.6326 8.11806C80.1696 8.11806 78.9745 8.61701 78.0473 9.61336C77.6716 10.0169 77.3451 10.5346 77.0662 11.1634C76.979 11.362 76.6842 11.3386 76.6287 11.129L75.9202 8.50283C75.8932 8.40273 75.7997 8.33234 75.6951 8.33234H73.4269C73.2986 8.33234 73.194 8.43557 73.194 8.56227V23.4152C73.194 23.5419 73.2986 23.6451 73.4269 23.6451H77.0107C77.1391 23.6451 77.2437 23.5419 77.2437 23.4152V18.0018C77.2437 16.5784 77.4339 15.3881 77.8159 14.4324C78.1963 13.4767 78.7225 12.7745 79.393 12.3271C80.0618 11.8798 80.81 11.6561 81.6342 11.6561C82.0336 11.6561 82.4346 11.703 82.834 11.7953C82.9799 11.8297 83.1178 11.7187 83.1178 11.5701V8.51691C83.1178 8.41837 83.0528 8.33234 82.9593 8.29793C82.8166 8.24788 82.6645 8.20721 82.4996 8.17749L82.498 8.17906Z" fill="#15252D"/>
<path d="M109.312 12.0675C108.662 10.8584 107.766 9.90741 106.622 9.21451C105.478 8.52316 104.195 8.17749 102.774 8.17749C101.043 8.17749 99.5528 8.63578 98.307 9.55079C97.9615 9.80418 97.6508 10.0967 97.3734 10.4267C97.234 10.5925 96.9629 10.494 96.9629 10.2797V4.2187C96.9629 4.092 96.8583 3.98877 96.7299 3.98877H95.0942C94.9658 3.98877 94.8612 4.092 94.8612 4.2187V23.4136C94.8612 23.5403 94.9658 23.6435 95.0942 23.6435H95.8772C95.9834 23.6435 96.0753 23.5732 96.1023 23.4731L96.6697 21.3709C96.7204 21.1832 96.9708 21.1363 97.0834 21.2958C97.1198 21.3474 97.1563 21.3975 97.1943 21.4475C97.8632 22.3219 98.6827 22.9678 99.6527 23.3839C100.621 23.8 101.663 24.0095 102.775 24.0095C104.197 24.0095 105.479 23.6639 106.624 22.9725C107.768 22.2812 108.664 21.3365 109.313 20.1352C109.963 18.9355 110.287 17.5826 110.287 16.0779C110.287 14.5732 109.962 13.2765 109.313 12.0659L109.312 12.0675ZM107.288 19.4032C106.773 20.3386 106.093 21.0502 105.248 21.5382C104.403 22.0262 103.496 22.2702 102.528 22.2702C101.559 22.2702 100.616 22.0262 99.7621 21.5382C98.9062 21.0502 98.2167 20.3386 97.6904 19.4032C97.1642 18.4679 96.9027 17.3495 96.9027 16.0482C96.9027 14.7468 97.1658 13.6332 97.6904 12.7072C98.2167 11.7828 98.9062 11.0852 99.7621 10.6175C100.616 10.1499 101.539 9.91523 102.528 9.91523C103.517 9.91523 104.403 10.1545 105.248 10.6316C106.093 11.1102 106.773 11.8172 107.288 12.751C107.803 13.6863 108.061 14.7953 108.061 16.0763C108.061 17.3573 107.803 18.4663 107.288 19.4016V19.4032Z" fill="#15252D"/>
<path d="M143.38 9.7338C142.442 8.69678 141.057 8.17749 139.223 8.17749C137.657 8.17749 136.332 8.55914 135.251 9.32087C134.634 9.75569 134.121 10.3172 133.708 11.0023C133.602 11.179 133.334 11.1478 133.281 10.9476L132.677 8.71399C132.65 8.61388 132.556 8.5435 132.452 8.5435H131.573C131.445 8.5435 131.34 8.64673 131.34 8.77342V23.4136C131.34 23.5403 131.445 23.6435 131.573 23.6435H133.209C133.338 23.6435 133.442 23.5403 133.442 23.4136V15.7729C133.442 14.5935 133.678 13.5565 134.152 12.6618C134.626 11.7672 135.26 11.0852 136.053 10.6175C136.845 10.1499 137.726 9.91523 138.697 9.91523C140.077 9.91523 141.082 10.3125 141.71 11.1055C142.337 11.8985 142.653 13.1905 142.653 14.9799V23.4136C142.653 23.5403 142.757 23.6435 142.886 23.6435H144.552C144.68 23.6435 144.785 23.5403 144.785 23.4136V14.4309C144.785 12.3365 144.315 10.7708 143.379 9.7338H143.38Z" fill="#15252D"/>
<path d="M159.766 23.6451C159.964 23.6451 160.072 23.4167 159.945 23.2682L153.719 15.9121C153.645 15.8245 153.648 15.6947 153.726 15.6102L159.879 8.9314C160.015 8.78281 159.909 8.54663 159.706 8.54663H157.864C157.798 8.54663 157.736 8.57478 157.691 8.62327L151.868 14.9986C151.824 15.0471 151.76 15.0753 151.695 15.0753H150.575C150.446 15.0753 150.342 14.972 150.342 14.8454V4.50024C150.342 4.37354 150.237 4.27031 150.109 4.27031H148.473C148.345 4.27031 148.24 4.37354 148.24 4.50024V23.4152C148.24 23.5419 148.345 23.6451 148.473 23.6451H150.109C150.237 23.6451 150.342 23.5419 150.342 23.4152V17.0429C150.342 16.9163 150.446 16.813 150.575 16.813H151.713C151.782 16.813 151.847 16.8427 151.892 16.8959L157.504 23.5622C157.549 23.6154 157.614 23.6451 157.683 23.6451H159.766Z" fill="#15252D"/>
<path d="M90.6434 8.33078H87.3323C87.2037 8.33078 87.0993 8.43372 87.0993 8.5607V23.4152C87.0993 23.5422 87.2037 23.6451 87.3323 23.6451H90.6434C90.7721 23.6451 90.8764 23.5422 90.8764 23.4152V8.5607C90.8764 8.43372 90.7721 8.33078 90.6434 8.33078Z" fill="#15252D"/>
<path d="M90.6434 3.98877H87.3323C87.2037 3.98877 87.0993 4.09171 87.0993 4.2187V6.84642C87.0993 6.97341 87.2037 7.07635 87.3323 7.07635H90.6434C90.7721 7.07635 90.8764 6.97341 90.8764 6.84642V4.2187C90.8764 4.09171 90.7721 3.98877 90.6434 3.98877Z" fill="#15252D"/>
</g>
<defs>
<clipPath id="clip0_1602_3460">
<rect width="160" height="28" fill="white"/>
</clipPath>
</defs>
</svg>
