<svg width="28" height="28" viewBox="0 0 28 28" fill="none" xmlns="http://www.w3.org/2000/svg">
<path fill-rule="evenodd" clip-rule="evenodd" d="M4.70159 7.94795C5.12137 7.94795 5.54116 8.08788 5.87699 8.31176C6.2408 8.56363 6.49267 8.89946 6.66059 9.29126C6.8285 9.68306 6.85649 10.1308 6.77253 10.5506C6.68857 10.9704 6.49267 11.3622 6.18483 11.67C5.87699 11.9779 5.51317 12.1738 5.09339 12.2577C4.6736 12.3417 4.25382 12.2857 3.86202 12.1178C3.47022 11.9499 3.13439 11.67 2.91051 11.3062C2.68662 10.9424 2.54669 10.5226 2.54669 10.1028C2.54669 9.82299 2.60267 9.54313 2.71461 9.26327C2.82655 9.0114 2.96648 8.75953 3.19036 8.56363C3.38626 8.36773 3.63813 8.19982 3.89001 8.08788C4.16986 8.00392 4.42173 7.94795 4.70159 7.94795Z" fill="#57D9FF"/>
<path fill-rule="evenodd" clip-rule="evenodd" d="M22.3325 19.0582C19.8138 16.8753 17.4071 13.545 15.2801 15.8678C13.685 17.6029 15.3081 18.9462 16.1477 19.7858C18.3306 21.9967 21.2131 24.9632 23.5639 26.9501C24.3475 27.6218 24.9072 27.7897 25.4669 27.9296C27.202 28.3214 28.1815 26.8102 27.8457 25.299C27.5379 23.8437 25.8307 22.4165 25.4949 22.2485C26.7263 20.5134 27.5099 18.4985 27.7897 16.3716C28.1815 13.545 27.7058 10.6905 26.4184 8.17176C24.5714 4.58959 21.2691 2.29477 18.7224 1.51117C17.3511 1.09138 16.0917 1.23131 15.4481 1.70707C14.6924 2.2388 14.3286 3.55412 14.9443 4.58959C15.0563 4.78549 15.1962 4.95341 15.3641 5.06535C15.532 5.20528 15.7279 5.28923 15.9238 5.3452C16.8194 5.56909 18.5545 6.01686 20.0377 7.22024C21.6889 8.50759 22.8363 10.3546 23.284 12.4256C23.8717 14.6364 23.452 17.379 22.3325 19.0582Z" fill="#57D9FF"/>
<path fill-rule="evenodd" clip-rule="evenodd" d="M3.07841 15.0563C1.81906 15.588 1.65115 16.7354 1.90302 17.9108C2.3228 19.8419 3.91798 22.5005 5.12137 23.7878C6.96842 25.6629 9.17929 27.0901 11.754 27.6499C13.8809 28.0976 16.2037 28.1256 17.463 27.6778C19.3101 27.0622 19.6179 23.508 16.5675 23.452C16.0638 23.452 15.532 23.48 14.9443 23.508C13.7689 23.5639 12.5935 23.368 11.4741 22.9483C10.3547 22.5285 9.3472 21.8848 8.50763 21.0452C7.78001 20.3736 7.22029 19.59 6.77252 18.6944C6.49267 18.1347 6.26878 17.547 6.04489 16.9873C5.93295 16.6515 5.96094 16.3157 5.73705 15.9798C5.4572 15.5321 5.03741 15.1962 4.53367 15.0283C4.11388 14.8324 3.55417 14.8604 3.07841 15.0563Z" fill="#57D9FF"/>
<path fill-rule="evenodd" clip-rule="evenodd" d="M11.8659 8.95545C12.5376 8.95545 13.1812 9.15134 13.7129 9.51516C14.2727 9.87897 14.6924 10.4107 14.9443 11.0544C15.1962 11.6701 15.2522 12.3697 15.1402 13.0134C15.0003 13.685 14.6924 14.2727 14.2167 14.7485C13.7409 15.2242 13.1532 15.5601 12.5096 15.672C11.8659 15.8119 11.1942 15.728 10.5786 15.4761C9.96287 15.2242 9.45913 14.7765 9.09531 14.2168C8.7315 13.657 8.5356 12.9854 8.5356 12.3137C8.5356 11.4182 8.89941 10.5506 9.5151 9.90696C10.1588 9.31926 10.9983 8.95545 11.8659 8.95545Z" fill="#57D9FF"/>
<path fill-rule="evenodd" clip-rule="evenodd" d="M8.61955 0C9.12329 0 9.62703 0.167914 10.0468 0.447771C10.4666 0.727627 10.8024 1.14741 10.9983 1.65115C11.1942 2.1549 11.2502 2.65864 11.1383 3.19037C11.0263 3.69411 10.8024 4.16986 10.4386 4.56166C10.0748 4.92548 9.62703 5.17735 9.12329 5.28929C8.61955 5.40123 8.08782 5.34526 7.61206 5.14936C7.13631 4.95346 6.74451 4.61763 6.43667 4.16986C6.15681 3.72209 5.9889 3.21835 5.9889 2.68662C5.9889 1.98698 6.26875 1.31533 6.74451 0.811584C7.24825 0.279857 7.91991 0 8.61955 0Z" fill="#57D9FF"/>
<path fill-rule="evenodd" clip-rule="evenodd" d="M1.62317 2.96643C1.959 2.96643 2.26684 3.05038 2.5467 3.24628C2.82655 3.44218 3.02245 3.69405 3.16238 4.00189C3.27432 4.30974 3.33029 4.64556 3.24634 4.98139C3.16238 5.31722 3.02245 5.59708 2.79857 5.82096C2.57468 6.04485 2.26684 6.21276 1.959 6.26873C1.65115 6.32471 1.31533 6.29672 1.00748 6.18478C0.699642 6.04485 0.447771 5.84895 0.279857 5.56909C0.111943 5.28924 0 4.98139 0 4.64556C0 4.19779 0.167914 3.77801 0.475756 3.47017C0.783599 3.16232 1.20338 2.96643 1.62317 2.96643Z" fill="#57D9FF"/>
</svg>
