<svg width="124" height="125" viewBox="0 0 124 125" fill="none" xmlns="http://www.w3.org/2000/svg">
    <g filter="url(#filter0_ddd_7240_725)">
        <rect x="14" y="13" width="96" height="96" rx="48" fill="white" shape-rendering="crispEdges" />
        <g clip-path="url(#clip0_7240_725)">
            <path fill-rule="evenodd" clip-rule="evenodd"
                d="M68.6592 52.4274C67.8738 51.6526 66.9176 51.1474 65.7565 50.8442C65.5516 50.7432 65.415 50.5747 65.4833 50.2716L65.654 49.3284C65.7565 48.7558 65.3808 48.3179 64.8003 48.3179H63.5026C62.9221 48.3179 62.3757 48.7895 62.2732 49.3284L62.1025 50.1705C62.0342 50.5411 61.7951 50.6758 61.4878 50.7768C60.1218 51.0126 58.8924 51.5516 57.8679 52.3263C56.3311 53.4716 55.4432 54.92 55.17 56.6716C54.8968 58.2547 55.2725 59.5347 56.297 60.4779C57.3215 61.4211 58.9265 62.1284 61.1121 62.6337C62.5464 62.9705 63.5026 63.3747 63.9465 63.8126C64.3905 64.2505 64.5612 64.8568 64.4588 65.5305C64.3222 66.2716 63.9465 66.8779 63.2977 67.3158C62.6489 67.7537 61.7951 67.9895 60.8048 67.9895C59.7803 67.9895 58.9607 67.72 58.3118 67.1811C57.8679 66.8105 57.6288 66.2716 57.5605 65.5979C57.4922 65.3621 57.3898 64.6884 56.6726 64.6884C55.9213 64.6884 54.931 64.6884 54.1455 64.6884C53.3601 64.6884 53.2235 65.3284 53.2235 65.5979C53.1552 66.979 53.6333 68.2253 54.6919 69.3705C55.3749 70.1116 56.2287 70.6505 57.2532 70.9874H57.1849C57.7313 71.1558 58.2094 71.2232 58.0728 71.7621L57.902 72.7053C57.7996 73.2779 58.1752 73.7158 58.7558 73.7158H60.0535C60.634 73.7158 61.1804 73.2442 61.2829 72.7053L61.4536 71.8632C61.5219 71.459 61.7951 71.3242 62.1366 71.2568C63.605 71.0211 64.9027 70.5495 65.9955 69.7747C67.5664 68.6968 68.5226 67.2147 68.7958 65.3284C69.069 63.7116 68.6934 62.3979 67.703 61.4547C66.7127 60.5116 65.0393 59.7705 62.7172 59.2653C61.2487 58.9284 60.3267 58.5916 59.9169 58.1874C59.5071 57.7832 59.3363 57.2105 59.4729 56.5032C59.5754 55.7958 59.951 55.2232 60.5657 54.7179C61.1804 54.2126 61.9317 53.9768 62.8879 53.9768C63.8782 53.9768 64.5954 54.28 65.0735 54.8526C65.3808 55.2232 65.4833 55.5937 65.5516 55.9642C65.7223 56.7053 66.1663 57.0084 66.6444 57.0084H68.9324C69.8545 57.0084 70.0252 56.4358 69.9911 55.8632C70.0252 54.6168 69.513 53.2695 68.6592 52.4274Z"
                fill="#053E6E" />
            <path fill-rule="evenodd" clip-rule="evenodd"
                d="M81.0556 43.4C81.602 42.8611 82.1143 43.2989 81.9777 43.8042L77.948 63.7453C77.8114 64.4863 77.5382 65.6989 77.4016 66.44C77.4016 66.44 76.7577 69.6305 76.0863 73.0026L75.996 73.4564L75.9357 73.7593C75.6549 75.1729 75.3772 76.5789 75.1477 77.7579C74.5671 80.6211 73.2353 82.6421 70.9814 83.9221C69.752 84.6295 68.2153 85 66.7468 85H44.8909C44.1396 85 43.9689 84.4611 44.5153 83.9221L50.4232 78.1284C50.9696 77.5895 52.0624 77.1516 52.8137 77.1516H56.8434C57.6288 77.1516 57.7996 77.5895 57.2532 78.1284L55.8872 79.4758C54.9947 80.3875 54.9352 80.4483 55.1812 80.4523L55.2183 80.4526L55.2383 80.4526H65.2442C65.9955 80.4526 67.2249 80.2505 67.9421 79.981C67.9421 79.981 70.2643 79.1389 70.6741 77.0168C71.2205 74.2547 76.4112 49.0589 76.4112 49.0589C76.5478 48.3179 77.1284 47.2737 77.6748 46.7347L81.0556 43.4ZM79.1091 37C79.8604 37 80.0311 37.5389 79.4847 38.0779L73.5768 43.8379C73.0304 44.3768 71.9376 44.8147 71.1863 44.8147H67.1566C66.3712 44.8147 66.2004 44.3768 66.7468 43.8379L68.1128 42.4905C69.0053 41.5788 69.0648 41.518 68.8188 41.514L68.7817 41.5137L68.7617 41.5137H58.7899C58.0386 41.5137 56.8092 41.7158 56.0921 41.9853C56.0921 41.9853 53.7699 42.8274 53.3601 44.9495C52.8137 47.7116 47.6229 72.9074 47.6229 72.9074C47.4863 73.6484 46.9058 74.6926 46.3594 75.2316L42.9444 78.5663C42.398 79.1053 41.8857 78.6674 42.0223 78.1621L46.052 58.2547C46.1886 57.5137 46.4618 56.3011 46.5984 55.56C46.5984 55.56 47.2616 52.2736 47.9438 48.8463L48.004 48.5436L48.0643 48.2407L48.1544 47.7868C48.4041 46.5284 48.6474 45.2947 48.8523 44.2421C49.4329 41.3789 50.7647 39.3579 53.0186 38.0779C54.248 37.3705 55.7847 37 57.2532 37H79.1091Z"
                fill="#053E6E" />
        </g>
    </g>
    <defs>
        <filter id="filter0_ddd_7240_725" x="0" y="0" width="124" height="125" filterUnits="userSpaceOnUse"
            color-interpolation-filters="sRGB">
            <feFlood flood-opacity="0" result="BackgroundImageFix" />
            <feColorMatrix in="SourceAlpha" type="matrix" values="0 0 0 0 0 0 0 0 0 0 0 0 0 0 0 0 0 0 127 0"
                result="hardAlpha" />
            <feOffset dy="1" />
            <feGaussianBlur stdDeviation="7" />
            <feComposite in2="hardAlpha" operator="out" />
            <feColorMatrix type="matrix" values="0 0 0 0 0.486275 0 0 0 0 0.556863 0 0 0 0 0.596078 0 0 0 0.12 0" />
            <feBlend mode="normal" in2="BackgroundImageFix" result="effect1_dropShadow_7240_725" />
            <feColorMatrix in="SourceAlpha" type="matrix" values="0 0 0 0 0 0 0 0 0 0 0 0 0 0 0 0 0 0 127 0"
                result="hardAlpha" />
            <feOffset dy="6" />
            <feGaussianBlur stdDeviation="5" />
            <feComposite in2="hardAlpha" operator="out" />
            <feColorMatrix type="matrix" values="0 0 0 0 0.486275 0 0 0 0 0.556863 0 0 0 0 0.596078 0 0 0 0.14 0" />
            <feBlend mode="normal" in2="effect1_dropShadow_7240_725" result="effect2_dropShadow_7240_725" />
            <feColorMatrix in="SourceAlpha" type="matrix" values="0 0 0 0 0 0 0 0 0 0 0 0 0 0 0 0 0 0 127 0"
                result="hardAlpha" />
            <feMorphology radius="1" operator="erode" in="SourceAlpha" result="effect3_dropShadow_7240_725" />
            <feOffset dy="3" />
            <feGaussianBlur stdDeviation="2.5" />
            <feComposite in2="hardAlpha" operator="out" />
            <feColorMatrix type="matrix" values="0 0 0 0 0.486275 0 0 0 0 0.556863 0 0 0 0 0.596078 0 0 0 0.2 0" />
            <feBlend mode="normal" in2="effect2_dropShadow_7240_725" result="effect3_dropShadow_7240_725" />
            <feBlend mode="normal" in="SourceGraphic" in2="effect3_dropShadow_7240_725" result="shape" />
        </filter>
    </defs>
</svg>
