<svg width="500" height="118" version="1.1" xmlns="http://www.w3.org/2000/svg">
 <path d="m87.156 52.94c-3.4348 2.8288-5.9942 3.3003-7.1392 2.1553-0.74058-0.74093-0.87549-2.2224-0.33657-4.1083 1.8184-5.9942 3.2325-12.056 4.3774-18.184 6.8697-3.0307 13.739-5.8593 21.35-6.6002-3.5694 9.7655-10.102 19.935-18.251 26.737zm-3.5023 20.137c-4.3103-0.87549-6.3308-2.761-6.1959-4.4449 0.06711-1.0775 1.0775-2.155 2.8285-2.8959 5.3878-2.2899 10.709-4.7818 15.759-7.8126 6.6677 3.2328 13.066 7.3412 18.184 12.527-9.3612 3.5023-20.878 4.6472-30.576 2.6265zm-17.78 10.641c-2.0879-4.3103-1.8859-7.2734-0.53892-8.2838 0.94294-0.67348 2.4245-0.53892 4.1083 0.40402 5.2533 2.9634 10.574 5.6573 16.231 7.8797v0.06745c2.0204 8.0817 3.2328 16.568 2.6939 24.919-9.3612-5.9268-17.847-15.355-22.494-24.987zm-20.137-7.7448c2.357-4.7147 4.8489-6.5331 6.5328-5.9942 1.1449 0.33691 1.953 1.6164 2.2224 3.7043 0.94294 6.6002 2.3573 13.066 4.0409 19.464-5.8593 7.8797-12.123 15.49-20.003 21.686-0.87549-12.729 1.5493-27.344 7.2066-38.86zm-6.0617-21.754c5.3207-1.0778 8.2166-0.20201 8.8901 1.4815 0.40402 1.0775-0.13456 2.5594-1.6164 4.1758-4.9838 5.1858-9.5636 10.641-13.941 16.298h-0.06735c-10.708 0.74058-21.888 0.33657-32.395-2.1553 10.708-9.0247 25.188-17.039 39.13-19.8zm13.604-17.645c3.9738 3.4345 5.0513 6.1288 4.1758 7.6103-0.60603 0.94294-2.0204 1.4144-4.1758 1.2124-7.1388-0.80838-14.278-1.1449-21.484-1.1449-6.8022-7.8126-12.998-16.501-16.972-25.862 13.537 3.0307 28.084 9.3615 38.456 18.184zm21.148 0.26912c0 4.8493-1.347 7.2737-2.9634 7.4086-1.0775 0.13456-2.2899-0.74093-3.4348-2.4919-3.6369-5.6573-7.6103-11.113-11.853-16.433 1.6161-8.486 4.2429-17.107 8.7552-24.582 5.6573 10.843 9.5636 24.044 9.4962 36.099z" fill="#146e37"/>
 <path d="m56.172 25.261c1.6164-8.4186 4.2429-17.039 8.7552-24.515-9.6307-1.347-19.531-0.20205-28.556 3.1654 5.5227 5.3879 10.978 10.843 15.894 16.703 0.5742 0.69489 1.1889 1.4169 1.7956 2.1295 0.74577 0.87594 1.4794 1.7377 2.1107 2.5175zm30.51-16.902c-0.40402 6.4655-0.87549 12.864-1.8184 19.194-0.11207 0.70157-0.22449 1.4616-0.33657 2.2216-0.15739 1.064-0.31443 2.128-0.47147 3.0316 6.8693-3.0307 13.739-5.8593 21.349-6.6002-4.7815-7.2063-11.18-13.335-18.723-17.847zm27.138 37.309c-4.3778 3.4348-8.8901 6.8022-13.672 9.6982-0.60949 0.36562-1.2463 0.77275-1.88 1.1775l-3.46e-4 3.46e-4c-0.76618 0.48946-1.5272 0.9758-2.228 1.3815 6.6677 3.2325 13.066 7.3408 18.184 12.527 1.2124-8.5532 1.145-16.231-0.40401-24.784zm-23.51 39.802c5.2533 1.9533 10.709 3.4348 16.163 4.7818-4.5123 7.2737-10.708 13.672-18.049 18.454 0.53892-8.3512-0.67348-16.837-2.6939-24.919v-0.06745c1.1183 0.50329 2.5154 1.0066 3.8057 1.4715l6.92e-4 3.46e-4h3.46e-4c0.26323 0.09478 0.52197 0.18783 0.7731 0.27914zm-23.231 31.519c-2.559-6.1288-4.9838-12.325-6.9368-18.521-0.13975-0.45452-0.28849-0.92668-0.43965-1.4058v-1e-3l-3.45e-4 -3.45e-4v-3.46e-4c-0.43065-1.366-0.87722-2.7839-1.1764-3.9803-5.8593 7.8797-12.123 15.49-19.935 21.686 9.429 2.7614 18.656 3.9734 28.488 2.2224zm-37.775-35.624c-4.5797 6.3979-8.7553 13.268-12.729 20.137-7.8125-7.6106-13.335-17.174-16.029-27.478 10.506 2.4919 21.686 2.8959 32.395 2.155h0.06735c-0.68697 0.92945-1.4467 2.0045-2.2064 3.0793l-5.53e-4 1e-3 -6.57e-4 6.92e-4c-0.50606 0.71602-1.0121 1.4321-1.4966 2.1052zm-29.303-34.823c8.4186-1.0104 16.905-1.8859 25.256-2.1553 0.70665-0.02179 1.4495-0.05119 2.1953-0.0806h5.19e-4c1.5286-0.06053 3.0697-0.12141 4.337-0.12141-6.8696-7.7448-12.998-16.433-16.972-25.794-7.4757 7.8798-12.594 17.713-14.817 28.152z" fill="#64c832"/>
 <path d="m147.16 39.264c-1.549 11.449 2.6268 18.252 14.076 22.697l15.086 5.7247c4.7818 1.6835 5.8596 2.4919 5.2533 7.0717-0.94293 5.8593-3.2999 7.4083-13.874 7.4083h-25.593l-2.2896 15.288h28.623c22.293 0 29.836-4.9838 32.058-21.484 1.4141-10.372-0.47147-17.847-14.211-22.899l-14.278-5.2533c-5.5224-1.953-6.5328-2.761-5.7918-7.3408 0.80804-5.1187 2.8288-6.2635 6.9368-6.5329h30.576l2.2899-15.288h-27.276c-18.588 0-29.095 3.3001-31.587 20.609zm86.88-5.3205 2.2228-15.288h-18.521l-2.2899 15.288zm-9.3609 63.442h-18.521l8.1492-55.63h18.588zm45.666-57.176c-10.507 0-17.78 2.0875-22.697 6.6002-4.9164 4.4449-7.7452 11.18-9.3616 21.956-1.6164 10.708-0.26912 18.251 4.1758 23.033 4.2429 4.6472 11.382 6.8697 21.956 6.8697 5.1858 0 12.796-0.47147 19.598-2.6268l0.47147-0.13456 1.9533-13.133-1.2124 0.20201c-4.7818 0.67348-10.776 0.94294-17.847 0.94294-4.8492 0-7.3412-0.53892-8.6881-2.0204-1.6835-1.8184-2.0204-5.3882-1.0775-12.258 1.6164-12.729 5.7918-14.749 15.086-14.749 3.7718 0 17.848 0.20201 17.848 0.20201l1.8184-12.46c-9e-3 9e-3 -0.15946-0.02802-0.44691-0.09927-1.8506-0.45832-9.3924-2.3252-21.576-2.3252zm69.097 1.5455h3.5694l-0.67348 1.2124c-5.1858 8.4187-6.8697 15.557-6.8697 15.625l-0.13456 0.60603h-3.9738c-4.8489 0-11.382 3.3677-13.739 6.1962l-4.5123 31.991h-18.656l8.1492-55.63h14.749v10.709c8.6207-7.4757 15.288-10.709 22.091-10.709zm60.208 17.986c0.87514-5.8596-0.0692-10.237-2.8987-13.335-3.7704-4.1754-11.045-6.1959-22.155-6.1959-22.494 0-30.982 7.0714-33.676 28.084-1.347 10.776 0.202 18.386 4.7818 23.235 4.4452 4.7818 11.855 7.1392 22.56 7.1392 7.5442 0 19.063-1.347 26.334-4.2432l0.67451-0.26912-0.20062-0.67348c0-0.0042-7e-3 -0.0249-0.0173-0.06157-0.0138-0.04843-0.0346-0.12453-0.0657-0.22588-0.33207-1.1467-1.6085-5.5227-2.072-9.5456l-0.13491-0.87549-0.87514 0.20201c-2.2242 0.53892-15.964 1.2124-21.619 1.2124-6.6033 0-10.104-1.2124-10.509-7.6106l16.029-1.1449c13.335-0.87549 22.024-3.8389 23.843-15.692zm-38.793 5.7244c1.6811-9.0247 3.8396-11.853 12.594-11.853h1.7503c2.9644 0 4.9845 0.20201 5.7905 1.0775 0.53961 0.60603 0.7437 1.6164 0.60879 3.3674-0.60879 4.9164-3.1685 5.9268-8.6234 6.3308zm87.348-23.98 3.3657-22.764 18.589 0.06735-11.65 78.663h-14.884v-8.8227c-7.4093 6.6677-15.019 10.103-22.764 10.103-5.3892 0-9.4294-1.4819-12.259-4.5798-4.3792-4.7144-5.6556-13.133-3.9053-25.66 3.4348-23.505 12.594-28.219 26.334-28.219 5.4549 0 11.65 0.40402 17.174 1.2121zm-21.083 42.026c5.659-0.13456 10.17-2.9634 15.964-7.8797l3.2308-22.427h-8.1461c-10.374 0-12.594 1.2795-14.618 15.692-1.01 7.4086-1.3456 11.988 0.20408 13.672 0.67452 0.74093 1.7503 1.0104 3.3657 0.94294zm70.655-49.568 2.2242-15.288h-18.523l-2.2207 15.288zm-9.3602 63.442h-18.52l8.1461-55.63h18.589z" fill="#64c832"/>
</svg>
