<svg xmlns="http://www.w3.org/2000/svg" width="90" height="20" fill="none"><path fill="#141414" d="M39.164 13.794h3.508c.138 1.793 1.242 3.02 2.969 3.02h1.312c1.243 0 2.678-.84 2.678-2.579 0-4.124-10.19-1.572-10.19-8.745 0-3.256 2.692-5.435 5.827-5.435h1.394c3.149 0 5.69 1.903 6.007 5.545h-3.466c-.22-1.683-1.132-2.552-2.623-2.552h-1.27c-1.202 0-2.348.828-2.348 2.221 0 4.111 10.19 1.297 10.19 8.801 0 3.559-2.733 5.738-6.296 5.738h-1.38c-3.508 0-6.132-2.4-6.311-6.014ZM54.25 19.587V.25h3.245v10.508l5.027-5.076h4.1l-5.205 5.2 5.661 8.705h-3.797l-4.198-6.235-1.587 1.572v4.663H54.25ZM70.76 11.826v7.766h-3.244V5.688h3.245v1.917c.51-1.2 1.505-1.918 2.803-1.918h1.781v2.718h-2.03c-1.615 0-2.554 1.807-2.554 3.42ZM76.5 5.688h3.245v13.904H76.5V5.688ZM81.61.25h3.23v19.337h-3.23V.25ZM86.57.25h3.231v19.337h-3.23V.25ZM79.883.25h-3.508v3.421h3.508V.25Z"/><g clip-path="url(#a)"><path fill="#141414" d="M30.124 10.008v.012c0 .107-.043.21-.12.286l-9.63 9.631a.202.202 0 0 1-.144.06h-.061a.204.204 0 0 1-.204-.204V10.02c0 .107-.043.21-.119.286l-9.571 9.572a.407.407 0 0 1-.287.119h-.01a.41.41 0 0 1-.289-.12l-9.57-9.57A.407.407 0 0 1 0 10.021v-.011c0-.108.043-.21.12-.287L9.69.15A.408.408 0 0 1 9.98.031h.01c.109 0 .211.043.287.12l9.572 9.57c.076.077.119.18.119.287V.235c0-.112.091-.204.203-.204h.061c.054 0 .105.021.144.06l9.631 9.63c.076.077.12.18.12.287h-.002Z"/></g><defs><clipPath id="a"><path fill="#fff" d="M0 0h89.659v20H0z"/></clipPath></defs></svg>