<svg width="500" height="142" fill="none" version="1.1" viewBox="0 0 500 142" xmlns="http://www.w3.org/2000/svg">
 <path d="m42.546 23.064-0.5755-0.5764h-39.373c-2.051 0-3.0801 2.4858-1.6264 3.9412l70.102 70.33c1.4467 1.4553 3.9295 0.42522 3.9295-1.6357v-39.571l-0.59019-0.59094-31.859-31.897z" fill="#3070dd"/>
 <path d="m72.693 22.488h-30.722l33.025 33.065v-30.759c0-1.2753-1.0365-2.3129-2.3031-2.3129z" fill="#3070dd"/>
 <path d="m95.139 2.257e-7h-70.073c-2.0511 0-3.0801 2.4858-1.6264 3.934l18.531 18.553 33.033 32.553v0.51147l18.517 18.539c1.4467 1.4553 3.9295 0.42485 3.9295-1.6286v-70.157c0-1.2753-1.0365-2.3057-2.3031-2.3057zm-20.366 24.541c-0.0072-0.57641-0.23728-1.0952-0.59019-1.4914 0.49678 0.42507 0.81316 1.0447 0.81316 1.7508v14.144l-0.23012-14.403z" fill="#62aef8"/>
 <path d="m72.693 22.488h-30.722l33.025 33.072v-30.759c0-1.2753-1.0365-2.3129-2.3031-2.3129z" fill="#4090f6"/>
 <path d="m468.11 43.051 29.694-37.459c0.55365-0.63407 0.83236-1.2321 0.83236-1.7797 0-0.9583-0.79093-1.4266-2.3728-1.4266h-12.595c-1.4237 0-2.4971 0.20174-3.209 0.59082-0.71184 0.40349-1.5066 1.2321-2.3766 2.5074l-27.317 35.557c-0.79094 1.0305-1.1864 1.902-1.1864 2.6154 0 0.71335 0.35027 1.5491 1.0659 2.5001l27.8 36.516c0.87004 1.1887 1.6836 1.9811 2.4331 2.3777 0.74574 0.39622 1.8418 0.59057 3.2654 0.59057h13.069c1.661 0 2.4971-0.47532 2.4971-1.4263 0-0.47569-0.28248-1.1099-0.83613-1.9024l-30.764-39.246zm-23.996-40.673h-10.806c-1.032 0-1.7664 0.22336-2.1958 0.65567-0.44066 0.43231-0.65535 1.1672-0.65535 2.1976v77.542c0 1.0305 0.21469 1.7653 0.65535 2.2048 0.42937 0.43238 1.1638 0.65572 2.1958 0.65572h10.806c1.032 0 1.7853-0.21619 2.2598-0.65572 0.47833-0.43238 0.71561-1.1744 0.71561-2.2048v-77.542c0-1.0303-0.23728-1.7652-0.71561-2.1976-0.47456-0.43952-1.2278-0.65567-2.2598-0.65567zm-44.07 49.002c4.7494-1.9815 8.448-4.7987 11.103-8.4446 2.6553-3.6455 3.981-8.1633 3.981-13.56 0-9.0425-2.9302-15.801-8.7945-20.283-5.8567-4.4816-14.768-6.7224-26.726-6.7224h-25.182c-1.029 0-1.763 0.22336-2.195 0.65567-0.43879 0.43231-0.65498 1.1672-0.65498 2.1976v77.542c0 1.0301 0.21619 1.7649 0.65498 2.2045 0.432 0.43238 1.1661 0.65572 2.195 0.65572h10.809c1.0294 0 1.7849-0.21619 2.2598-0.65572 0.47494-0.432 0.7126-1.1744 0.7126-2.2045v-63.975c0-0.62684 0.12241-1.0448 0.35969-1.2465 0.23766-0.19457 0.6335-0.29543 1.1875-0.29543h9.2698c6.094 0 10.749 1.0952 13.954 3.2639 3.2089 2.1832 4.8059 5.6128 4.8059 10.289 0 4.3591-1.5254 7.7312-4.5686 10.109-3.0508 2.3777-7.0695 3.8473-12.056 4.4021-1.4237 0.07947-2.1355 0.51901-2.1355 1.3043 0 0.47569 0.23728 1.0734 0.71184 1.7868l20.316 33.771c0.87003 1.4267 1.6836 2.3634 2.4331 2.7954 0.74951 0.43238 1.8794 0.65572 3.3822 0.65572h11.521c1.8982 0 2.8511-0.47532 2.8511-1.4267 0-0.47532-0.31637-1.2248-0.95289-2.2621l-19.242-30.564zm-95.505-44.96c-1.1875-2.3777-2.1016-3.9628-2.7348-4.7554-0.63351-0.79257-1.389-1.1889-2.2598-1.1889-0.87078 0-1.6625 0.39628-2.3747 1.1889-0.7126 0.79257-1.6267 2.3777-2.7348 4.7554l-36.94 75.517c-0.39585 0.95101-0.59019 1.6282-0.59019 2.0244 0 1.1096 0.87116 1.6644 2.6127 1.6644h10.571c1.4252 0 2.4975-0.23766 3.2097-0.71335 0.7126-0.47532 1.4252-1.4696 2.1374-2.9754l23.756-50.667 23.993 50.667c0.7126 1.5058 1.4248 2.5001 2.1374 2.9754 0.7126 0.47569 1.7416 0.71335 3.0873 0.71335h11.284c1.7416 0 2.6124-0.55479 2.6124-1.6644 0-0.39622-0.19435-1.0734-0.59019-2.0244zm-43.77 10.765c0.432-0.4323 0.65497-1.1672 0.65497-2.2048v-9.7486c0-1.0303-0.21581-1.758-0.65497-2.1976-0.43878-0.43231-1.1728-0.65567-2.2018-0.65567h-60.696c-1.029 0-1.763 0.22336-2.2022 0.65567-0.43878 0.43952-0.6546 1.1672-0.6546 2.1976v9.7558c0 1.0303 0.21582 1.7653 0.6546 2.2048 0.43916 0.4323 1.1732 0.65565 2.2022 0.65565h20.431c0.55441 0 0.96456 0.12248 1.2452 0.35306 0.27344 0.23777 0.41731 0.63407 0.41731 1.1889v63.391c0 1.0305 0.21581 1.7653 0.65497 2.1977 0.43879 0.43954 1.1728 0.65572 2.2022 0.65572h10.809c1.029 0 1.7849-0.21619 2.2598-0.65572 0.47494-0.43238 0.71259-1.1744 0.71259-2.1977v-63.398c0-0.55482 0.12203-0.95108 0.35969-1.1889 0.23728-0.23058 0.62597-0.35306 1.1875-0.35306h20.431c1.029 0 1.763-0.21615 2.2022-0.65569m-85.726 23.669c-3.879-2.1039-8.8736-3.9125-14.969-5.4184-4.0372-1.0304-7.1463-1.9814-9.3267-2.8533-2.1736-0.87184-3.8214-1.9454-4.9298-3.2135-1.1081-1.2681-1.6625-2.8893-1.6625-4.8779 0-2.774 1.1299-4.9932 3.3826-6.6648 2.2598-1.6644 5.3253-2.493 9.2042-2.493 3.4831 0 6.8152 0.63407 9.9816 1.9022 3.1668 1.2753 6.3765 3.055 9.6219 5.3534 0.87079 0.63407 1.5834 0.95108 2.1374 0.95108 0.71259 0 1.3819-0.51155 2.015-1.5419l4.987-7.8464c0.55441-0.79256 0.82784-1.5059 0.82784-2.1399 0-0.79256-0.432-1.5059-1.3099-2.1471-8.2182-6.5711-17.603-9.8639-28.131-9.8639-5.7859 0-10.953 1.0087-15.501 3.0334-4.5554 2.0247-8.1177 4.9571-10.694 8.8047-2.569 3.8403-3.8575 8.4228-3.8575 13.733 0 4.7554 1.0079 8.7255 3.03 11.896 2.0222 3.1703 4.908 5.7496 8.6717 7.7239 3.7566 1.9815 8.5282 3.6892 14.314 5.1159 4.3539 1.1096 7.7004 2.1397 10.039 3.0907 2.3318 0.95138 4.0157 2.0248 5.0447 3.2138 1.0294 1.1887 1.5472 2.7306 1.5472 4.6398 0 2.9253-1.2666 5.2526-3.7995 6.9531-2.5404 1.7077-6.1388 2.5577-10.809 2.5577-3.7204 0-7.3836-0.69151-10.989-2.082-3.6056-1.3905-6.9086-3.2711-9.9168-5.6488-0.79169-0.71335-1.5039-1.0738-2.1374-1.0738-0.31675 0-0.65497 0.1371-1.0075 0.41807-0.35253 0.27382-0.69075 0.65572-1.0075 1.131l-4.987 7.7241c-0.63351 1.0305-0.95026 1.7868-0.95026 2.2553 0 0.71335 0.55441 1.5058 1.6625 2.3849 3.7999 3.1702 8.1971 5.6703 13.184 7.4932s10.334 2.731 16.034 2.731c6.2541 0 11.803-1.0519 16.632-3.1487 4.8289-2.1039 8.5926-5.094 11.284-8.9851 2.6914-3.8835 4.0376-8.4804 4.0376-13.791 0-4.5178-0.97173-8.3436-2.9076-11.478-1.9431-3.1268-4.8503-5.7422-8.7293-7.8461m304.11 78.89 19.25-17.955c0.25234-0.24482 0.8399-0.82145 0.8399-1.7148 0-1.0301-0.79094-2.0824-2.3012-2.0824h-0.39547c-0.57626 0-1.0584 0.1081-1.4237 0.29566-0.31261 0.15141-0.62899 0.36722-1.0885 0.77098l-18.753 17.552v-16.838c0-0.67004-0.19585-1.2248-0.62898-1.679-0.4143-0.41769-0.97926-0.62672-1.676-0.62672h-0.33897c-0.41053 0-1.1563 0.22335-1.4802 0.48285-0.30508 0.23766-0.82107 0.7996-0.82107 1.8229v39.924c0 0.48285 0.30131 1.29 0.64028 1.6357 0.4256 0.43238 1.0132 0.67003 2.0075 0.67003 1.0734 0 1.6346-0.55478 1.8267-0.83575 0.25234-0.32429 0.47832-1.0663 0.47832-1.4772v-16.824l18.794 17.595c0.403 0.35329 0.71938 0.57663 0.98679 0.69904 0.41807 0.21619 0.90016 0.32428 1.4764 0.32428h0.39547c1.5103 0 2.3012-1.0448 2.3012-2.0824 0-0.89338-0.58756-1.4696-0.87003-1.751l-19.22-17.919zm-20.225-22.286h-0.3352c-0.41054 0-1.16 0.22334-1.484 0.48285-0.30131 0.23766-0.82107 0.79998-0.82107 1.8229v32.186l-23.502-32.784c-0.27495-0.37438-0.54989-0.69151-0.8512-0.96532-1.612-1.4267-4.2108-0.82144-4.2108 2.1544v39.34c0 0.47569 0.29754 1.2753 0.62898 1.621 0.42183 0.44669 1.0207 0.69188 2.015 0.69188 1.0696 0 1.6308-0.55479 1.8267-0.83576 0.25235-0.32428 0.47456-1.0666 0.47456-1.4772v-32.164l23.51 32.79c0.27495 0.37475 0.54236 0.68472 0.83614 0.95138 0.53859 0.48247 1.1299 0.72766 1.7401 0.72766 1.2316 0 2.4783-0.88622 2.4783-2.8749v-39.362c0-0.67004-0.19585-1.2248-0.64781-1.7005-0.41054-0.40338-0.97173-0.60526-1.6572-0.60526zm-52.771 2.5653s-8e-3 -0.02184-0.0151-0.029c-0.33898-0.72051-0.61015-1.2105-0.81354-1.4915-1.0132-1.3905-3.0583-1.3834-4.0602 0-0.19208 0.26666-0.47456 0.76382-0.82483 1.513l-17.201 38.461c-0.36534 0.73482-0.4256 1.412-0.18832 1.9958 0.28248 0.72051 1.3182 1.3472 2.0866 1.3472h0.46326c0.64028 0 1.1864-0.18003 1.5894-0.51862 0.35404-0.28098 0.62522-0.66289 0.87003-1.2248l15.235-34.225 15.227 34.21c0.17325 0.3966 0.4256 0.89376 0.8286 1.2105 0.44067 0.3676 0.98679 0.55479 1.6346 0.55479h0.403c1.4877 0 2.2749-1.0591 2.2749-2.1039 0-0.32429-0.0791-0.59057-0.27495-1.1672l-17.235-38.541zm-32.385 19.043c0.69075-0.48285 1.3314-1.0376 1.9144-1.6572 1.8576-1.9815 2.7992-4.6044 2.7992-7.796 0-4.1502-1.4463-7.2845-4.3034-9.3165-2.6914-1.9163-6.4913-2.8459-11.608-2.8459h-8.1681c-1.0794 0-1.7273 0.42522-2.087 0.78529-0.36006 0.36044-0.78453 1.0158-0.78453 2.0896v38.641c0 1.081 0.42447 1.7295 0.78453 2.0896 0.35969 0.36045 1.0147 0.78529 2.087 0.78529h7.938c5.7068 0 9.9022-1.0086 12.824-3.0764 3.0877-2.1834 4.6507-5.3968 4.6507-9.5542 0-3.4801-1.096-6.2397-3.2545-8.2137-0.83501-0.75666-1.763-1.4052-2.7996-1.9457zm-2.6986-4.2225c-1.6911 1.3619-4.4187 2.0534-8.089 2.0534h-6.3976v-14.382h5.8217c3.9509 0 6.8586 0.63426 8.6506 1.8952 1.6048 1.1239 2.3819 2.8459 2.3819 5.2669 0 2.2048-0.77701 3.8907-2.3675 5.166zm-14.494 7.1045h6.3979c10.572 0 11.788 4.1859 11.788 7.3346 0 3.1487-1.2881 7.5079-12.429 7.5079h-5.7644v-14.85z" fill="#1d2732"/>
</svg>
