<svg width="108" height="108" viewBox="0 0 108 108" fill="none" xmlns="http://www.w3.org/2000/svg">
<path fill-rule="evenodd" clip-rule="evenodd" d="M106.994 54.7282C106.994 47.2109 103.343 41.2792 96.3653 41.2792C89.3579 41.2792 85.1181 47.2109 85.1181 54.6695C85.1181 63.5083 90.1234 67.9717 97.3074 67.9717C100.811 67.9717 103.461 67.1789 105.463 66.063V60.1901C103.461 61.1885 101.164 61.8051 98.2496 61.8051C95.3936 61.8051 92.8616 60.8067 92.5377 57.3417H106.935C106.935 56.96 106.994 55.433 106.994 54.7282ZM92.4494 51.9386C92.4494 48.6204 94.4809 47.2403 96.3358 47.2403C98.1318 47.2403 100.046 48.6204 100.046 51.9386H92.4494Z" />
<path fill-rule="evenodd" clip-rule="evenodd" d="M73.7532 41.2792C70.8678 41.2792 69.0129 42.63 67.9824 43.5697L67.5996 41.7491H61.1222V75.9883L68.4829 74.4319L68.5124 66.1217C69.5723 66.8852 71.1328 67.9717 73.7237 67.9717C78.994 67.9717 83.7932 63.7432 83.7932 54.4346C83.7637 45.9188 78.9057 41.2792 73.7532 41.2792ZM71.9866 61.5115C70.2495 61.5115 69.219 60.8948 68.5124 60.1313L68.4829 49.2371C69.2484 48.3855 70.3084 47.7982 71.9866 47.7982C74.6659 47.7982 76.5208 50.7934 76.5208 54.6402C76.5208 58.575 74.6954 61.5115 71.9866 61.5115Z" />
<path fill-rule="evenodd" clip-rule="evenodd" d="M50.9939 39.5467L58.384 37.961V32L50.9939 33.5563V39.5467Z" />
<path d="M58.384 41.7784H50.9939V67.4725H58.384V41.7784Z" />
<path fill-rule="evenodd" clip-rule="evenodd" d="M43.0738 43.9514L42.6027 41.7784H36.243V67.4725H43.6037V50.0593C45.3409 47.7982 48.2851 48.2093 49.1979 48.5323V41.7784C48.2557 41.4261 44.8109 40.78 43.0738 43.9514Z" />
<path fill-rule="evenodd" clip-rule="evenodd" d="M28.3524 35.4063L21.1683 36.9333L21.1389 60.4543C21.1389 64.8003 24.407 68.0011 28.7646 68.0011C31.1789 68.0011 32.9455 67.5606 33.9171 67.032V61.071C32.9749 61.4527 28.3229 62.8035 28.3229 58.4576V48.0331H33.9171V41.7784H28.3229L28.3524 35.4063Z" />
<path fill-rule="evenodd" clip-rule="evenodd" d="M8.44903 49.2371C8.44903 48.0918 9.3912 47.6514 10.9517 47.6514C13.1893 47.6514 16.0158 48.3267 18.2535 49.5307V42.63C15.8097 41.661 13.3954 41.2792 10.9517 41.2792C4.97478 41.2792 1 44.3919 1 49.5894C1 57.6941 12.1883 56.402 12.1883 59.8964C12.1883 61.2472 11.0106 61.6877 9.36176 61.6877C6.91801 61.6877 3.79707 60.6893 1.32387 59.3385V66.3273C4.06205 67.5019 6.82968 68.0011 9.36176 68.0011C15.4859 68.0011 19.6962 64.9765 19.6962 59.7202C19.6667 50.9696 8.44903 52.5259 8.44903 49.2371Z" />
</svg>
