<?xml version="1.0" encoding="UTF-8" standalone="no"?>
<!DOCTYPE svg PUBLIC "-//W3C//DTD SVG 1.0//EN" "http://www.w3.org/TR/2001/REC-SVG-20010904/DTD/svg10.dtd">
<!-- Microsoft Visio 11.0、SVG Export v1.0 により生成 Sumitomo Mitsui Banking Logo.svg Page-1 -->
<svg xmlns="http://www.w3.org/2000/svg" xmlns:v="http://schemas.microsoft.com/visio/2003/SVGExtensions/" width="1.71566in"
		height="0.481778in" viewBox="0 0 123.528 34.688" xml:space="preserve" color-interpolation-filters="sRGB" class="st3">
	<v:documentProperties v:langID="1041" v:metric="true" v:viewMarkup="false"/>

	<style type="text/css">
	<![CDATA[
		.st1 {fill:#005b47;stroke:none;stroke-linecap:round;stroke-linejoin:round;stroke-width:0.72}
		.st2 {fill:#b3d056;stroke:none;stroke-linecap:round;stroke-linejoin:round;stroke-width:0.72}
		.st3 {fill:none;fill-rule:evenodd;font-size:12;overflow:visible;stroke-linecap:square;stroke-miterlimit:3}
	]]>
	</style>

	<g v:mID="0" v:index="1" v:groupContext="foregroundPage">
		<title>Page-1</title>
		<v:pageProperties v:drawingScale="0.0393701" v:pageScale="0.0393701" v:drawingUnits="24" v:shadowOffsetX="8.50394"
				v:shadowOffsetY="-8.50394"/>
		<g id="group170-1" transform="translate(0.72,-0.72)" v:mID="170" v:groupContext="group">
			<title>シート.170</title>
			<g id="shape74-2" v:mID="74" v:groupContext="shape">
				<title>シート.74</title>
				<path d="M0.16 30.56 L0.16 30.6 L0.17 30.73 L0.2 30.9 L0.25 31.07 L0.33 31.25 L0.45 31.44 L0.61 31.63 L0.81 31.84
							 L1 32.01 L1.06 32.06 L1.37 32.31 L1.42 32.36 L1.57 32.49 L1.74 32.64 L1.87 32.79 L1.97 32.92 L2.05 33.06
							 L2.1 33.19 L2.12 33.33 L2.13 33.45 L2.13 33.49 L2.13 33.53 L2.12 33.65 L2.07 33.8 L2 33.94 L1.9 34.07
							 L1.77 34.18 L1.61 34.26 L1.42 34.32 L1.26 34.34 L1.21 34.34 L1.18 34.34 L1.1 34.33 L0.97 34.32 L0.83
							 34.29 L0.69 34.23 L0.55 34.15 L0.42 34.04 L0.32 33.88 L0.27 33.74 L0.26 33.69 L0.25 33.67 L0.24 33.56
							 L0.24 33.48 L0.24 33.45 L0.24 33.44 L0.24 33.43 L0.23 33.41 L0.23 33.39 L0.22 33.37 L0.21 33.35 L0.2
							 33.34 L0.17 33.33 L0.15 33.32 L0.14 33.32 L0.13 33.32 L0.11 33.33 L0.08 33.34 L0.07 33.36 L0.05 33.38
							 L0.05 33.41 L0.04 33.43 L0.04 33.46 L0.03 33.47 L0.03 33.48 L0.03 33.48 L0.03 33.49 L0.03 33.52 L0.03
							 33.55 L0.03 33.56 L0.03 33.56 L0.03 33.59 L0.02 33.68 L0.01 33.83 L0 34 L0 34.15 L0 34.2 L0 34.23 L0
							 34.32 L0.02 34.4 L0.06 34.45 L0.11 34.49 L0.13 34.5 L0.13 34.5 L0.18 34.52 L0.33 34.58 L0.56 34.64 L0.8
							 34.68 L1 34.69 L1.06 34.69 L1.14 34.69 L1.36 34.67 L1.64 34.61 L1.89 34.52 L2.06 34.43 L2.12 34.4 L2.16
							 34.37 L2.27 34.27 L2.4 34.13 L2.5 33.98 L2.58 33.83 L2.64 33.68 L2.68 33.52 L2.71 33.37 L2.72 33.27
							 L2.72 33.23 L2.72 33.18 L2.71 33.04 L2.68 32.85 L2.62 32.66 L2.53 32.47 L2.39 32.27 L2.22 32.06 L1.99
							 31.84 L1.78 31.66 L1.7 31.61 L1.51 31.46 L1.46 31.41 L1.29 31.27 L1.11 31.11 L0.97 30.97 L0.87 30.84
							 L0.79 30.72 L0.74 30.6 L0.71 30.48 L0.7 30.39 L0.7 30.36 L0.7 30.32 L0.72 30.2 L0.76 30.06 L0.83 29.94
							 L0.92 29.83 L1.04 29.74 L1.17 29.68 L1.32 29.64 L1.45 29.63 L1.49 29.63 L1.54 29.63 L1.68 29.64 L1.84
							 29.66 L1.98 29.71 L2.08 29.76 L2.16 29.81 L2.22 29.86 L2.27 29.91 L2.29 29.95 L2.29 29.96 L2.3 29.97
							 L2.32 30.03 L2.35 30.11 L2.37 30.2 L2.37 30.26 L2.38 30.28 L2.38 30.28 L2.38 30.3 L2.38 30.32 L2.39
							 30.34 L2.4 30.36 L2.41 30.38 L2.43 30.4 L2.45 30.41 L2.47 30.41 L2.48 30.41 L2.49 30.41 L2.51 30.41
							 L2.54 30.39 L2.55 30.36 L2.57 30.33 L2.57 30.3 L2.58 30.27 L2.58 30.23 L2.58 30.21 L2.58 30.2 L2.58
							 30.14 L2.58 29.96 L2.59 29.77 L2.6 29.63 L2.6 29.56 L2.6 29.54 L2.61 29.49 L2.61 29.48 L2.6 29.45 L2.58
							 29.41 L2.54 29.4 L2.5 29.39 L2.49 29.39 L2.48 29.39 L2.45 29.39 L2.41 29.38 L2.34 29.37 L2.28 29.36
							 L2.26 29.36 L2.21 29.35 L1.96 29.31 L1.7 29.29 L1.62 29.29 L1.54 29.29 L1.31 29.31 L1.02 29.38 L0.78
							 29.49 L0.56 29.64 L0.39 29.82 L0.27 30.04 L0.19 30.28 L0.16 30.49 L0.16 30.56 L0.16 30.56 L0.16 30.56
							 Z" class="st1"/>
			</g>
			<g id="shape75-4" v:mID="75" v:groupContext="shape" transform="translate(3.5529,-0.0974409)">
				<title>シート.75</title>
				<path d="M4.9 29.53 L4.9 29.53 L4.89 29.54 L4.88 29.57 L4.86 29.63 L4.82 29.71 L4.78 29.8 L4.73 29.91 L4.68 30.03
							 L4.62 30.17 L4.55 30.32 L4.48 30.48 L4.41 30.66 L4.33 30.83 L4.25 31.02 L4.17 31.21 L4.09 31.4 L4 31.59
							 L3.92 31.79 L3.83 31.98 L3.75 32.16 L3.67 32.35 L3.59 32.53 L3.52 32.7 L3.45 32.86 L3.38 33.01 L3.32
							 33.15 L3.26 33.28 L3.22 33.39 L3.17 33.48 L3.14 33.56 L3.12 33.62 L3.1 33.65 L3.1 33.66 L3.09 33.67
							 L3.09 33.67 L3.09 33.66 L3.07 33.62 L3.04 33.56 L3.01 33.49 L2.97 33.39 L2.92 33.28 L2.86 33.15 L2.79
							 33.02 L2.73 32.86 L2.65 32.7 L2.57 32.53 L2.49 32.35 L2.41 32.16 L2.32 31.97 L2.24 31.78 L2.15 31.59
							 L2.06 31.39 L1.97 31.2 L1.89 31.01 L1.8 30.83 L1.72 30.65 L1.65 30.48 L1.57 30.32 L1.51 30.16 L1.44
							 30.03 L1.39 29.9 L1.34 29.79 L1.29 29.69 L1.26 29.62 L1.23 29.56 L1.22 29.53 L1.21 29.52 L1.21 29.52
							 L1.21 29.51 L1.19 29.47 L1.16 29.43 L1.13 29.4 L1.09 29.39 L1.07 29.39 L1.07 29.39 L1.04 29.39 L1.02
							 29.41 L1 29.43 L0.98 29.45 L0.97 29.48 L0.97 29.5 L0.96 29.53 L0.96 29.55 L0.96 29.55 L0.96 29.56 L0.95
							 29.6 L0.94 29.74 L0.91 29.96 L0.89 30.24 L0.85 30.58 L0.81 30.95 L0.77 31.36 L0.73 31.77 L0.69 32.18
							 L0.64 32.58 L0.61 32.96 L0.57 33.29 L0.54 33.58 L0.52 33.79 L0.5 33.94 L0.5 33.99 L0.5 33.99 L0.5 34.01
							 L0.49 34.07 L0.48 34.16 L0.47 34.24 L0.45 34.31 L0.42 34.37 L0.39 34.42 L0.35 34.46 L0.31 34.48 L0.29
							 34.48 L0.28 34.48 L0.23 34.49 L0.19 34.49 L0.15 34.5 L0.12 34.5 L0.11 34.5 L0.1 34.5 L0.07 34.5 L0.03
							 34.52 L0.01 34.55 L0 34.57 L0 34.58 L0 34.58 L0 34.6 L0.01 34.61 L0.01 34.63 L0.03 34.65 L0.05 34.66
							 L0.07 34.68 L0.11 34.68 L0.14 34.69 L0.16 34.69 L0.18 34.69 L0.25 34.69 L0.36 34.68 L0.47 34.68 L0.52
							 34.67 L0.54 34.67 L0.56 34.67 L0.59 34.67 L0.63 34.67 L0.65 34.67 L0.65 34.67 L0.65 34.67 L0.65 34.67
							 L0.67 34.67 L0.7 34.67 L0.75 34.67 L0.8 34.67 L0.81 34.67 L0.83 34.67 L0.89 34.67 L1.01 34.68 L1.14
							 34.68 L1.24 34.69 L1.27 34.69 L1.27 34.69 L1.29 34.69 L1.32 34.69 L1.34 34.68 L1.37 34.67 L1.39 34.66
							 L1.41 34.64 L1.43 34.62 L1.43 34.59 L1.43 34.58 L1.43 34.57 L1.42 34.55 L1.4 34.52 L1.37 34.5 L1.34
							 34.5 L1.33 34.5 L1.32 34.5 L1.28 34.49 L1.23 34.49 L1.17 34.48 L1.12 34.47 L1.11 34.47 L1.09 34.46 L1.05
							 34.45 L1.02 34.41 L0.99 34.36 L0.98 34.32 L0.98 34.3 L0.98 34.26 L0.98 34.13 L0.98 33.99 L0.99 33.96
							 L0.99 33.96 L0.99 33.93 L1 33.83 L1.01 33.69 L1.02 33.5 L1.04 33.27 L1.06 33.02 L1.08 32.75 L1.1 32.47
							 L1.12 32.19 L1.15 31.92 L1.17 31.67 L1.18 31.45 L1.2 31.25 L1.21 31.11 L1.22 31.01 L1.22 30.98 L1.22
							 30.98 L1.22 30.98 L1.24 31.02 L1.29 31.13 L1.36 31.29 L1.46 31.51 L1.57 31.76 L1.7 32.05 L1.84 32.36
							 L1.98 32.67 L2.12 32.99 L2.26 33.29 L2.39 33.58 L2.51 33.83 L2.61 34.05 L2.68 34.22 L2.73 34.32 L2.75
							 34.36 L2.75 34.36 L2.77 34.4 L2.83 34.52 L2.88 34.62 L2.93 34.66 L2.96 34.67 L2.97 34.67 L2.99 34.67
							 L3.03 34.66 L3.07 34.62 L3.12 34.53 L3.17 34.42 L3.18 34.39 L3.18 34.39 L3.2 34.35 L3.25 34.24 L3.32
							 34.07 L3.42 33.84 L3.54 33.58 L3.67 33.29 L3.8 32.97 L3.95 32.65 L4.09 32.33 L4.23 32.01 L4.35 31.72
							 L4.47 31.46 L4.57 31.23 L4.64 31.06 L4.69 30.95 L4.71 30.91 L4.71 30.91 L4.71 30.91 L4.71 30.95 L4.72
							 31.06 L4.73 31.22 L4.75 31.43 L4.77 31.69 L4.8 31.97 L4.82 32.27 L4.85 32.58 L4.88 32.89 L4.9 33.19
							 L4.93 33.47 L4.95 33.72 L4.97 33.94 L4.98 34.1 L4.99 34.21 L5 34.25 L5 34.25 L5 34.26 L5 34.3 L5 34.34
							 L5 34.35 L5 34.36 L5 34.39 L5 34.43 L5 34.46 L4.99 34.48 L4.99 34.48 L4.98 34.48 L4.96 34.49 L4.94 34.51
							 L4.93 34.54 L4.93 34.56 L4.93 34.56 L4.93 34.57 L4.93 34.59 L4.94 34.62 L4.96 34.63 L4.99 34.65 L5.02
							 34.66 L5.06 34.67 L5.1 34.67 L5.14 34.68 L5.15 34.68 L5.17 34.68 L5.26 34.68 L5.4 34.69 L5.55 34.69
							 L5.72 34.69 L5.87 34.69 L6.01 34.69 L6.13 34.69 L6.18 34.69 L6.2 34.69 L6.22 34.69 L6.26 34.68 L6.3
							 34.67 L6.33 34.66 L6.36 34.64 L6.37 34.62 L6.38 34.61 L6.38 34.59 L6.38 34.58 L6.38 34.58 L6.38 34.57
							 L6.38 34.56 L6.37 34.53 L6.34 34.51 L6.3 34.5 L6.28 34.5 L6.27 34.5 L6.22 34.5 L6.13 34.49 L6.02 34.47
							 L5.92 34.45 L5.89 34.44 L5.87 34.43 L5.81 34.4 L5.74 34.33 L5.69 34.25 L5.65 34.15 L5.63 34.05 L5.61
							 33.95 L5.59 33.85 L5.59 33.79 L5.58 33.76 L5.16 29.61 L5.16 29.6 L5.16 29.58 L5.15 29.54 L5.15 29.5
							 L5.14 29.46 L5.12 29.43 L5.1 29.41 L5.07 29.39 L5.05 29.39 L5.04 29.39 L5.02 29.39 L4.98 29.4 L4.95
							 29.44 L4.92 29.48 L4.9 29.52 L4.9 29.53 L4.9 29.53 L4.9 29.53 Z" class="st1"/>
			</g>
			<g id="shape76-6" v:mID="76" v:groupContext="shape" transform="translate(10.4668,-0.0752953)">
				<title>シート.76</title>
				<path d="M1.23 29.81 L1.23 29.8 L1.23 29.8 L1.24 29.79 L1.25 29.79 L1.27 29.78 L1.27 29.78 L1.3 29.78 L1.44 29.76
							 L1.55 29.75 L1.59 29.75 L1.65 29.75 L1.81 29.77 L2 29.85 L2.14 29.96 L2.26 30.1 L2.35 30.27 L2.41 30.46
							 L2.44 30.66 L2.46 30.81 L2.46 30.86 L2.46 30.91 L2.44 31.04 L2.4 31.21 L2.32 31.37 L2.25 31.48 L2.22
							 31.51 L2.21 31.52 L2.18 31.56 L2.13 31.6 L2.08 31.63 L2.03 31.65 L1.96 31.66 L1.87 31.67 L1.77 31.67
							 L1.68 31.67 L1.64 31.67 L1.61 31.67 L1.49 31.67 L1.37 31.66 L1.29 31.65 L1.26 31.65 L1.25 31.64 L1.24
							 31.64 L1.24 31.64 L1.23 31.62 L1.23 31.62 L1.23 31.61 L1.23 31.6 L1.23 31.54 L1.23 31.45 L1.23 31.33
							 L1.23 31.19 L1.23 31.04 L1.23 30.87 L1.23 30.71 L1.23 30.54 L1.23 30.38 L1.23 30.22 L1.23 30.09 L1.23
							 29.97 L1.23 29.88 L1.23 29.83 L1.23 29.81 L1.23 29.81 L1.23 29.81 L1.23 29.81 Z M1.18 29.47 L0.92 29.48
							 L0.84 29.48 L0.8 29.47 L0.7 29.47 L0.53 29.46 L0.34 29.46 L0.2 29.46 L0.16 29.46 L0.15 29.46 L0.14 29.46
							 L0.12 29.46 L0.09 29.46 L0.06 29.47 L0.04 29.48 L0.02 29.5 L0.01 29.53 L0 29.55 L0 29.56 L0 29.57 L0.01
							 29.6 L0.03 29.63 L0.06 29.65 L0.09 29.66 L0.1 29.66 L0.12 29.66 L0.16 29.66 L0.22 29.66 L0.28 29.66
							 L0.31 29.67 L0.32 29.67 L0.35 29.68 L0.44 29.71 L0.51 29.77 L0.56 29.87 L0.57 29.97 L0.58 30.01 L0.58
							 30.03 L0.58 30.09 L0.58 30.18 L0.59 30.29 L0.59 30.43 L0.59 30.6 L0.59 30.83 L0.59 31.11 L0.59 31.38
							 L0.59 31.47 L0.59 32.66 L0.59 32.77 L0.59 33.11 L0.59 33.52 L0.58 33.86 L0.56 34.05 L0.56 34.12 L0.55
							 34.15 L0.53 34.25 L0.5 34.35 L0.46 34.42 L0.42 34.44 L0.4 34.45 L0.38 34.45 L0.29 34.47 L0.23 34.47
							 L0.21 34.47 L0.19 34.47 L0.16 34.48 L0.13 34.5 L0.11 34.53 L0.1 34.56 L0.1 34.56 L0.1 34.57 L0.11 34.6
							 L0.12 34.62 L0.14 34.64 L0.17 34.66 L0.19 34.66 L0.22 34.67 L0.24 34.67 L0.26 34.67 L0.26 34.67 L0.29
							 34.67 L0.38 34.67 L0.51 34.66 L0.65 34.66 L0.74 34.65 L0.77 34.65 L0.92 34.65 L1.19 34.66 L1.23 34.66
							 L1.37 34.67 L1.56 34.68 L1.72 34.69 L1.8 34.69 L1.83 34.69 L1.88 34.69 L2.04 34.68 L2.24 34.65 L2.43
							 34.61 L2.6 34.56 L2.76 34.49 L2.91 34.41 L3.04 34.31 L3.16 34.21 L3.26 34.1 L3.35 33.98 L3.43 33.85
							 L3.5 33.72 L3.55 33.59 L3.58 33.45 L3.6 33.31 L3.61 33.2 L3.61 33.17 L3.61 33.09 L3.58 32.87 L3.5 32.61
							 L3.37 32.38 L3.22 32.19 L3.04 32.02 L2.85 31.89 L2.66 31.79 L2.52 31.73 L2.47 31.72 L2.51 31.7 L2.6
							 31.62 L2.71 31.51 L2.81 31.38 L2.9 31.24 L2.97 31.08 L3.03 30.91 L3.06 30.72 L3.07 30.57 L3.07 30.52
							 L3.07 30.5 L3.07 30.44 L3.06 30.36 L3.04 30.28 L3.01 30.19 L2.97 30.1 L2.92 30.01 L2.86 29.93 L2.79
							 29.84 L2.7 29.76 L2.6 29.69 L2.48 29.63 L2.35 29.57 L2.21 29.52 L2.04 29.49 L1.86 29.47 L1.71 29.46
							 L1.66 29.46 L1.6 29.46 L1.4 29.46 L1.21 29.47 L1.18 29.47 L1.18 29.47 L1.18 29.47 Z M1.44 34.27 L1.43
							 34.27 L1.38 34.24 L1.34 34.21 L1.31 34.17 L1.28 34.13 L1.27 34.08 L1.26 34.01 L1.25 33.92 L1.24 33.85
							 L1.24 33.82 L1.24 33.79 L1.24 33.77 L1.24 33.72 L1.24 33.59 L1.23 33.42 L1.23 33.21 L1.23 32.99 L1.23
							 32.76 L1.23 32.54 L1.23 32.38 L1.23 32.33 L1.23 32.33 L1.23 32.32 L1.23 32.27 L1.23 32.21 L1.23 32.14
							 L1.23 32.07 L1.23 32.01 L1.23 31.97 L1.23 31.96 L1.23 31.95 L1.28 31.95 L1.43 31.95 L1.58 31.96 L1.68
							 31.96 L1.73 31.96 L1.75 31.96 L1.75 31.96 L1.78 31.97 L1.87 31.98 L2 32.01 L2.13 32.06 L2.25 32.13 L2.29
							 32.15 L2.34 32.19 L2.48 32.31 L2.63 32.49 L2.74 32.67 L2.82 32.86 L2.87 33.04 L2.91 33.2 L2.92 33.35
							 L2.92 33.43 L2.92 33.46 L2.92 33.5 L2.92 33.62 L2.89 33.75 L2.85 33.87 L2.8 33.98 L2.73 34.06 L2.66
							 34.14 L2.59 34.2 L2.51 34.25 L2.42 34.29 L2.35 34.32 L2.27 34.34 L2.2 34.35 L2.14 34.36 L2.08 34.37
							 L2.04 34.37 L2.02 34.37 L2.02 34.37 L2.01 34.37 L1.98 34.37 L1.93 34.37 L1.86 34.37 L1.78 34.36 L1.69
							 34.35 L1.6 34.33 L1.52 34.31 L1.46 34.28 L1.44 34.27 L1.44 34.27 L1.44 34.27 Z" class="st1"/>
			</g>
			<g id="shape77-8" v:mID="77" v:groupContext="shape" transform="translate(15.0723,-0.0206693)">
				<title>シート.77</title>
				<path d="M0.67 30.09 L0.62 30.15 L0.49 30.32 L0.34 30.56 L0.23 30.81 L0.14 31.06 L0.07 31.31 L0.03 31.55 L0.01 31.78
							 L0 31.93 L0 31.99 L0 32.07 L0.02 32.3 L0.07 32.59 L0.14 32.87 L0.23 33.13 L0.34 33.38 L0.48 33.6 L0.65
							 33.81 L0.78 33.96 L0.83 34 L0.88 34.05 L1.04 34.17 L1.27 34.32 L1.5 34.44 L1.76 34.54 L2.03 34.61 L2.32
							 34.66 L2.63 34.68 L2.88 34.69 L2.96 34.69 L3.04 34.68 L3.26 34.67 L3.58 34.63 L3.87 34.58 L4.05 34.52
							 L4.11 34.49 L4.12 34.49 L4.15 34.47 L4.19 34.45 L4.22 34.43 L4.24 34.41 L4.25 34.38 L4.27 34.35 L4.28
							 34.31 L4.29 34.28 L4.3 34.26 L4.3 34.24 L4.32 34.16 L4.34 34.03 L4.36 33.89 L4.38 33.75 L4.39 33.62
							 L4.4 33.51 L4.41 33.43 L4.41 33.39 L4.41 33.38 L4.41 33.37 L4.41 33.34 L4.4 33.3 L4.39 33.28 L4.37 33.26
							 L4.36 33.25 L4.34 33.24 L4.33 33.24 L4.32 33.24 L4.32 33.24 L4.31 33.24 L4.29 33.24 L4.26 33.25 L4.25
							 33.27 L4.23 33.29 L4.22 33.31 L4.22 33.33 L4.21 33.36 L4.21 33.37 L4.21 33.38 L4.2 33.41 L4.18 33.5
							 L4.14 33.65 L4.08 33.8 L4.02 33.9 L4 33.93 L3.98 33.95 L3.91 34.02 L3.8 34.1 L3.69 34.16 L3.56 34.2
							 L3.42 34.24 L3.28 34.26 L3.12 34.27 L2.99 34.28 L2.95 34.28 L2.89 34.28 L2.72 34.27 L2.5 34.24 L2.28
							 34.19 L2.07 34.11 L1.87 34.01 L1.68 33.89 L1.5 33.75 L1.37 33.63 L1.33 33.59 L1.29 33.55 L1.19 33.42
							 L1.06 33.23 L0.95 33.03 L0.85 32.82 L0.78 32.6 L0.72 32.38 L0.68 32.15 L0.67 31.97 L0.67 31.92 L0.66
							 31.86 L0.66 31.7 L0.67 31.47 L0.69 31.25 L0.73 31.02 L0.8 30.8 L0.89 30.58 L1.01 30.37 L1.13 30.21 L1.17
							 30.17 L1.2 30.14 L1.29 30.05 L1.42 29.95 L1.58 29.86 L1.74 29.79 L1.92 29.74 L2.12 29.69 L2.34 29.67
							 L2.51 29.65 L2.57 29.65 L2.62 29.65 L2.77 29.66 L2.97 29.67 L3.15 29.71 L3.32 29.75 L3.47 29.8 L3.6
							 29.86 L3.71 29.93 L3.78 29.97 L3.8 29.99 L3.83 30.02 L3.9 30.11 L3.98 30.26 L4.04 30.44 L4.06 30.59
							 L4.07 30.64 L4.07 30.65 L4.07 30.67 L4.07 30.7 L4.08 30.73 L4.09 30.76 L4.1 30.79 L4.12 30.81 L4.14
							 30.82 L4.17 30.83 L4.17 30.83 L4.18 30.82 L4.2 30.82 L4.23 30.81 L4.25 30.78 L4.26 30.76 L4.27 30.73
							 L4.27 30.7 L4.27 30.67 L4.27 30.64 L4.27 30.64 L4.27 30.4 L4.27 30.36 L4.27 30.16 L4.27 29.97 L4.27
							 29.94 L4.27 29.9 L4.28 29.76 L4.29 29.66 L4.29 29.65 L4.29 29.56 L4.29 29.55 L4.29 29.51 L4.26 29.47
							 L4.22 29.45 L4.18 29.44 L4.16 29.44 L4.12 29.44 L3.87 29.41 L3.61 29.37 L3.55 29.36 L3.53 29.36 L3.46
							 29.34 L3.24 29.32 L2.98 29.3 L2.76 29.3 L2.64 29.3 L2.6 29.3 L2.52 29.3 L2.29 29.32 L2 29.36 L1.73 29.43
							 L1.48 29.51 L1.25 29.62 L1.04 29.76 L0.84 29.91 L0.71 30.04 L0.67 30.09 L0.67 30.09 L0.67 30.09 Z"
						class="st1"/>
			</g>
			<g id="shape78-10" v:mID="78" v:groupContext="shape" transform="translate(1.00689,-7.56053)">
				<title>シート.78</title>
				<path d="M0 21.84 L0 34.69 L5.28 32.46 L5.28 19.61 L0 21.84 L0 21.84 L0 21.84 Z" class="st2"/>
			</g>
			<g id="shape79-12" v:mID="79" v:groupContext="shape" transform="translate(12.9242,-18.1727)">
				<title>シート.79</title>
				<path d="M0 21.84 L0 34.69 L5.28 32.46 L5.28 19.61 L0 21.84 L0 21.84 L0 21.84 Z" class="st2"/>
			</g>
			<g id="shape80-14" v:mID="80" v:groupContext="shape" transform="translate(6.96629,-10.0807)">
				<title>シート.80</title>
				<path d="M0 21.84 L0 34.69 L5.28 26.88 L5.28 14.04 L0 21.84 L0 21.84 L0 21.84 Z" class="st2"/>
			</g>
			<g id="shape81-16" v:mID="81" v:groupContext="shape" transform="translate(44.405,-6.11073)">
				<title>シート.81</title>
				<path d="M9.17 20.71 L9.17 22.86 L4.87 22.86 L4.87 20.71 L2.76 20.71 L2.76 22.86 L0 22.86 L0 24.24 L2.76 24.24 L2.76
							 27.22 L2.76 27.25 L2.76 27.35 L2.75 27.5 L2.75 27.68 L2.74 27.87 L2.73 28.07 L2.71 28.26 L2.7 28.44
							 L2.69 28.55 L2.68 28.59 L0 28.59 L0 29.96 L2.44 29.96 L2.42 30.03 L2.37 30.25 L2.27 30.52 L2.17 30.8
							 L2.05 31.06 L1.91 31.32 L1.78 31.56 L1.63 31.8 L1.48 32.02 L1.32 32.23 L1.17 32.44 L1.01 32.62 L0.86
							 32.8 L0.72 32.96 L0.58 33.11 L0.46 33.24 L0.37 33.33 L0.34 33.35 L1.03 34.69 L1.06 34.66 L1.17 34.59
							 L1.36 34.46 L1.57 34.31 L1.8 34.12 L2.06 33.9 L2.32 33.65 L2.6 33.38 L2.88 33.09 L3.16 32.77 L3.43 32.42
							 L3.68 32.06 L3.92 31.68 L4.14 31.27 L4.33 30.85 L4.48 30.41 L4.57 30.07 L4.59 29.96 L9.17 29.96 L9.17
							 34.38 L11.23 34.38 L11.23 29.96 L13.76 29.96 L13.76 28.59 L11.23 28.59 L11.23 24.24 L13.76 24.24 L13.76
							 22.86 L11.23 22.86 L11.23 20.71 L9.17 20.71 L9.17 20.71 L9.17 20.71 Z M9.17 24.24 L9.17 28.59 L4.83
							 28.59 L4.83 28.57 L4.84 28.5 L4.84 28.39 L4.85 28.25 L4.86 28.1 L4.86 27.95 L4.86 27.82 L4.87 27.7 L4.87
							 27.64 L4.87 27.62 L4.87 24.24 L9.17 24.24 L9.17 24.24 L9.17 24.24 Z" class="st1"/>
			</g>
			<g id="shape82-18" v:mID="82" v:groupContext="shape" transform="translate(113.798,-18.1299)">
				<title>シート.82</title>
				<path d="M0 34.69 L7.85 34.69 L7.85 33.25 L0 33.25 L0 34.69 L0 34.69 Z" class="st1"/>
			</g>
			<g id="shape83-20" v:mID="83" v:groupContext="shape" transform="translate(113.362,-6.54774)">
				<title>シート.83</title>
				<path d="M0 25.83 L0 27.21 L4.73 27.21 L4.73 32.71 L4.73 32.75 L4.72 32.85 L4.68 32.97 L4.62 33.07 L4.55 33.16 L4.45
							 33.22 L4.34 33.27 L4.22 33.3 L4.12 33.31 L4.09 33.31 L2.04 33.31 L2.28 34.69 L4.94 34.69 L4.99 34.69
							 L5.15 34.68 L5.35 34.67 L5.54 34.64 L5.72 34.6 L5.88 34.55 L6.03 34.48 L6.16 34.41 L6.27 34.31 L6.38
							 34.2 L6.47 34.08 L6.55 33.94 L6.61 33.78 L6.66 33.61 L6.69 33.41 L6.71 33.2 L6.72 33.03 L6.72 32.97
							 L6.72 27.21 L8.73 27.21 L8.73 25.83 L0 25.83 L0 25.83 L0 25.83 Z" class="st1"/>
			</g>
			<g id="shape84-22" v:mID="84" v:groupContext="shape" transform="translate(107.663,-6.41634)">
				<title>シート.84</title>
				<path d="M0 28.41 L0.65 29.38 L0.77 29.31 L1.32 28.97 L1.86 28.6 L1.96 28.53 L1.96 34.69 L3.85 34.69 L3.85 26.94
							 L3.97 26.82 L4.34 26.45 L4.77 25.98 L5.14 25.53 L5.38 25.23 L5.46 25.12 L4.04 24.06 L3.99 24.13 L3.85
							 24.35 L3.65 24.64 L3.43 24.94 L3.19 25.23 L2.95 25.53 L2.7 25.83 L2.44 26.13 L2.18 26.42 L1.91 26.7
							 L1.64 26.98 L1.36 27.25 L1.09 27.51 L0.81 27.76 L0.54 27.99 L0.27 28.21 L0.07 28.37 L0 28.41 L0 28.41
							 L0 28.41 Z" class="st1"/>
			</g>
			<g id="shape85-24" v:mID="85" v:groupContext="shape" transform="translate(107.928,-15.7087)">
				<title>シート.85</title>
				<path d="M4.89 31.16 L3.44 30 L3.39 30.07 L3.24 30.28 L3.03 30.56 L2.81 30.85 L2.59 31.12 L2.35 31.4 L2.12 31.66
							 L1.88 31.92 L1.64 32.17 L1.41 32.41 L1.17 32.64 L0.95 32.85 L0.73 33.05 L0.53 33.24 L0.34 33.4 L0.16
							 33.55 L0.04 33.65 L0 33.68 L0.73 34.69 L0.78 34.66 L0.93 34.59 L1.16 34.46 L1.41 34.31 L1.67 34.14 L1.95
							 33.95 L2.23 33.74 L2.52 33.52 L2.81 33.28 L3.11 33.04 L3.4 32.78 L3.68 32.51 L3.95 32.25 L4.21 31.97
							 L4.46 31.7 L4.68 31.43 L4.84 31.23 L4.89 31.16 L4.89 31.16 L4.89 31.16 Z" class="st1"/>
			</g>
			<g id="shape86-26" v:mID="86" v:groupContext="shape" transform="translate(64.4011,-6.84596)">
				<title>シート.86</title>
				<path d="M6.09 33.35 L6.09 29.53 L9.51 29.53 L9.51 28.2 L6.09 28.2 L6.09 24.93 L9.85 24.93 L9.85 23.59 L5.6 23.59
							 L5.62 23.59 L6.74 22.87 L6.7 22.84 L6.6 22.73 L6.45 22.58 L6.29 22.43 L6.12 22.28 L5.95 22.12 L5.77
							 21.96 L5.59 21.81 L5.41 21.66 L5.23 21.52 L5.06 21.38 L4.89 21.25 L4.74 21.13 L4.6 21.02 L4.47 20.93
							 L4.36 20.85 L4.29 20.8 L4.26 20.79 L2.75 21.75 L2.81 21.79 L2.96 21.92 L3.21 22.13 L3.47 22.36 L3.75
							 22.61 L4.03 22.87 L4.3 23.12 L4.56 23.37 L4.73 23.54 L4.79 23.59 L0.33 23.59 L0.33 24.93 L4.1 24.93
							 L4.1 28.2 L0.66 28.2 L0.66 29.53 L4.1 29.53 L4.1 33.35 L0 33.35 L0 34.69 L10.19 34.69 L10.19 33.35 L6.09
							 33.35 L6.09 33.35 L6.09 33.35 Z" class="st1"/>
			</g>
			<g id="shape87-28" v:mID="87" v:groupContext="shape" transform="translate(59.8162,-6.41781)">
				<title>シート.87</title>
				<path d="M5.08 21.36 L3.2 20.59 L3.18 20.64 L3.14 20.77 L3.07 21 L2.97 21.28 L2.86 21.61 L2.72 21.98 L2.57 22.39
							 L2.4 22.82 L2.21 23.28 L2 23.75 L1.77 24.24 L1.52 24.73 L1.25 25.22 L0.97 25.7 L0.66 26.17 L0.34 26.62
							 L0.09 26.94 L0 27.05 L0.65 28.14 L0.73 28.08 L0.97 27.87 L1.29 27.56 L1.61 27.22 L1.85 26.94 L1.93 26.85
							 L1.93 34.69 L3.82 34.69 L3.82 24.28 L3.85 24.24 L3.91 24.11 L4.01 23.92 L4.11 23.72 L4.21 23.51 L4.31
							 23.3 L4.4 23.09 L4.5 22.88 L4.59 22.67 L4.68 22.47 L4.76 22.27 L4.84 22.08 L4.91 21.9 L4.97 21.74 L5.01
							 21.6 L5.05 21.47 L5.07 21.39 L5.08 21.36 L5.08 21.36 L5.08 21.36 Z" class="st1"/>
			</g>
			<g id="shape88-30" v:mID="88" v:groupContext="shape" transform="translate(29.7365,-12.2613)">
				<title>シート.88</title>
				<path d="M0 34.69 L11.33 34.69 L11.33 33.01 L0 33.01 L0 34.69 L0 34.69 Z" class="st1"/>
			</g>
			<g id="shape89-32" v:mID="89" v:groupContext="shape" transform="translate(29.1179,-17.2589)">
				<title>シート.89</title>
				<path d="M0 34.69 L12.56 34.69 L12.56 33.01 L0 33.01 L0 34.69 L0 34.69 Z" class="st1"/>
			</g>
			<g id="shape90-34" v:mID="90" v:groupContext="shape" transform="translate(28.5716,-6.84596)">
				<title>シート.90</title>
				<path d="M0 34.69 L13.65 34.69 L13.65 33 L0 33 L0 34.69 L0 34.69 Z" class="st1"/>
			</g>
			<g id="shape91-36" v:mID="91" v:groupContext="shape" transform="translate(76.0748,-6.41486)">
				<title>シート.91</title>
				<path d="M13.93 33.03 L13.83 33 L13.52 32.93 L13.06 32.8 L12.57 32.66 L12.04 32.5 L11.48 32.31 L10.9 32.1 L10.31
							 31.85 L9.85 31.64 L9.7 31.57 L9.76 31.5 L9.95 31.3 L10.2 31.01 L10.44 30.71 L10.67 30.39 L10.88 30.07
							 L11.09 29.73 L11.28 29.38 L11.47 29.02 L11.63 28.66 L11.79 28.29 L11.93 27.91 L12.06 27.53 L12.17 27.15
							 L12.26 26.76 L12.34 26.38 L12.39 26.09 L12.4 25.99 L5.52 25.99 L5.56 25.83 L5.72 25.04 L5.86 24.21 L5.88
							 24.05 L13.86 24.05 L13.86 22.65 L6.04 22.65 L6.06 22.48 L6.13 21.62 L6.18 20.72 L6.19 20.54 L4.01 20.54
							 L4.01 20.58 L4 20.7 L4 20.91 L3.98 21.16 L3.97 21.44 L3.95 21.74 L3.93 22.05 L3.91 22.35 L3.89 22.58
							 L3.88 22.65 L0.2 22.65 L0.2 24.05 L3.72 24.05 L3.71 24.18 L3.65 24.58 L3.56 25.12 L3.45 25.67 L3.33
							 26.24 L3.19 26.81 L3.03 27.39 L2.84 27.97 L2.64 28.57 L2.41 29.16 L2.16 29.76 L1.87 30.36 L1.56 30.97
							 L1.22 31.57 L0.85 32.17 L0.44 32.77 L0.11 33.21 L0 33.36 L0.71 34.54 L0.73 34.53 L0.78 34.49 L0.89 34.39
							 L1.04 34.24 L1.23 34.04 L1.45 33.79 L1.7 33.49 L1.97 33.15 L2.26 32.77 L2.57 32.35 L2.88 31.88 L3.2
							 31.38 L3.53 30.84 L3.85 30.26 L4.16 29.65 L4.47 29.01 L4.69 28.5 L4.76 28.33 L4.79 28.46 L4.93 28.82
							 L5.14 29.3 L5.38 29.75 L5.66 30.18 L5.96 30.59 L6.29 30.98 L6.63 31.35 L6.91 31.62 L7 31.7 L6.9 31.77
							 L6.6 31.97 L6.16 32.22 L5.7 32.47 L5.21 32.71 L4.68 32.93 L4.12 33.14 L3.52 33.34 L3.05 33.49 L2.89
							 33.53 L3.54 34.68 L3.59 34.67 L3.73 34.63 L3.94 34.58 L4.17 34.52 L4.42 34.44 L4.69 34.36 L4.97 34.26
							 L5.27 34.16 L5.59 34.04 L5.91 33.91 L6.24 33.77 L6.57 33.62 L6.92 33.46 L7.26 33.29 L7.6 33.1 L7.94
							 32.9 L8.2 32.75 L8.28 32.69 L8.36 32.74 L8.6 32.89 L8.92 33.08 L9.24 33.26 L9.57 33.43 L9.89 33.58 L10.22
							 33.73 L10.53 33.87 L10.85 34 L11.15 34.12 L11.45 34.23 L11.73 34.33 L12.01 34.42 L12.27 34.5 L12.51
							 34.57 L12.73 34.63 L12.88 34.67 L12.93 34.69 L13.93 33.03 L13.93 33.03 L13.93 33.03 Z M5.73 27.28 L9.97
							 27.28 L9.94 27.39 L9.85 27.74 L9.71 28.19 L9.54 28.63 L9.34 29.06 L9.11 29.49 L8.84 29.89 L8.54 30.29
							 L8.29 30.59 L8.2 30.68 L8.09 30.6 L7.76 30.34 L7.35 29.97 L6.98 29.57 L6.64 29.15 L6.34 28.72 L6.08
							 28.26 L5.88 27.78 L5.76 27.41 L5.73 27.28 L5.73 27.28 L5.73 27.28 Z" class="st1"/>
			</g>
			<g id="shape92-38" v:mID="92" v:groupContext="shape" transform="translate(91.5812,-6.41929)">
				<title>シート.92</title>
				<path d="M5.74 25.88 L5.74 24.84 L5.78 24.87 L6.2 25.23 L6.25 25.26 L6.87 23.92 L6.83 23.88 L6.71 23.76 L6.55 23.59
							 L6.39 23.41 L6.23 23.22 L6.06 23.02 L5.91 22.82 L5.76 22.62 L5.61 22.42 L5.47 22.22 L5.34 22.03 L5.22
							 21.83 L5.1 21.65 L5 21.48 L4.91 21.31 L4.84 21.16 L4.79 21.06 L4.78 21.03 L2.6 21.03 L2.58 21.08 L2.52
							 21.22 L2.42 21.42 L2.31 21.63 L2.19 21.86 L2.05 22.08 L1.9 22.32 L1.74 22.55 L1.57 22.79 L1.4 23.02
							 L1.21 23.26 L1.02 23.49 L0.82 23.71 L0.62 23.93 L0.42 24.14 L0.21 24.34 L0.05 24.47 L0 24.52 L0.54 25.77
							 L0.61 25.72 L0.95 25.47 L1.29 25.21 L1.35 25.15 L1.35 25.88 L2.72 25.88 L2.72 27.2 L0.47 27.2 L0.47
							 28.4 L2.72 28.4 L2.72 32.82 L2.66 32.83 L2.47 32.86 L2.19 32.91 L1.89 32.96 L1.58 33 L1.25 33.05 L0.93
							 33.1 L0.61 33.14 L0.37 33.17 L0.29 33.17 L0.73 34.69 L0.83 34.67 L1.13 34.6 L1.54 34.5 L1.97 34.4 L2.4
							 34.3 L2.83 34.19 L3.26 34.08 L3.68 33.98 L4.09 33.87 L4.49 33.77 L4.87 33.66 L5.22 33.57 L5.55 33.47
							 L5.84 33.39 L6.1 33.31 L6.32 33.23 L6.44 33.19 L6.49 33.17 L6.49 31.99 L6.43 32.01 L6.27 32.05 L6.02
							 32.12 L5.76 32.19 L5.48 32.26 L5.2 32.32 L4.91 32.39 L4.63 32.45 L4.43 32.49 L4.37 32.5 L4.37 28.4 L6.49
							 28.4 L6.49 27.2 L4.37 27.2 L4.37 25.88 L5.74 25.88 L5.74 25.88 L5.74 25.88 Z M1.88 24.68 L1.96 24.61
							 L2.19 24.38 L2.49 24.08 L2.76 23.78 L3.01 23.49 L3.23 23.22 L3.43 22.96 L3.59 22.72 L3.69 22.56 L3.72
							 22.5 L3.75 22.56 L3.87 22.73 L4.04 22.97 L4.24 23.24 L4.46 23.51 L4.71 23.8 L4.98 24.09 L5.26 24.39
							 L5.49 24.61 L5.57 24.68 L1.88 24.68 L1.88 24.68 L1.88 24.68 Z" class="st1"/>
			</g>
			<g id="shape93-40" v:mID="93" v:groupContext="shape" transform="translate(92.1444,-9.22146)">
				<title>シート.93</title>
				<path d="M1.38 32.06 L0 32.06 L0.4 34.69 L1.66 34.69 L1.38 32.06 L1.38 32.06 L1.38 32.06 Z" class="st1"/>
			</g>
			<g id="shape94-42" v:mID="94" v:groupContext="shape" transform="translate(98.7195,-6.32628)">
				<title>シート.94</title>
				<path d="M5.17 30.97 L5.19 30.96 L5.25 30.93 L5.34 30.87 L5.45 30.8 L5.57 30.71 L5.7 30.62 L5.84 30.52 L5.99 30.42
							 L6.13 30.3 L6.28 30.19 L6.43 30.08 L6.57 29.96 L6.71 29.85 L6.84 29.74 L6.95 29.63 L7.06 29.53 L7.12
							 29.46 L7.15 29.44 L6.02 28.42 L5.98 28.47 L5.86 28.6 L5.67 28.8 L5.46 29.02 L5.24 29.24 L5.02 29.45
							 L4.8 29.65 L4.61 29.81 L4.5 29.91 L4.46 29.94 L4.38 29.83 L4.18 29.46 L3.94 28.97 L3.73 28.46 L3.61
							 28.08 L3.57 27.95 L6.44 27.95 L6.44 21.19 L0 21.19 L0 34.62 L0.06 34.61 L0.24 34.58 L0.49 34.52 L0.75
							 34.45 L1.02 34.38 L1.29 34.29 L1.57 34.2 L1.85 34.1 L2.12 34 L2.38 33.89 L2.64 33.79 L2.88 33.68 L3.11
							 33.57 L3.32 33.47 L3.51 33.38 L3.67 33.29 L3.78 33.22 L3.81 33.2 L3.81 31.93 L3.77 31.95 L3.64 32.01
							 L3.4 32.11 L3.12 32.22 L2.82 32.33 L2.51 32.43 L2.2 32.53 L1.92 32.61 L1.75 32.65 L1.69 32.67 L1.69
							 27.95 L2.29 27.95 L2.31 28.06 L2.38 28.39 L2.51 28.83 L2.66 29.29 L2.83 29.75 L3.03 30.21 L3.25 30.67
							 L3.49 31.12 L3.74 31.57 L4.02 32.02 L4.3 32.45 L4.6 32.87 L4.91 33.27 L5.23 33.66 L5.56 34.02 L5.89
							 34.37 L6.14 34.61 L6.23 34.69 L7.47 33.26 L7.41 33.22 L7.22 33.07 L6.95 32.84 L6.67 32.59 L6.37 32.31
							 L6.07 32.01 L5.77 31.68 L5.47 31.34 L5.24 31.06 L5.17 30.97 L5.17 30.97 L5.17 30.97 Z M1.69 22.36 L4.75
							 22.36 L4.75 23.99 L1.69 23.99 L1.69 22.36 L1.69 22.36 L1.69 22.36 Z M4.75 26.79 L1.69 26.79 L1.69 25.14
							 L4.75 25.14 L4.75 26.79 L4.75 26.79 Z" class="st1"/>
			</g>
			<g id="shape95-44" v:mID="95" v:groupContext="shape" transform="translate(96.4532,-9.7751)">
				<title>シート.95</title>
				<path d="M1.23 34.69 L1.58 32.62 L0.25 32.62 L0 34.69 L1.23 34.69 L1.23 34.69 L1.23 34.69 Z" class="st1"/>
			</g>
		</g>
	</g>
</svg>
