<svg width="128" height="25" viewBox="0 0 128 25" fill="none" xmlns="http://www.w3.org/2000/svg">
<path fill-rule="evenodd" clip-rule="evenodd" d="M32.3361 9.18424H39.7506V19.7817H39.8044C42.7322 19.7817 45.1059 17.477 45.1059 14.6338V9.18424H52.7266V4.78426H32.3361V9.18424Z" fill="white"/>
<path fill-rule="evenodd" clip-rule="evenodd" d="M67.8344 15.3839H62.7383C60.9608 15.3839 59.425 14.0607 59.342 12.3365C59.2538 10.5031 60.7644 8.98386 62.634 8.98386H67.7298C69.5073 8.98386 71.0433 10.3074 71.1261 12.0313C71.2143 13.8651 69.7035 15.3839 67.8344 15.3839ZM69.0938 4.58411H61.3747C57.0699 4.58411 53.548 8.00401 53.548 12.1839C53.548 16.3638 57.0699 19.7839 61.3747 19.7839H69.0938C73.3984 19.7839 76.9205 16.3638 76.9205 12.1839C76.9205 8.00401 73.3984 4.58411 69.0938 4.58411Z" fill="white"/>
<path fill-rule="evenodd" clip-rule="evenodd" d="M118.329 15.3839H113.233C111.455 15.3839 109.919 14.0607 109.836 12.3365C109.748 10.5031 111.259 8.98386 113.128 8.98386H118.224C120.001 8.98386 121.538 10.3074 121.621 12.0313C121.709 13.8651 120.198 15.3839 118.329 15.3839ZM119.588 4.58411H111.869C107.564 4.58411 104.042 8.00401 104.042 12.1839C104.042 16.3638 107.564 19.7839 111.869 19.7839H119.588C123.893 19.7839 127.415 16.3638 127.415 12.1839C127.415 8.00401 123.893 4.58411 119.588 4.58411Z" fill="white"/>
<path fill-rule="evenodd" clip-rule="evenodd" d="M95.4371 10.1985C95.4371 10.9605 94.7948 11.5844 94.0095 11.5844H86.7856V8.78458H94.0095C94.7948 8.78458 95.4371 9.40828 95.4371 10.1708V10.1985ZM100.861 10.426C100.861 8.92924 100.231 7.56919 99.2134 6.58094C98.1978 5.59497 96.7969 4.98331 95.2557 4.98331H80.8132V13.4355V15.9839V19.5833H86.5797V15.9839H92.6762L94.8151 19.5833H100.861L98.2673 15.0098C99.823 14.0395 100.861 12.3446 100.861 10.426Z" fill="white"/>
<path fill-rule="evenodd" clip-rule="evenodd" d="M11.7403 24.1059V18.1354C11.7403 18.0711 11.6655 18.0345 11.6121 18.0729C8.56199 20.2702 5.09059 22.2735 1.27325 24.0355C1.19606 24.0714 1.22226 24.1841 1.30787 24.1841H11.6598C11.7043 24.1841 11.7403 24.1489 11.7403 24.1059Z" fill="#EC0000"/>
<path fill-rule="evenodd" clip-rule="evenodd" d="M24.0967 0.307414C24.1344 0.255628 24.096 0.184082 24.031 0.184082H8.3081C3.7198 0.184082 0 3.76616 0 8.18475V15.6748C0 15.7284 0.0542661 15.7661 0.106427 15.7489C10.8319 12.2413 19.3721 6.76882 24.0967 0.307414Z" fill="#EC0000"/>
<path fill-rule="evenodd" clip-rule="evenodd" d="M16.0654 14.6487V24.106C16.0654 24.1489 16.1015 24.1839 16.1459 24.1839H16.4083C20.9964 24.1839 24.716 20.602 24.716 16.1834V2.38776C24.716 2.29986 24.5894 2.27897 24.5597 2.3621C23.0063 6.72164 20.0963 10.8627 16.09 14.5926C16.0743 14.6072 16.0654 14.6274 16.0654 14.6487Z" fill="#EC0000"/>
</svg>
