<svg width="500" height="113" version="1.1" xmlns="http://www.w3.org/2000/svg">
 <path d="m444.56 59.36v51.868h-22.611v-91h22.611v11.043h3.3393c6.1357-8.2464 17.068-12.714 28.004-12.714 15.561 0 24.096 9.1679 24.096 21.511v71.161h-22.611v-69.964h-16.329c-8.5107 0.12857-16.5 6.5-16.5 18.093zm-56.529-4.5c-0.57143-10.464-7.05-18.536-18.554-18.536-2.4821-0.13929-4.9643 0.23929-7.2893 1.1143-2.3322 0.875-4.4572 2.225-6.2429 3.9607-1.7929 1.7429-3.2107 3.8357-4.1607 6.15-0.95357 2.3179-1.425 4.8036-1.3821 7.3107zm22.611 16.668h-60.807c0.56786 11.993 7.4214 21.914 20.582 21.914 9.0786 0 17.786-5 19.096-14.043h20.757c-2.475 20.964-16.5 33.132-40.225 33.132-27.064 0-42.454-16.464-42.454-46.975 0-29.607 15.018-47 42.454-47 27.979 0 42.821 18.514 40.596 52.971zm-137-33.257v72.961h22.607v-69.968h26.696v-21.154h-30.207c-9.8214 0.125-19.096 6.4964-19.096 18.164zm-59.5 0v72.961h22.614v-69.968h26.693v-21.154h-30.232c-9.8214 0.125-19.071 6.4964-19.071 18.164zm-63.604 56.571c-7.5928 0-12.221-3.95-12.221-11.071 0-7.6714 5.1714-12.918 16.679-12.918h16.5v1.875c0.0607 2.8357-0.43215 5.6571-1.4536 8.3036-1.0179 2.6393-2.5429 5.0571-4.4929 7.1071-1.9429 2.0464-4.2714 3.6857-6.85 4.825-2.575 1.1357-5.3464 1.75-8.1607 1.8v0.075zm-7.5928 17.964c5.3286 0.0393 10.6-1.1357 15.407-3.4357 4.825-2.3071 9.0643-5.6786 12.4-9.8571h3.3393c0.74285 8.6179 6.3071 11.793 15.929 11.793h10.589v-18.714h-7.4214v-53.821c0-11.993-9.6464-18.539-20.582-18.539h-48.189l-1.4857 20.214h48.561v14.789h-22.982c-20.779 0-32.161 10.121-32.161 28.836 0.075 16.289 8.9821 28.657 26.596 28.657zm-53.018-112.44-6.3071 91.571h-4.625l-4.4571-55.239c-0.07143-2.4464-0.625-4.8571-1.6286-7.0929-1-2.2286-2.4321-4.2393-4.2107-5.9143-1.7714-1.6679-3.8607-2.9679-6.1393-3.8214-2.275-0.85-4.6964-1.2357-7.1214-1.1357h-3.7107c-4.8679-0.16786-9.6071 1.6071-13.168 4.9321-3.5821 3.3464-5.7107 7.9607-5.9286 12.857l-4.45 55.243h-4.6286l-3.5107-51.321h-20.039l3.5357 54.118c0.16429 4.9643 2.2893 9.6607 5.9143 13.057 3.6036 3.375 8.425 5.1464 13.357 4.9071h5.3714c4.8964 0.16786 9.6607-1.6286 13.225-4.9928 3.5857-3.3822 5.6964-8.0429 5.8714-12.971l4.4536-55.243h3.7143l4.45 55.243c0.07143 2.45 0.62857 4.8643 1.6286 7.0964 1 2.2286 2.4286 4.2393 4.2071 5.9143 3.5714 3.375 8.3536 5.1607 13.261 4.9572h5.1714c2.4286 0.11428 4.8571-0.26429 7.1393-1.1107 2.2857-0.84643 4.3786-2.1464 6.1536-3.8179 1.7821-1.6786 3.2107-3.6928 4.2036-5.9286 1-2.2357 1.5429-4.6536 1.6036-7.1071l6.6786-94.375-20.011 0.175z" fill="#e24324"/>
</svg>
