<svg width="87" height="31" viewBox="0 0 87 31" fill="none" xmlns="http://www.w3.org/2000/svg">
<path d="M27.5505 26.6789C27.5505 24.734 29.1368 23.1663 31.0746 23.1663C33.0124 23.1663 34.5987 24.734 34.5987 26.6789C34.5987 28.6238 33.0259 30.1915 31.0746 30.1915C29.1233 30.1915 27.5505 28.6104 27.5505 26.6789ZM29.6889 26.6789C29.6889 27.4335 30.3085 28.0601 31.0746 28.0601C31.8407 28.0601 32.4604 27.4335 32.4604 26.6789C32.4604 25.9243 31.8407 25.2977 31.0746 25.2977C30.3085 25.2977 29.6889 25.9153 29.6889 26.6789Z" fill="#54B7E8"/>
<path d="M55.4007 2.72646C55.4007 1.72704 54.5851 0.914031 53.5824 0.914031H53.5711C51.755 0.943227 51.1917 0.981407 50.9618 1.02633C48.9069 1.29359 46.9285 1.99879 45.162 3.08356V2.56251C45.162 1.5339 44.3238 0.698425 43.2918 0.698425H39.9907C38.9588 0.698425 38.1205 1.5339 38.1205 2.56251V28.4329C38.1205 29.4615 38.9588 30.297 39.9907 30.297H43.2197C44.2516 30.297 45.0899 29.4615 45.0899 28.4351L45.1372 15.1036C45.2566 13.1811 46.088 11.3844 47.4783 10.0391C48.8731 8.6893 50.7117 7.91671 52.6563 7.86281H54.0465C54.7924 7.86281 55.4007 7.25867 55.4007 6.51303V2.72646Z" fill="#252F59"/>
<path d="M24.432 4.91842L24.4027 2.7983C24.3892 1.75846 23.5285 0.914001 22.4852 0.914001H1.77331C0.795398 0.914001 0 1.7068 0 2.68152V6.09527C0 7.06998 0.795398 7.86278 1.77331 7.86278H13.853L0.378546 24.945C0.132942 25.2549 0 25.6435 0 26.0365V28.5294C0 29.5042 0.795398 30.297 1.77331 30.297H22.661C23.6389 30.297 24.4343 29.5042 24.4343 28.5294V25.1157C24.4343 24.141 23.6389 23.3482 22.661 23.3482H10.5047L23.9543 6.2974C24.263 5.90661 24.432 5.41701 24.432 4.91842Z" fill="#252F59"/>
<path d="M70.7927 -0.0022583C62.2033 -0.0022583 55.243 6.93754 55.243 15.4966C55.243 24.0557 62.2055 30.9955 70.7927 30.9955C79.3798 30.9955 86.3424 24.0557 86.3424 15.4966C86.3424 6.93754 79.3821 -0.0022583 70.7927 -0.0022583ZM70.7927 23.337C66.4484 23.337 62.9288 19.8267 62.9288 15.4989C62.9288 11.171 66.4507 7.66071 70.7927 7.66071C75.1347 7.66071 78.6565 11.171 78.6565 15.4989C78.6565 19.8267 75.1347 23.337 70.7927 23.337Z" fill="#252F59"/>
</svg>
