<?xml version="1.0" encoding="UTF-8" standalone="no"?>
<svg
   width="26.466524mm"
   height="26.466524mm"
   viewBox="0 0 100.03096 100.03096"
   version="1.1"
   id="svg1"
   xmlns="http://www.w3.org/2000/svg">
  <rect
     style="fill:#ffffff;fill-opacity:1"
     id="rect1"
     width="100.03096"
     height="100.03096"
     x="0"
     y="0" />
  <g transform="translate(23.9079,20.7863) scale(0.02334)">
    <path d="m 1055.1577,2495.2057 l 257.0676,-688.3116 l 229.8364,0 l -261.0388,688.3116 z" style="fill:#0a0b35" />
    <path d="M 392.79438,2114.0326 L 1004.5825,1705.9434 L 1184.4216,1835.47 L 569.39456,2241.2164 Z" style="fill:#0a0b35" />
    <path d="m 69.821458,1425.2377 l 735.370582,25.0143 l 62.90901,187.7711 l -736.59765,-28.8173 z" style="fill:#0a0b35" />
    <path d="M 201.12566,677.10652 L 783.26633,1126.2833 L 729.58142,1298.9258 L 148.61533,845.94514 Z" style="fill:#0a0b35" />
    <path d="M 736.98805,141.55527 L 947.03148,845.55641 L 828.70411,934.78257 L 621.78932,228.31992 Z" style="fill:#0a0b35" />
    <path d="M 1483.397,9.8213625 L 1240.8065,703.32824 L 1125.3262,705.72875 L 1371.888,12.166287 Z" style="fill:#0a0b35" />
    <path d="M 2167.6745,328.21481 L 1564.9014,749.36594 L 1496.729,702.46589 L 2102.8115,283.54813 Z" style="fill:#0a0b35" />
  </g>
</svg>
