<?xml version="1.0" encoding="UTF-8" standalone="no"?>
<!-- Created with Inkscape (http://www.inkscape.org/) -->

<svg
   width="26.466524mm"
   height="26.466518mm"
   viewBox="0 0 100.03096 100.03094"
   version="1.1"
   id="svg1"
   xml:space="preserve"
   xmlns:xlink="http://www.w3.org/1999/xlink"
   xmlns="http://www.w3.org/2000/svg"
   xmlns:svg="http://www.w3.org/2000/svg"><defs
     id="defs1"><linearGradient
       id="linearGradient1"><stop
         style="stop-color:#fef06e;stop-opacity:1;"
         offset="0.5"
         id="stop1" /><stop
         style="stop-color:#fee60e;stop-opacity:1;"
         offset="0.5"
         id="stop2" /></linearGradient><linearGradient
       xlink:href="#linearGradient1"
       id="linearGradient2"
       x1="312.79266"
       y1="25.171572"
       x2="312.79266"
       y2="128.54999"
       gradientUnits="userSpaceOnUse" /></defs><g
     id="g9-8"
     style="display:inline"
     transform="matrix(0.96762006,0,0,0.96762006,-252.64904,-24.356558)"><rect
       style="fill:url(#linearGradient2);fill-opacity:1"
       id="rect1-5-2-2"
       width="103.37833"
       height="103.37833"
       x="261.10352"
       y="25.171614"
       ry="6.6953231e-07" /><g
       fill-rule="evenodd"
       clip-rule="evenodd"
       id="g8-7"
       transform="matrix(0.34291208,0,0,0.34291208,279.74367,43.811424)"><path
         fill="#33348e"
         d="M 96.396,16.925 17.546,69.775 50.365,91.086 89.577,64.66 74.023,54.443 95.328,40.169 l 46.231,30.679 -75.845,50.918 16.405,10.865 94.379,-62.848 -0.213,-0.213 z m 78.631,0.022 -32.808,21.731 16.404,11.078 16.404,-11.078 z M 17.005,175.832 49.814,154.102 33.41,143.023 17.005,154.102 Z"
         id="path4-11" /><path
         fill="#33348e"
         d="m 96.36,175.787 78.849,-52.851 -32.818,-21.311 -39.211,26.426 15.552,10.217 -21.304,14.275 -46.231,-30.68 75.844,-50.917 -16.404,-10.866 -94.38,62.848 0.213,0.215 z"
         id="path6-5" /></g></g><style
     type="text/css"
     id="style2">
	.st0{fill-rule:evenodd;clip-rule:evenodd;fill:#001E61;}
</style><style
     type="text/css"
     id="style2-0">
	.st0{clip-path:url(#SVGID_2_);fill:#000051;}
	.st1{clip-path:url(#SVGID_2_);fill:#0788FE;}
	.st2{clip-path:url(#SVGID_2_);fill:#A06FFE;}
	.st3{clip-path:url(#SVGID_2_);fill:#00D9CB;}
</style><style
     type="text/css"
     id="style2-09">
	.st0{fill-rule:evenodd;clip-rule:evenodd;fill:#001E61;}
</style><style
     type="text/css"
     id="style2-8">
	.st0{fill-rule:evenodd;clip-rule:evenodd;fill:#001E61;}
</style><style
     type="text/css"
     id="style2-2">
	.st0{fill-rule:evenodd;clip-rule:evenodd;fill:#001E61;}
</style><style
     type="text/css"
     id="style2-5">
	.st0{fill-rule:evenodd;clip-rule:evenodd;fill:#001E61;}
</style><style
     type="text/css"
     id="style2-094">
	.st0{fill-rule:evenodd;clip-rule:evenodd;fill:#001E61;}
</style><style
     type="text/css"
     id="style2-82">
	.st0{fill-rule:evenodd;clip-rule:evenodd;fill:#001E61;}
</style><style
     type="text/css"
     id="style2-1">
	.st0{fill-rule:evenodd;clip-rule:evenodd;fill:#001E61;}
</style></svg>
