<?xml version="1.0" encoding="UTF-8" standalone="no"?>
<svg
   width="26.466524mm"
   height="26.466524mm"
   viewBox="0 0 100.03096 100.03096"
   version="1.1"
   id="svg1"
   xmlns="http://www.w3.org/2000/svg">
  <rect
     style="fill:#a6193c;fill-opacity:1"
     id="rect1"
     width="100.03096"
     height="100.03096"
     x="0"
     y="0" />
  <g transform="translate(23.0055,20.8902) scale(0.32362)">
    <path d="m41.465 0.38972h97.377c15.493 0 28.08 12.71 28.08 28.325v97.143c0 15.477-12.724 28.19-28.078 28.19h-87.003v-12.852h86.173c9.2669 0 16.184-7.0464 16.184-16.028v-95.761c0-9.2589-6.9167-16.168-16.184-16.168h-95.857c-9.2689 0-16.184 7.0464-16.184 16.168v56.792c-4.2893 3.8703-8.7142 7.8763-12.174 12.437-0.13766 0.27531-0.41497 0.55262-0.55262 0.69027v-70.612c0-15.615 12.726-28.327 28.218-28.327z" style="fill:#f68b1f" />
    <path d="m35.655 22.913c27.94 1.2429 54.085 25.01 54.498 53.614 0.27931-31.23 29.327-52.788 54.36-53.754v35.511c-18.119 0.55461-40.389-0.13567-54.498 18.933-59.892 0-94.059 54.444-89.632 102.39h38.454c-5.5362-38.554 9.1272-90.235 51.178-102.39 31.122 0 52.838 29.433 54.498 54.304h-35.41c-0.55262-19.621-1.2449-41.453-19.088-54.304-13.556-18.516-34.027-18.24-54.36-18.793z" style="fill:#ffffff" />
  </g>
</svg>
