<?xml version="1.0" encoding="UTF-8" standalone="no"?>
<!-- Created with Inkscape (http://www.inkscape.org/) -->

<svg
   width="26.466524mm"
   height="26.466518mm"
   viewBox="0 0 100.03096 100.03094"
   version="1.1"
   id="svg1"
   xml:space="preserve"
   xmlns:xlink="http://www.w3.org/1999/xlink"
   xmlns="http://www.w3.org/2000/svg"
   xmlns:svg="http://www.w3.org/2000/svg"><defs
     id="defs1"><rect
       id="SVGID_1_"
       x="56.400002"
       y="70.099998"
       width="911.59998"
       height="171" /></defs><g
     id="g9-8-6-4-6-4-7"
     style="display:inline"
     transform="matrix(0.96762006,0,0,0.96762006,-252.64906,-24.356558)"><rect
       style="fill:#010050;fill-opacity:1;stroke:none;stroke-opacity:1"
       id="rect1-5-2-2-8-3-1-1-7"
       width="103.37833"
       height="103.37833"
       x="261.10352"
       y="25.171614"
       ry="6.6953231e-07" /><g
       id="g34"
       transform="matrix(0.31167827,0,0,0.31167827,266.26301,28.363639)"
       style="display:inline"><defs
         id="defs5" /><clipPath
         id="SVGID_2_"><use
           xlink:href="#SVGID_1_"
           style="overflow:visible"
           id="use7"
           x="0"
           y="0"
           width="100%"
           height="100%" /></clipPath><path
         class="st1"
         d="M 202.6,113.5 181.1,76 C 179,72.3 175,70 170.8,70 h -43 c -4.3,0 -8.2,2.3 -10.3,6 L 96,113.5 c -2.1,3.7 -2.1,8.3 0,12 l 21.5,37.5 c 2.1,3.7 6.1,6 10.3,6 h 15.6 l 5.9,-10.3 h -21.5 c -0.6,0 -1.2,-0.3 -1.5,-0.9 l -21.5,-37.5 c -0.3,-0.5 -0.3,-1.2 0,-1.7 l 21.5,-37.5 c 0.3,-0.5 0.9,-0.9 1.5,-0.9 h 43 c 0.6,0 1.2,0.3 1.5,0.9 l 21.5,37.5 c 0.3,0.5 0.3,1.2 0,1.7 l -12.5,21.8 h 11.8 l 9.6,-16.6 c 2.1,-3.7 2.1,-8.3 -0.1,-12"
         clip-path="url(#SVGID_2_)"
         id="path28"
         style="fill:#0788fe" /><path
         class="st2"
         d="M 164.7,185.6 155.1,169 h -11.8 l 12.5,21.8 c 0.3,0.5 0.3,1.2 0,1.7 L 134.3,230 c -0.3,0.5 -0.9,0.9 -1.5,0.9 h -43 c -0.6,0 -1.2,-0.3 -1.5,-0.9 L 66.8,192.5 c -0.3,-0.5 -0.3,-1.2 0,-1.7 l 21.5,-37.5 c 0.3,-0.5 0.9,-0.9 1.5,-0.9 h 21.5 l -5.9,-10.3 H 89.9 c -4.3,0 -8.2,2.3 -10.3,6 L 58,185.6 c -2.1,3.7 -2.1,8.3 0,12 l 21.5,37.5 c 2.1,3.7 6.1,6 10.3,6 h 43 c 4.3,0 8.2,-2.3 10.3,-6 l 21.5,-37.5 c 2.3,-3.7 2.3,-8.3 0.1,-12"
         clip-path="url(#SVGID_2_)"
         id="path30"
         style="fill:#a06ffe" /><path
         class="st3"
         d="M 240.5,185.6 219,148.2 c -2.1,-3.7 -6.1,-6 -10.3,-6 h -43 c -4.3,0 -8.2,2.3 -10.3,6 l -12,20.8 h 11.8 l 9,-15.7 c 0.3,-0.5 0.9,-0.9 1.5,-0.9 h 43 c 0.6,0 1.2,0.3 1.5,0.9 l 21.5,37.5 c 0.3,0.5 0.3,1.2 0,1.7 L 210.2,230 c -0.3,0.5 -0.9,0.9 -1.5,0.9 h -43 c -0.6,0 -1.2,-0.3 -1.5,-0.9 l -9,-15.6 -5.9,10.3 6.1,10.5 c 2.1,3.7 6.1,6 10.3,6 h 43 c 4.3,0 8.2,-2.3 10.3,-6 l 21.5,-37.5 c 2.2,-3.8 2.2,-8.4 0,-12.1"
         clip-path="url(#SVGID_2_)"
         id="path32"
         style="fill:#00d9cb" /></g></g><style
     type="text/css"
     id="style2">
	.st0{fill-rule:evenodd;clip-rule:evenodd;fill:#001E61;}
</style><style
     type="text/css"
     id="style2-0">
	.st0{clip-path:url(#SVGID_2_);fill:#000051;}
	.st1{clip-path:url(#SVGID_2_);fill:#0788FE;}
	.st2{clip-path:url(#SVGID_2_);fill:#A06FFE;}
	.st3{clip-path:url(#SVGID_2_);fill:#00D9CB;}
</style><style
     type="text/css"
     id="style2-09">
	.st0{fill-rule:evenodd;clip-rule:evenodd;fill:#001E61;}
</style><style
     type="text/css"
     id="style2-8">
	.st0{fill-rule:evenodd;clip-rule:evenodd;fill:#001E61;}
</style><style
     type="text/css"
     id="style2-2">
	.st0{fill-rule:evenodd;clip-rule:evenodd;fill:#001E61;}
</style><style
     type="text/css"
     id="style2-5">
	.st0{fill-rule:evenodd;clip-rule:evenodd;fill:#001E61;}
</style><style
     type="text/css"
     id="style2-094">
	.st0{fill-rule:evenodd;clip-rule:evenodd;fill:#001E61;}
</style><style
     type="text/css"
     id="style2-82">
	.st0{fill-rule:evenodd;clip-rule:evenodd;fill:#001E61;}
</style><style
     type="text/css"
     id="style2-1">
	.st0{fill-rule:evenodd;clip-rule:evenodd;fill:#001E61;}
</style></svg>
