<?xml version="1.0" encoding="UTF-8" standalone="no"?>
<svg
   width="26.466524mm"
   height="26.466524mm"
   viewBox="0 0 100.03096 100.03096"
   version="1.1"
   id="svg1"
   xmlns="http://www.w3.org/2000/svg">
  <rect
     style="fill:#3333cc;fill-opacity:1"
     id="rect1"
     width="100.03096"
     height="100.03096"
     x="0"
     y="0" />
  <g transform="translate(9.5401,11.5292) scale(0.03228)">
    <path d="m 498.69438,883.59851 c -88.23695,0 -165.7785,24.06462 -229.95082,72.19387 l -40.1077,29.41231 L 228.63586,525.30305 L 14.728123,589.47537 L 14.728123,1838.1619 L 231.30971,1838.1619 l 0,-77.5416 l 40.1077,29.4123 c 66.84616,45.4553 144.38771,69.52 229.95082,69.52 c 245.9939,0 446.53239,-219.2554 446.53239,-489.314 c 0,-270.0585 -203.21234,-486.64009 -449.20624,-486.64009 z M 482.6513,1640.2972 c -144.38773,0 -254.01544,-114.9754 -254.01544,-267.3847 c 0,-152.4093 109.62771,-270.0586 254.01544,-270.0586 c 144.38772,0 254.01544,114.9755 254.01544,267.3847 c -2.67385,152.4093 -109.62772,270.0586 -254.01544,270.0586 z" style="fill:#ffffff" />
    <path d="m 1397.1069,1271.3063 l -24.0647,-8.0216 c -101.6062,-37.4338 -144.3877,-61.4984 -144.3877,-114.9753 c 0,-56.1508 56.1507,-77.5416 109.6277,-77.5416 c 53.4769,0 117.6493,18.7169 117.6493,98.9323 l 0,45.4554 l 213.9077,0 l 0,-45.4554 c 0,-179.14772 -136.3662,-307.49236 -331.557,-307.49236 c -211.2338,0 -320.8616,141.71386 -320.8616,283.42776 c 0,200.5385 165.7785,259.3631 299.4709,307.4924 l 13.3692,5.3476 c 101.6062,37.4339 152.4092,64.1724 152.4092,109.6278 c 0,61.4985 -66.8461,82.8893 -125.6707,82.8893 c -66.8462,0 -149.7354,-18.717 -149.7354,-112.3016 l 0,-48.1292 L 993.35605,1490.5618 l 0,48.1292 c 0,192.517 144.38765,320.8616 363.64315,320.8616 c 195.1908,0 339.5785,-120.3231 339.5785,-288.7754 c -2.6739,-189.8432 -168.4523,-251.3416 -299.4708,-299.4709 z" style="fill:#ffffff" />
    <path d="m 2172.5224,1715.1649 l 229.9508,0 l 0,-82.8893 l -328.8831,0 l 141.7138,-139.04 c 114.9755,-112.3016 171.1262,-213.9077 171.1262,-318.1878 c 0,-155.0831 -109.6277,-312.84006 -320.8616,-312.84006 c -157.7569,0 -326.2092,98.93233 -326.2092,312.84006 l 0,37.4339 l 211.2338,0 l 0,-34.76 c 0,-72.1939 40.1078,-109.6277 117.6493,-109.6277 c 50.8031,0 106.9538,29.4123 106.9538,106.9538 c 0,64.1724 -64.1722,133.6924 -109.6277,179.1477 l -208.5601,208.5601 c -72.1938,72.1939 -114.9753,171.1262 -114.9753,272.7323 l 663.114,0 l 0,-82.8892 l -232.6247,0 c -10.6954,0 -21.3907,-8.0215 -21.3907,-21.3907 c 0,-5.3477 8.0215,-16.0431 21.3907,-16.0431 z m 320.8616,21.3908 c 0,16.043 -13.3692,29.4123 -29.4123,29.4123 c -16.0431,0 -29.4123,-13.3693 -29.4123,-29.4123 c 0,-16.0431 13.3692,-29.4123 29.4123,-29.4123 c 16.0431,0 29.4123,13.3692 29.4123,29.4123 z" style="fill:#ffffff" />
  </g>
</svg>
