<?xml version="1.0" encoding="UTF-8" standalone="no"?>
<svg
   width="26.466524mm"
   height="26.466524mm"
   viewBox="0 0 100.03096 100.03096"
   version="1.1"
   id="svg1"
   xmlns="http://www.w3.org/2000/svg">
  <rect
     style="fill:#8edb00;fill-opacity:1"
     id="rect1"
     width="100.03096"
     height="100.03096"
     x="0"
     y="0" />
  <g transform="translate(11.6821,10.3488) scale(0.66667)">
    <path d="M 37.0122,54.9878 C 37.0122,54.9878 38.1696,33.8364 53.9221,26.0761 C 59.8065,23.1751 64.3629,22 69.4066,22 C 78.1418,22 84.148,24.1298 88.8019,27.4347 C 95.3198,32.0493 98,38.3042 98,38.3042 L 85.2322,39.5772 C 85.2322,39.5772 78.7144,29.9562 65.9101,29.7726 C 40.3016,29.3809 37,55 37,55" style="fill:#292929" />
    <path d="M 37.0121,63.0119 C 37.0121,63.0119 38.1695,83.5223 53.9221,91.0475 C 59.8064,93.8605 64.3629,95 69.4066,95 C 78.1418,95 84.148,92.9347 88.8019,89.73 C 95.3198,85.2552 98,79.1899 98,79.1899 L 85.2323,77.9555 C 85.2323,77.9555 78.7144,87.2849 65.9101,87.4629 C 40.3016,87.8427 37,63 37,63" style="fill:#292929" />
    <path d="M 27.0729,61.6107 C 26.7282,52.7676 28.9316,44.9919 31.5781,39.0965 C 40.2068,19.8575 60,16 60,16 C 60,16 50.7927,16.9583 41.1792,21.58 C 30.3718,26.784 19.9212,37.3982 17.4471,53.5318 C 17.1147,55.7274 16.8931,59.5728 17.0532,61.9989 C 17.644,70.6601 20.5859,77.9869 25.0911,83.943 C 30.778,91.4518 37.0557,95.8673 42.5579,98.5724 C 49.611,102.03 59.6061,103 59.6061,103 C 59.6061,103 40.3914,98.9605 31.9719,80.874 C 29.6085,75.7913 27.356,68.9739 27.0729,61.6228" style="fill:#292929" />
  </g>
</svg>
