<?xml version="1.0" encoding="UTF-8" standalone="no"?>
<svg
   width="26.466524mm"
   height="26.466524mm"
   viewBox="0 0 100.03096 100.03096"
   version="1.1"
   id="svg1"
   xmlns="http://www.w3.org/2000/svg">
  <rect
     style="fill:#012148;fill-opacity:1"
     id="rect1"
     width="100.03096"
     height="100.03096"
     x="0"
     y="0" />
  <g transform="translate(21.0158,21.0155) scale(0.08056)">
    <path d="m 359.996230008,204.742455408 c -42.596186493,0 -79.6929614135,15.1127710521 -109.926082641,45.3231549105 c -30.2164471567,30.24070035 -45.3443764546,67.3405069197 -45.3443764546,109.932145939 c 0,43.9710393861 15.1279292979,79.6990247119 45.3443764546,109.915471869 c 30.2331212271,31.6125215939 67.3298961477,46.7298401198 109.926082641,46.7298401198 c 42.5977023176,0 79.6929614135,-15.1173185258 109.90940857,-46.7298401198 c 30.2331212271,-30.2164471567 45.3504397529,-65.9444324825 45.3504397529,-109.915471869 c 0,-42.5916390192 -15.1173185258,-79.691445589 -45.3504397529,-109.932145939 c -30.2164471567,-30.2103838584 -67.3117062527,-45.3231549105 -109.90940857,-45.3231549105" style="fill:#ffffff" />
    <path d="m 359.996230008,177.260555792 l 0,-177.260526262 c -63.1962425209,0 -122.290663731,16.4921714189 -177.255978788,46.7177135231 L 182.74025122,316.03278017 c 9.63306519921,-39.8495123559 31.6125215939,-72.818696948 63.2144324158,-97.5569540764 c 34.3485849589,-27.4818996163 71.4453598795,-41.2152703016 114.041546372,-41.2152703016" style="fill:#ffffff" />
    <path d="m 321.513991422,541.369198778 c -41.2107228278,-9.62700190089 -74.1799074199,-31.594331699 -98.9242278466,-64.5756428877 c -27.4803837917,-32.9813111887 -39.8495123559,-70.0780861093 -39.8495123559,-112.674272602 L 1.91049480094E-05,364.119283288 c 0,63.2083691175 16.484592296,122.289147907 48.0977202198,177.24991549 L 321.513991422,541.369198778" style="fill:#ffffff" />
    <path d="M 538.620998391,406.715469781 C 529.004607262,446.564982137 508.393940462,479.546293326 475.42475587,505.641213452 C 442.443444682,531.742196877 403.961206096,545.490725808 361.365019603,545.490725808 L 361.365019603,720.000030459 c 63.2083691175,0 122.295211205,-15.1173185258 177.255978788,-46.7177135231 l 0,-266.566847155" style="fill:#ffffff" />
    <path d="m 719.992440911,358.630482488 c 0,-63.2098849421 -16.4906555944,-122.298242854 -48.0910505917,-177.262042087 L 405.340606463,181.368440401 c 41.224365249,9.62548607631 74.1980973149,31.604942471 98.9257436712,63.1947266963 c 27.4743204934,34.3789014505 39.8555756542,71.4696130728 39.8555756542,114.06731539 l 175.870515123,0" style="fill:#ffffff" />
  </g>
</svg>
