<?xml version="1.0" encoding="UTF-8" standalone="no"?>
<svg
   width="26.466524mm"
   height="26.466524mm"
   viewBox="0 0 100.03096 100.03096"
   version="1.1"
   id="svg1"
   xmlns="http://www.w3.org/2000/svg">
  <rect
     style="fill:#ffffff;fill-opacity:1"
     id="rect1"
     width="100.03096"
     height="100.03096"
     x="0"
     y="0" />
  <g transform="translate(21.0155,21.0164) scale(0.19228)">
    <path d="M 121.11,284.49 L 121.11,210.86 C 121.113,202.812 124.311,195.095 130.003,189.406 C 135.694,183.716 143.412,180.52 151.46,180.52 L 284.46,180.52 C 286.717,180.525 288.952,180.085 291.038,179.224 C 293.125,178.363 295.02,177.099 296.616,175.503 C 298.213,173.908 299.478,172.013 300.34,169.928 C 301.202,167.842 301.644,165.607 301.64,163.35 L 301.64,17.14 C 301.64,12.5942 299.834,8.23456 296.62,5.02019 C 293.405,1.80581 289.046,0 284.5,0 L 138.26,0 C 133.714,0 129.355,1.80581 126.14,5.02019 C 122.926,8.23456 121.12,12.5942 121.12,17.14 L 121.12,150.14 C 121.129,154.129 120.352,158.08 118.831,161.768 C 117.311,165.455 115.078,168.807 112.26,171.63 L 112.26,171.63 C 106.569,177.322 98.8492,180.52 90.8,180.52 L 17.14,180.52 C 12.5942,180.52 8.23456,182.326 5.02019,185.54 C 1.80582,188.755 0,193.114 0,197.66 L 0,284.49 C 0,289.036 1.80582,293.395 5.02019,296.61 C 8.23456,299.824 12.5942,301.63 17.14,301.63 L 103.98,301.63 C 106.23,301.63 108.459,301.187 110.538,300.325 C 112.617,299.464 114.505,298.201 116.096,296.609 C 117.687,295.017 118.949,293.128 119.809,291.048 C 120.669,288.969 121.111,286.74 121.11,284.49 L 121.11,284.49 Z" style="fill:#0047bb" fill-rule="evenodd" />
  </g>
</svg>
