<?xml version="1.0" encoding="UTF-8" standalone="no"?>
<svg
   width="26.466524mm"
   height="26.466524mm"
   viewBox="0 0 100.03096 100.03096"
   version="1.1"
   id="svg1"
   xmlns="http://www.w3.org/2000/svg">
  <rect
     style="fill:#37498b;fill-opacity:1"
     id="rect1"
     width="100.03096"
     height="100.03096"
     x="0"
     y="0" />
  <g transform="translate(-14.7278,29.1171) scale(0.15371)">
    <path d="M 244.104,87.476 c -4.619,11.761 -9.472,23.564 -14.655,35.479 l -6.832,15.764 l -6.956,-15.764 c -5.292,-11.914 -10.246,-23.718 -14.998,-35.479 l -38.562,0 l 0,3.13 c 4.314,0 7.861,3.545 7.861,7.906 c -0.59,8.139 -1.338,16.28 -2.183,24.442 l -2.493,24.798 c -1.18,11.891 -2.618,23.728 -4.312,35.507 l 12.345,0 c 0.749,-11.779 1.722,-23.616 2.905,-35.507 l 3.798,-37.399 c 5.445,11.398 10.732,22.814 15.813,34.292 l 1.338,3.159 c 5.287,11.839 10.268,23.676 15.042,35.455 l 3.702,0 c 4.646,-11.779 9.549,-23.616 14.656,-35.507 l 2.285,-5.058 c 4.93,-11.521 10.065,-22.896 15.481,-34.271 l 3.927,39.38 c 1.209,11.839 2.16,23.676 2.931,35.455 l 28.346,0 c -1.645,-11.779 -3.086,-23.616 -4.267,-35.507 l -2.488,-24.798 c -1.309,-11.914 -2.258,-23.718 -3.003,-35.479 L 244.104,87.474" style="fill:#ffffff" />
    <path d="M 371.034,173.683 c 3.136,-5.875 6.445,-11.804 9.964,-17.716 L 415.3,98.771 l 0,-2.469 l -75.582,0 l 0,17.637 l 3.027,0.053 c 0,-4.208 3.287,-7.701 7.366,-8.012 c 2.338,-0.051 4.649,-0.181 7.011,-0.181 l 24.418,0 c -3.06,5.808 -6.293,11.633 -9.757,17.439 l -34.583,57.56 l 0,2.461 l 81.614,0 l 0,-10.238 c -5.777,0.455 -11.576,0.662 -17.38,0.662 L 371.034,173.683" style="fill:#ffffff" />
    <path d="M 510.875,183.259 c 0.258,-0.053 0.498,-0.053 0.809,-0.077 c -0.551,-5.877 -0.809,-11.729 -0.809,-17.638 l 0,-21.56 l 33.848,0 l 0,21.56 c 0,5.909 -0.232,11.838 -0.723,17.715 l 26.035,0 c -0.483,-5.877 -0.639,-11.806 -0.639,-17.715 l 0,-51.449 c 0,-5.98 0.155,-11.857 0.639,-17.793 l -33.142,0 l 0,2.78 l 0.765,0 c 3.674,0 6.624,2.975 6.884,6.64 c 0.0940000000001,2.78 0.181,5.551 0.181,8.373 l 0,20.313 l -33.848,0 l 0,-20.313 c 0,-5.98 0.258,-11.857 0.706,-17.793 l -33.125,0 l 0,2.78 l 0.671,0 c 3.7,0 6.693,2.897 6.986,6.571 c 0.043,2.822 0.095,5.619 0.095,8.441 l 0,60.182 c -3.381,0.44 -6.856,0.586 -10.453,0.586 c -3.819,0 -7.537,-0.251 -11.219,-0.922 c -10.421,-1.927 -12.063,-11.632 -12.063,-17.768 l 0,-42.612 c 0,-5.756 0.232,-11.478 0.638,-17.259 l -33.088,0 l 0,2.78 l 0.669,0 c 3.67,0 6.697,2.897 6.981,6.571 c 0.025,2.822 0.103,5.619 0.103,8.441 l 0,37.924 c 0,8.596 2.72,27.421 25.885,30.811 c 7.184,1.023 14.627,1.617 22.095,1.617 C 487.542,184.446 499.304,184.033 510.875,183.259" style="fill:#ffffff" />
    <path d="M 681.435,139.792 L 681.435,139.792 c 0,29.606 -25.57,44.654 -50.78,44.654 c -25.242,0 -50.813,-15.048 -50.813,-44.654 c 0,-29.62 25.57,-44.643 50.813,-44.643 C 655.864,95.149 681.435,110.172 681.435,139.792 z M 656.656,139.792 c -0.027,-16.122 -6.799,-35.119 -26.002,-35.119 c -19.306,0 -26.034,18.997 -26.086,35.119 c 0.052,16.15 6.78,35.07 26.086,35.07 C 649.857,174.862 656.629,155.942 656.656,139.792" style="fill:#ffffff" />
    <path d="M 325.438,114.095 c 0,-5.98 0.232,-11.857 0.719,-17.793 l -34.041,0 l 0,3.08 l 0.771,0 c 4.336,0 7.829,3.648 7.829,8.036 c 0.078,2.212 0.104,4.472 0.104,6.677 l 0,51.449 c 0,5.909 -0.256,11.838 -0.691,17.715 l 26.029,0 c -0.486,-5.877 -0.719,-11.806 -0.719,-17.715 L 325.439,114.095" style="fill:#ffffff" />
  </g>
</svg>
