<?xml version="1.0" encoding="UTF-8" standalone="no"?>
<svg
   width="26.466524mm"
   height="26.466524mm"
   viewBox="0 0 100.03096 100.03096"
   version="1.1"
   id="svg1"
   xmlns="http://www.w3.org/2000/svg">
  <rect
     style="fill:#e30613;fill-opacity:1"
     id="rect1"
     width="100.03096"
     height="100.03096"
     x="0"
     y="0" />
  <g transform="translate(20.9741,20.9740) scale(0.02323)">
    <path d="M 884.67,367.13 c 130.3,0 254.01,28.23 365.33,78.92 c 111.35,-50.7 235.03,-78.92 365.36,-78.92 c 487.58,0 882.86,395.28 882.86,882.9 s -395.28,882.85 -882.86,882.85 c -130.34,0 -254.01,-28.24 -365.36,-78.92 c -111.32,50.68 -235.03,78.92 -365.33,78.92 C 397.06,2132.87 1.78,1737.59 1.78,1250.02 S 397.06,367.13 884.67,367.13 l 0,0 Z M 1250,454.93 c 439.13,0 795.09,355.95 795.09,795.09 s -355.96,795.06 -795.09,795.06 s -795.09,-355.98 -795.09,-795.06 s 356,-795.09 795.09,-795.09 l 0,0 Z" style="fill:#ffffff" fill-rule="evenodd" />
    <path d="M 1254,881.09 c 203.69,0 368.88,165.21 368.88,368.93 s -165.2,368.85 -368.88,368.85 s -368.92,-165.2 -368.92,-368.85 s 165.2,-368.93 368.92,-368.93 l 0,0 Z" style="fill:#ffffff" fill-rule="evenodd" />
  </g>
</svg>
