<?xml version="1.0" encoding="UTF-8" standalone="no"?>
<svg
   width="26.466524mm"
   height="26.466524mm"
   viewBox="0 0 100.03096 100.03096"
   version="1.1"
   id="svg1"
   xmlns="http://www.w3.org/2000/svg">
  <rect
     style="fill:#1e3c3c;fill-opacity:1"
     id="rect1"
     width="100.03096"
     height="100.03096"
     x="0"
     y="0" />
  <g transform="translate(20.9864,32.2746) scale(0.07801)">
    <path d="m 604.14969082,372.46824586 c -3.91046927,0 -7.94708271,-0.88300919 -11.60526364,-2.64902757 c -13.37128202,-6.43335267 -19.04776967,-22.57980643 -12.48827283,-35.95108845 L 692.70289816,100.249127 c 6.43335267,-13.37128202 22.57980643,-19.04776967 35.95108845,-12.48827283 c 13.37128202,6.43335267 19.04776967,22.57980643 12.48827283,35.95108845 l -112.64674381,233.61900284 c -4.79347846,9.58695692 -14.38043538,15.1373004 -24.34582481,15.1373004 z" style="fill:#ffffff" />
    <path d="m 604.14969082,372.46824586 c -6.18106433,0 -12.36212866,-2.14445089 -17.40789546,-6.43335267 l -375.9096266,-318.64017342 c -11.3529753,-9.58695692 -12.74056117,-26.61641987 -3.15360425,-37.843251 c 9.58695692,-11.3529753 26.61641987,-12.74056117 37.843251,-3.15360425 l 375.9096266,318.64017342 c 11.3529753,9.58695692 12.74056117,26.61641987 3.15360425,37.843251 c -5.29805514,6.43335267 -12.86670534,9.58695692 -20.43535554,9.58695692 z" style="fill:#ffffff" />
    <path d="m 27.29240141,454.84038887 c -10.21767777,0 -19.93077886,-5.80263182 -24.47196898,-15.64187708 c -6.18106433,-13.49742619 -0.25228834,-29.51773578 13.24513785,-35.69880011 L 705.5696035,87.50856583 c 13.49742619,-6.18106433 29.51773578,-0.25228834 35.69880011,13.24513785 c 6.18106433,13.49742619 0.25228834,29.51773578 -13.24513785,35.69880011 L 38.51923254,452.31750547 c -3.65818093,1.76601838 -7.44250603,2.5228834 -11.22683113,2.5228834 z" style="fill:#ffffff" />
    <path d="m 27.29240141,454.84038887 c -4.03661344,0 -8.19937105,-0.88300919 -11.98369615,-2.90131591 c -13.24513785,-6.68564101 -18.66933716,-22.83209477 -11.98369615,-36.07723262 L 204.27267192,14.84952391 c 6.68564101,-13.24513785 22.83209477,-18.66933716 36.07723262,-11.98369615 c 13.24513785,6.68564101 18.66933716,22.83209477 11.98369615,36.07723262 L 51.38593788,439.95537681 c -4.79347846,9.46081275 -14.25429121,14.88501206 -24.09353647,14.88501206 z" style="fill:#00ff5f" />
  </g>
</svg>
