<?xml version="1.0" encoding="UTF-8" standalone="no"?>
<!-- Created with Inkscape (http://www.inkscape.org/) -->

<svg
   width="26.466518mm"
   height="26.466524mm"
   viewBox="0 0 100.03094 100.03096"
   version="1.1"
   id="svg1"
   xml:space="preserve"
   xmlns="http://www.w3.org/2000/svg"
   xmlns:svg="http://www.w3.org/2000/svg"><defs
     id="defs1" /><g
     id="g9-2-3"
     style="display:inline"
     transform="matrix(0.96762006,0,0,0.96762006,-252.64901,-24.356567)"><rect
       style="display:inline;fill:#820ad1;fill-opacity:1"
       id="rect1-5-2-0-5"
       width="103.37833"
       height="103.37833"
       x="261.10352"
       y="25.171614"
       ry="6.6953231e-07" /><g
       id="g73"
       transform="matrix(1.0369588,0,0,1.0369588,282.72089,60.269436)"><path
         d="M 10.4699,3.05246 C 12.304,1.12557 14.7369,0 17.5951,0 c 5.5681,0 9.2598,4.06542 9.9661,10.1557 0.229,1.9778 0.2269,4.7662 0.2246,7.9959 -3e-4,0.3312 -5e-4,0.6671 -5e-4,1.0072 v 12.099 H 20.1281 V 22.309 c 0,0 -0.0156,-7.6589 -0.0624,-9.0903 C 19.8602,6.98449 16.1695,3.06722 10.4691,3.06301 8.74925,4.88006 7.82773,7.10172 7.69183,10.4987 c -0.01868,0.4738 -0.01398,2.1532 -0.00779,4.3666 0.00321,1.1468 0.00682,2.437 0.00779,3.7771 0.00567,5.8329 0,12.6167 0,12.6167 H 0.0346685 V 17.487 c 0,-0.4719 -0.0086,-0.9478 -0.0172333,-1.4256 C 6.75514e-5,15.1003 -0.0174352,14.1318 0.0346685,13.1728 0.121182,11.5741 0.397742,10.0025 1.14374,8.54252 2.85132,5.1978 6.35016,3.04426 10.0802,3.04426 c 0.1303,0 0.2607,0.00274 0.3897,0.0082 z"
         class="sc-XKpuV cIXxpN"
         id="path2-3"
         style="fill:#f4f4f4;fill-opacity:1;stroke:none" /><path
         d="m 57.9653,18.8272 c 0.0521,-0.959 0.0346,-1.9276 0.0173,-2.8886 -0.0087,-0.4778 -0.0173,-0.9537 -0.0173,-1.4256 V 0.740867 h -7.6571 c 0,0 -0.0057,6.783803 0,12.616633 9e-4,1.3401 0.0045,2.6302 0.0077,3.777 0.0062,2.2135 0.0109,3.8929 -0.0077,4.3667 -0.1359,3.3971 -1.0575,5.6187 -2.7773,7.4358 C 41.8306,28.9327 38.14,25.0154 37.9344,18.7813 37.8876,17.3499 37.8678,13.7978 37.8678,9.68381 V 0.735023 l -7.6515,0.00715 V 12.8412 c 0,0.3401 -3e-4,0.6759 -5e-4,1.0072 -0.0024,3.2297 -0.0044,6.018 0.2246,7.9959 C 31.1452,27.9346 34.8369,32 40.405,32 c 2.8583,0 5.2912,-1.1256 7.1253,-3.0525 0.1289,0.0055 0.2592,0.0082 0.3895,0.0082 3.73,0 7.2289,-2.1535 8.9365,-5.4982 0.746,-1.4601 1.0225,-3.0316 1.109,-4.6303 z"
         class="sc-XKpuV cIXxpN"
         id="path4-8"
         style="fill:#f4f4f4;fill-opacity:1;stroke:none" /></g></g><style
     type="text/css"
     id="style2">
	.st0{fill-rule:evenodd;clip-rule:evenodd;fill:#001E61;}
</style><style
     type="text/css"
     id="style2-0">
	.st0{clip-path:url(#SVGID_2_);fill:#000051;}
	.st1{clip-path:url(#SVGID_2_);fill:#0788FE;}
	.st2{clip-path:url(#SVGID_2_);fill:#A06FFE;}
	.st3{clip-path:url(#SVGID_2_);fill:#00D9CB;}
</style><style
     type="text/css"
     id="style2-09">
	.st0{fill-rule:evenodd;clip-rule:evenodd;fill:#001E61;}
</style><style
     type="text/css"
     id="style2-8">
	.st0{fill-rule:evenodd;clip-rule:evenodd;fill:#001E61;}
</style><style
     type="text/css"
     id="style2-2">
	.st0{fill-rule:evenodd;clip-rule:evenodd;fill:#001E61;}
</style><style
     type="text/css"
     id="style2-5">
	.st0{fill-rule:evenodd;clip-rule:evenodd;fill:#001E61;}
</style><style
     type="text/css"
     id="style2-094">
	.st0{fill-rule:evenodd;clip-rule:evenodd;fill:#001E61;}
</style><style
     type="text/css"
     id="style2-82">
	.st0{fill-rule:evenodd;clip-rule:evenodd;fill:#001E61;}
</style><style
     type="text/css"
     id="style2-1">
	.st0{fill-rule:evenodd;clip-rule:evenodd;fill:#001E61;}
</style><style
     type="text/css"
     id="style2-3">
	.st0{enable-background:new    ;}
	.st1{clip-path:url(#SVGID_1_);}
	.st2{clip-path:url(#SVGID_2_);}
	.st3{clip-path:url(#SVGID_3_);fill:#5BC9E1;}
	.st4{clip-path:url(#SVGID_4_);}
	.st5{opacity:0.75;clip-path:url(#SVGID_5_);enable-background:new    ;}
	.st6{clip-path:url(#SVGID_6_);}
	.st7{clip-path:url(#SVGID_7_);}
	.st8{clip-path:url(#SVGID_8_);}
	.st9{clip-path:url(#SVGID_5_);fill:#5BC9E1;}
	.st10{clip-path:url(#SVGID_5_);fill:#5C73B8;}
	.st11{clip-path:url(#SVGID_10_);}
	.st12{opacity:0.75;clip-path:url(#SVGID_11_);enable-background:new    ;}
	.st13{clip-path:url(#SVGID_12_);}
	.st14{clip-path:url(#SVGID_13_);}
	.st15{clip-path:url(#SVGID_14_);}
	.st16{clip-path:url(#SVGID_16_);}
	.st17{opacity:0.75;clip-path:url(#SVGID_17_);enable-background:new    ;}
	.st18{clip-path:url(#SVGID_18_);}
	.st19{clip-path:url(#SVGID_19_);}
	.st20{clip-path:url(#SVGID_20_);}
	.st21{clip-path:url(#SVGID_17_);fill:#5C73B8;}
</style><style
     type="text/css"
     id="style2-57">
	.st0{enable-background:new    ;}
	.st1{clip-path:url(#SVGID_1_);}
	.st2{clip-path:url(#SVGID_2_);}
	.st3{clip-path:url(#SVGID_3_);fill:#5BC9E1;}
	.st4{clip-path:url(#SVGID_4_);}
	.st5{opacity:0.75;clip-path:url(#SVGID_5_);enable-background:new    ;}
	.st6{clip-path:url(#SVGID_6_);}
	.st7{clip-path:url(#SVGID_7_);}
	.st8{clip-path:url(#SVGID_8_);}
	.st9{clip-path:url(#SVGID_5_);fill:#5BC9E1;}
	.st10{clip-path:url(#SVGID_5_);fill:#5C73B8;}
	.st11{clip-path:url(#SVGID_10_);}
	.st12{opacity:0.75;clip-path:url(#SVGID_11_);enable-background:new    ;}
	.st13{clip-path:url(#SVGID_12_);}
	.st14{clip-path:url(#SVGID_13_);}
	.st15{clip-path:url(#SVGID_14_);}
	.st16{clip-path:url(#SVGID_16_);}
	.st17{opacity:0.75;clip-path:url(#SVGID_17_);enable-background:new    ;}
	.st18{clip-path:url(#SVGID_18_);}
	.st19{clip-path:url(#SVGID_19_);}
	.st20{clip-path:url(#SVGID_20_);}
	.st21{clip-path:url(#SVGID_17_);fill:#5C73B8;}
</style><style
     type="text/css"
     id="style2-19">
	.st0{enable-background:new    ;}
	.st1{clip-path:url(#SVGID_1_);}
	.st2{clip-path:url(#SVGID_2_);}
	.st3{clip-path:url(#SVGID_3_);fill:#5BC9E1;}
	.st4{clip-path:url(#SVGID_4_);}
	.st5{opacity:0.75;clip-path:url(#SVGID_5_);enable-background:new    ;}
	.st6{clip-path:url(#SVGID_6_);}
	.st7{clip-path:url(#SVGID_7_);}
	.st8{clip-path:url(#SVGID_8_);}
	.st9{clip-path:url(#SVGID_5_);fill:#5BC9E1;}
	.st10{clip-path:url(#SVGID_5_);fill:#5C73B8;}
	.st11{clip-path:url(#SVGID_10_);}
	.st12{opacity:0.75;clip-path:url(#SVGID_11_);enable-background:new    ;}
	.st13{clip-path:url(#SVGID_12_);}
	.st14{clip-path:url(#SVGID_13_);}
	.st15{clip-path:url(#SVGID_14_);}
	.st16{clip-path:url(#SVGID_16_);}
	.st17{opacity:0.75;clip-path:url(#SVGID_17_);enable-background:new    ;}
	.st18{clip-path:url(#SVGID_18_);}
	.st19{clip-path:url(#SVGID_19_);}
	.st20{clip-path:url(#SVGID_20_);}
	.st21{clip-path:url(#SVGID_17_);fill:#5C73B8;}
</style><style
     type="text/css"
     id="style2-6">
	.st0{enable-background:new    ;}
	.st1{clip-path:url(#SVGID_1_);}
	.st2{clip-path:url(#SVGID_2_);}
	.st3{clip-path:url(#SVGID_3_);fill:#5BC9E1;}
	.st4{clip-path:url(#SVGID_4_);}
	.st5{opacity:0.75;clip-path:url(#SVGID_5_);enable-background:new    ;}
	.st6{clip-path:url(#SVGID_6_);}
	.st7{clip-path:url(#SVGID_7_);}
	.st8{clip-path:url(#SVGID_8_);}
	.st9{clip-path:url(#SVGID_5_);fill:#5BC9E1;}
	.st10{clip-path:url(#SVGID_5_);fill:#5C73B8;}
	.st11{clip-path:url(#SVGID_10_);}
	.st12{opacity:0.75;clip-path:url(#SVGID_11_);enable-background:new    ;}
	.st13{clip-path:url(#SVGID_12_);}
	.st14{clip-path:url(#SVGID_13_);}
	.st15{clip-path:url(#SVGID_14_);}
	.st16{clip-path:url(#SVGID_16_);}
	.st17{opacity:0.75;clip-path:url(#SVGID_17_);enable-background:new    ;}
	.st18{clip-path:url(#SVGID_18_);}
	.st19{clip-path:url(#SVGID_19_);}
	.st20{clip-path:url(#SVGID_20_);}
	.st21{clip-path:url(#SVGID_17_);fill:#5C73B8;}
</style></svg>
