<?xml version="1.0" encoding="UTF-8" standalone="no"?>
<!-- Created with Inkscape (http://www.inkscape.org/) -->

<svg
   width="26.466524mm"
   height="26.466518mm"
   viewBox="0 0 100.03096 100.03094"
   version="1.1"
   id="svg1"
   xml:space="preserve"
   xmlns="http://www.w3.org/2000/svg"
   xmlns:svg="http://www.w3.org/2000/svg"><defs
     id="defs1" /><g
     id="g9-8-6-4-6-4-7-0"
     style="display:inline"
     transform="matrix(0.96762006,0,0,0.96762006,-252.64901,-24.356558)"><rect
       style="fill:#363636;fill-opacity:1;stroke:none;stroke-opacity:1"
       id="rect1-5-2-2-8-3-1-1-7-1"
       width="103.37833"
       height="103.37833"
       x="261.10352"
       y="25.171614"
       ry="6.6953231e-07" /><g
       fill-rule="nonzero"
       fill="none"
       id="g2"
       transform="matrix(1.1800423,0,0,1.1800423,295.68207,48.539762)"><path
         d="m 14.5,32.046 c -3.28,0 -5.946,-2.614 -5.946,-5.83 0,-3.216 2.666,-5.83 5.946,-5.83 3.28,0 5.946,2.614 5.946,5.83 0,3.216 -2.666,5.83 -5.946,5.83 M 14.5,12 C 6.504,12 0,18.377 0,26.216 V 48 h 8.554 v -8.797 l 0.673,0.259 c 1.683,0.644 3.455,0.97 5.273,0.97 7.996,0 14.5,-6.377 14.5,-14.216 C 29,18.377 22.496,12 14.5,12"
         fill="#ffffff"
         id="path1-2" /><path
         fill="#00c5ff"
         d="M 0,8 H 8 V 0 H 0 Z"
         id="path2-0" /></g></g><style
     type="text/css"
     id="style2">
	.st0{fill-rule:evenodd;clip-rule:evenodd;fill:#001E61;}
</style><style
     type="text/css"
     id="style2-0">
	.st0{clip-path:url(#SVGID_2_);fill:#000051;}
	.st1{clip-path:url(#SVGID_2_);fill:#0788FE;}
	.st2{clip-path:url(#SVGID_2_);fill:#A06FFE;}
	.st3{clip-path:url(#SVGID_2_);fill:#00D9CB;}
</style><style
     type="text/css"
     id="style2-09">
	.st0{fill-rule:evenodd;clip-rule:evenodd;fill:#001E61;}
</style><style
     type="text/css"
     id="style2-8">
	.st0{fill-rule:evenodd;clip-rule:evenodd;fill:#001E61;}
</style><style
     type="text/css"
     id="style2-2">
	.st0{fill-rule:evenodd;clip-rule:evenodd;fill:#001E61;}
</style><style
     type="text/css"
     id="style2-5">
	.st0{fill-rule:evenodd;clip-rule:evenodd;fill:#001E61;}
</style><style
     type="text/css"
     id="style2-094">
	.st0{fill-rule:evenodd;clip-rule:evenodd;fill:#001E61;}
</style><style
     type="text/css"
     id="style2-82">
	.st0{fill-rule:evenodd;clip-rule:evenodd;fill:#001E61;}
</style><style
     type="text/css"
     id="style2-1">
	.st0{fill-rule:evenodd;clip-rule:evenodd;fill:#001E61;}
</style></svg>
