<?xml version="1.0" encoding="UTF-8" standalone="no"?>
<svg
   width="26.466524mm"
   height="26.466524mm"
   viewBox="0 0 100.03096 100.03096"
   version="1.1"
   id="svg1"
   xmlns="http://www.w3.org/2000/svg">
  <rect
     style="fill:#11c76f;fill-opacity:1"
     id="rect1"
     width="100.03096"
     height="100.03096"
     x="0"
     y="0" />
  <g transform="translate(10.0163,36.9746) scale(0.16000)">
    <path d="m102.82 131.51h23.386v-68.708h-23.386zm31.45-115.46h-15.725v15.856h15.725zm-88.307 7.7246h-22.579v19.921h20.967c13.306 0 20.967 6.5049 20.967 18.702 0 12.197-7.6607 19.108-20.967 19.108h-20.967v-37.403h-23.389v87.41h23.389v-30.085h22.175c27.019 0 42.744-14.636 42.744-39.843 0-23.58-15.324-37.81-42.34-37.81zm104.03-23.58h-47.175v47.567h47.175zm-7.6607 39.436h-31.45v-31.712h31.45zm137.1-15.856h-21.373v19.921h20.162c13.306 0 20.97 6.5049 20.97 18.702 0 12.197-7.6636 19.108-20.967 19.108h-20.162v-37.403h-23.389v87.41h23.389v-30.085h21.37c27.016 0 42.741-14.636 42.741-39.843 0-23.58-15.725-37.81-42.741-37.81zm196.37 25.207-20.162 51.226-20.159-51.226h-24.193l32.258 82.531-12.502 31.305h24.597l44.356-113.84zm-104.84-0.40656c-14.11 0-24.998 3.2525-37.096 9.3508l7.2571 16.262c8.468-4.8787 16.936-7.318 24.597-7.318 11.291 0 16.936 4.8787 16.936 13.823v1.6262h-22.581c-20.159 0-31.047 9.3508-31.047 24.8 0 15.043 10.483 25.613 28.224 25.613 11.291 0 19.355-4.0656 25.808-10.977v8.9443h22.985v-53.666c-0.80731-17.482-13.309-28.459-35.083-28.459zm13.71 55.292c-2.419 6.9115-9.2724 12.603-18.951 12.603-8.0644 0-12.902-4.0656-12.902-10.571 0-6.5049 4.4344-9.3508 13.306-9.3508h18.548zm-198.79 9.7574c-11.291 0-19.355-8.9443-19.355-22.361 0-13.01 8.0644-21.954 19.355-21.954 8.0644 0 14.113 3.2525 18.548 8.9443l15.728-11.384c-7.26-10.977-19.759-17.482-35.487-17.482-24.597-0.40656-41.53 16.669-41.53 41.876 0 25.207 16.936 41.876 41.533 41.876 16.933 0 29.435-6.9115 36.288-18.295l-16.129-10.977c-4.0307 6.5049-10.483 9.7574-18.951 9.7574z" style="fill:#ffffff" />
  </g>
</svg>
