<?xml version="1.0" encoding="UTF-8" standalone="no"?>
<svg
   width="26.466524mm"
   height="26.466524mm"
   viewBox="0 0 100.03096 100.03096"
   version="1.1"
   id="svg1"
   xmlns="http://www.w3.org/2000/svg">
  <rect
     style="fill:#000000;fill-opacity:1"
     id="rect1"
     width="100.03096"
     height="100.03096"
     x="0"
     y="0" />
  <g transform="translate(8.0626,34.8593) scale(1.30191)">
    <path d="M29.91 1.5c4.696 0 7.805 1.826 7.805 6.724 0 5.157-3.373 6.983-8.179 6.983h-2.774v6.576H51.39L62.948 1.5H29.909z" style="fill:#0084d5" />
    <path d="M29.539 15.207c4.803 0 8.179-1.826 8.179-6.983 0-4.898-3.118-6.724-7.81-6.724h-8.607v20.283h5.464v-6.576h2.774zM26.765 6.08h3.003c1.761 0 2.43.892 2.43 2.23 0 1.535-.716 2.317-2.518 2.317h-2.915V6.08zm-7.339 15.703L13.528 11.43l5.66-9.927h-6.13l-2.595 4.55-2.595-4.55h-5.89l5.54 9.716L1.5 21.783h6.127l2.956-5.184 2.954 5.184h5.889z" style="fill:#ffffff" />
  </g>
</svg>
