<?xml version="1.0" encoding="UTF-8" standalone="no"?>
<svg
   width="26.466524mm"
   height="26.466524mm"
   viewBox="0 0 100.03096 100.03096"
   version="1.1"
   id="svg1"
   xmlns="http://www.w3.org/2000/svg">
  <rect
     style="fill:#0038e5;fill-opacity:1"
     id="rect1"
     width="100.03096"
     height="100.03096"
     x="0"
     y="0" />
  <g transform="translate(10.0172,43.2158) scale(0.16000)">
    <path d="m 335.07,51.161 l 20.794,-36.896 l 20.589,36.792 c -5.839,-2.6495 -13.112,-3.9757 -20.999,-3.9757 c -7.3765,0 -14.444,1.3262 -20.384,4.0757 m -106.64,0.003 l 20.794,-36.896 l 20.59,36.792 c -5.839,-2.6495 -13.112,-3.9757 -20.999,-3.9757 c -7.3765,0 -14.444,1.3262 -20.384,4.0757 m -198.53,0.003 l 20.794,-37.711 l 20.794,37.611 c -5.839,-2.6494 -13.216,-3.9756 -21.103,-3.9756 c -7.3766,0 -14.545,1.3262 -20.488,4.0756 m 470.09,9.174 c 0,15.492 -14.24,24.665 -39.745,24.665 c -18.232,0 -33.701,-3.364 -49.58,-13.353 l 5.225,-9.274 c 14.854,9.3775 27.556,12.638 44.254,12.638 c 18.542,0 28.272,-5.402 28.272,-14.88 c 0,-7.6435 -7.068,-10.804 -20.999,-12.23 l -24.585,-2.4455 c -17.926,-1.7338 -29.296,-8.5624 -29.296,-21.097 c 0,-14.88 16.083,-24.358 41.588,-24.358 c 15.878,0 28.476,3.0569 41.078,10.904 l -5.1205,9.6817 c -10.039,-6.6248 -21.818,-10.193 -37.287,-10.193 c -18.027,0 -28.681,5.7062 -28.681,13.557 c 0,7.44 7.6825,10.293 18.85,11.415 l 25.098,2.4456 c 20.18,1.9376 30.934,9.1738 30.934,22.524 m -93.121,22.831 l -45.788,-81.231 l -10.345,0 l -45.688,81.231 l 12.292,0 l 5.0195,-9.274 c 5.839,-10.804 15.98,-16.51 33.086,-16.51 c 17.108,0 27.862,5.606 33.805,16.614 l 4.916,9.174 l 12.702,0 z m -106.64,0 l -45.788,-81.231 l -10.345,0 l -45.688,81.231 l 12.292,0 l 5.0195,-9.274 c 5.839,-10.804 15.979,-16.51 33.086,-16.51 s 27.862,5.606 33.805,16.614 l 4.9155,9.174 l 12.702,0 z m -105.31,-22.831 c 0,15.492 -14.24,24.665 -39.745,24.665 c -18.232,0 -33.701,-3.364 -49.58,-13.353 l 5.2245,-9.274 c 14.854,9.3775 27.556,12.638 44.254,12.638 c 18.541,0 28.272,-5.402 28.272,-14.88 c 0,-7.6435 -7.068,-10.804 -20.999,-12.23 l -24.585,-2.4455 c -17.926,-1.7338 -29.296,-8.5624 -29.296,-21.097 c 0,-14.88 16.084,-24.358 41.588,-24.358 c 15.878,0 28.476,3.0569 41.078,10.904 l -5.1205,9.6817 c -10.04,-6.6248 -21.818,-10.193 -37.287,-10.193 c -18.028,0 -28.681,5.7062 -28.681,13.557 c 0,7.44 7.682,10.293 18.85,11.415 l 25.098,2.4456 c 20.18,1.9376 30.934,9.1738 30.934,22.524 m -154.68,-48.822 l -40.258,71.65 l 12.292,0 l 5.0196,-9.2745 c 5.839,-10.7 15.878,-16.51 33.086,-16.51 c 17.208,0 27.966,5.8095 33.805,16.614 l 4.916,9.174 l 12.702,0 l -42.817,-76.033 c -2.0485,-3.6683 -4.916,-5.1982 -9.63,-5.1982 l -34.52,0 l 5.2704,5.3594 c 3.2099,3.1938 5.729,4.2188 10.201,4.2188 z" style="fill:#ffffff" fill-rule="evenodd" />
  </g>
</svg>
