<?xml version="1.0" encoding="UTF-8" standalone="no"?>
<svg
   width="26.466524mm"
   height="26.466524mm"
   viewBox="0 0 100.03096 100.03096"
   version="1.1"
   id="svg1"
   xmlns="http://www.w3.org/2000/svg">
  <rect
     style="fill:#ffffff;fill-opacity:1"
     id="rect1"
     width="100.03096"
     height="100.03096"
     x="0"
     y="0" />
  <g transform="translate(20.7506,31.3002) scale(0.02337)">
    <path d="m 969.1091,483.10032 l 218.139,92.77888 C 959.06322,668.65812 735.9207,778.96872 525.26764,904.40642 C 455.45076,866.78292 379.8158,831.68052 307.12866,799.09932 C 520.2641,678.74272 740.92424,570.91445 969.1091,483.1779 M 695.85356,387.37361 A 3753.05,3753.05 0 0,0 11.337793,680.79842 c 67.683592,25.0565 137.927137,52.673 205.571937,80.2895 C 427.524,638.21012 650.70531,532.90303 881.33376,450.17002 C 821.13609,427.5959 758.45604,407.50415 695.77599,387.48998" style="fill:#3366cc" />
    <path d="M 1468.1059,475.18774 C 1280.0658,384.93002 1086.9833,309.68293 886.37609,247.00288 c -69.81689,20.05297 -140.40952,42.66588 -208.1319,65.16243 c 205.57194,60.19767 406.21791,137.92714 599.26161,230.66724 c 60.1977,-22.57413 125.3601,-47.63064 190.5613,-67.6836 m 303.432,-93.08918 C 1580.9377,299.32676 1382.8517,229.122 1179.7234,173.92788 a 2318.31,2318.31 0 0,0 -190.56134,45.14825 c 200.60724,57.67651 396.17204,132.88481 584.25094,221.08681 c 65.1625,-20.05296 132.8848,-40.10593 198.0861,-57.67651 M 2262.9324,547.487 c -481.4263,160.88912 -930.1937,391.59512 -1336.45039,682.4601 c 100.30359,62.68 200.60719,127.8812 298.38959,198.086 c 383.6438,-303.3932 809.9147,-559.19448 1268.7668,-749.75578 c -77.7295,-47.6307 -152.9378,-90.2577 -230.6673,-130.40244 M 1932.0003,389.93357 c -498.9968,132.8848 -967.89475,345.98145 -1391.68324,626.87803 c 95.30005,47.6306 188.04014,97.7436 280.81903,150.4942 C 1234.9175,881.44442 1696.252,658.22432 2187.7241,510.25133 A 5870.05,5870.05 0 0,0 1931.9615,389.89478" style="fill:#e2173e" />
  </g>
</svg>
