<?xml version="1.0" encoding="UTF-8" standalone="no"?>
<!-- Created with Inkscape (http://www.inkscape.org/) -->

<svg
   width="26.466524mm"
   height="26.466518mm"
   viewBox="0 0 100.03096 100.03094"
   version="1.1"
   id="svg1"
   xml:space="preserve"
   xmlns:xlink="http://www.w3.org/1999/xlink"
   xmlns="http://www.w3.org/2000/svg"
   xmlns:svg="http://www.w3.org/2000/svg"><defs
     id="defs1"><linearGradient
       id="linearGradient6"><stop
         style="stop-color:#d94d5b;stop-opacity:1;"
         offset="0.5"
         id="stop5" /><stop
         style="stop-color:#cf2032;stop-opacity:1;"
         offset="0.5"
         id="stop6" /></linearGradient><linearGradient
       xlink:href="#linearGradient6"
       id="linearGradient2-2-9"
       x1="312.79266"
       y1="25.171572"
       x2="312.79266"
       y2="128.54999"
       gradientUnits="userSpaceOnUse" /><clipPath
       clipPathUnits="userSpaceOnUse"
       id="clipPath4"><path
         d="M 0,595.28 H 841.89 V 0 H 0 Z"
         transform="translate(-399.40531,-367.46971)"
         id="path4-3" /></clipPath></defs><g
     id="g9-8-6-4"
     style="display:inline"
     transform="matrix(0.96762006,0,0,0.96762006,-252.64905,-24.356558)"><rect
       style="fill:url(#linearGradient2-2-9);fill-opacity:1"
       id="rect1-5-2-2-8-3"
       width="103.37833"
       height="103.37833"
       x="261.10352"
       y="25.171614"
       ry="6.6953231e-07" /><g
       id="g10"
       transform="matrix(0.40014966,0,0,0.40014966,140.68818,-2.5166335)"><path
         id="path1"
         d="m 425.19068,268.18867 h -9.88405 v -50.6479 h 9.88405 z"
         style="fill:#ffffff;fill-opacity:1;fill-rule:nonzero;stroke:none;stroke-width:1.37795" /><path
         id="path2-9"
         d="m 450.36998,268.18867 h -16.18955 v -69.519 h 16.18955 z"
         style="fill:#ffffff;fill-opacity:1;fill-rule:nonzero;stroke:none;stroke-width:1.37795" /><path
         id="path3"
         d="m 0,0 c 0,0 11.845,11.58 31.809,7.77 0,0 8.783,-1.368 15.515,-7.348 0,0 1.002,-0.938 1.773,-0.168 0,0 0.975,0.766 -0.112,1.912 0,0 -5.786,8.029 -17.217,11.578 0,0 -15.696,5.621 -31.824,-1.973 0,0 -9.925,-4.113 -15.43,-15.322 0,0 -7.849,-2.535 -13.732,-5.838 0,0 -1.74,-0.685 -1.082,-2.039 0,0 0.563,-0.968 2.084,-0.248 0,0 5.464,1.885 10.732,3.061 0,0 -4.237,-10.987 0.186,-24.617 1.969,-6.073 5.561,-12.252 11.049,-17.219 0,0 0.894,-0.94 1.869,-0.297 0,0 0.847,0.615 0.251,1.621 0,0 -4.377,6.588 -6.078,15.955 -1.416,7.643 -0.748,18.192 4.558,26.554 0,0 20.2,2.819 37.417,-3.665 0,0 29.247,-9.542 21.884,-27.242 0,0 -2.141,-6.153 -10.213,-11.709 0,0 -1.353,-0.789 -0.618,-1.918 0,0 0.61,-0.881 1.992,-0.319 0,0 12.364,4.024 17.699,13.956 0,0 10.825,16.562 -14.699,30.076 0,0 -7.019,3.751 -16.045,5.755 0,0 -16.252,4.022 -31.768,1.684"
         style="fill:#ffffff;fill-opacity:1;fill-rule:nonzero;stroke:none"
         transform="matrix(1.3779513,0,0,-1.3779513,406.43857,150.24754)"
         clip-path="url(#clipPath4)" /></g></g><style
     type="text/css"
     id="style2">
	.st0{fill-rule:evenodd;clip-rule:evenodd;fill:#001E61;}
</style><style
     type="text/css"
     id="style2-0">
	.st0{clip-path:url(#SVGID_2_);fill:#000051;}
	.st1{clip-path:url(#SVGID_2_);fill:#0788FE;}
	.st2{clip-path:url(#SVGID_2_);fill:#A06FFE;}
	.st3{clip-path:url(#SVGID_2_);fill:#00D9CB;}
</style><style
     type="text/css"
     id="style2-09">
	.st0{fill-rule:evenodd;clip-rule:evenodd;fill:#001E61;}
</style><style
     type="text/css"
     id="style2-8">
	.st0{fill-rule:evenodd;clip-rule:evenodd;fill:#001E61;}
</style><style
     type="text/css"
     id="style2-2">
	.st0{fill-rule:evenodd;clip-rule:evenodd;fill:#001E61;}
</style><style
     type="text/css"
     id="style2-5">
	.st0{fill-rule:evenodd;clip-rule:evenodd;fill:#001E61;}
</style><style
     type="text/css"
     id="style2-094">
	.st0{fill-rule:evenodd;clip-rule:evenodd;fill:#001E61;}
</style><style
     type="text/css"
     id="style2-82">
	.st0{fill-rule:evenodd;clip-rule:evenodd;fill:#001E61;}
</style><style
     type="text/css"
     id="style2-1">
	.st0{fill-rule:evenodd;clip-rule:evenodd;fill:#001E61;}
</style></svg>
