<?xml version="1.0" encoding="UTF-8" standalone="no"?>
<svg
   width="26.466524mm"
   height="26.466524mm"
   viewBox="0 0 100.03096 100.03096"
   version="1.1"
   id="svg1"
   xmlns="http://www.w3.org/2000/svg">
  <rect
     style="fill:#173e7d;fill-opacity:1"
     id="rect1"
     width="100.03096"
     height="100.03096"
     x="0"
     y="0" />
  <g transform="translate(20.9535,20.6534) scale(0.00615)">
    <path d="m 1036.75559074,778.232570963 l -115.481602815,739.006032535 c 1639.80064723,333.105349373 3102.56761622,1159.58012067 4224.22556039,2319.16024135 l 1687.06044508,-1107.5562303 c 0,0 194.565538736,-131.298389999 285.083296718,-21.7242619157 c 0,0 88.2309935697,85.3725380545 -81.3707003332,267.932563626 l -1385.20754267,1436.85030565 c 975.686149195,1217.70204948 1608.54820026,2720.48739568 1752.80492193,4361.81255252 l 789.124285901,0 l 1250.86013346,-7995.86233087 z" style="fill:#00adef" />
    <path d="M 2652.06880239,6473.60990319 L 2574.69993978,6380.23368969 L 4378.57593359,4353.5887294 c -971.303184071,-960.441053113 -2212.06344138,-1647.99488637 -3598.03323886,-1937.84227562 l -735.004194813,4699.30086702 c -128.439934484,881.166553491 32.0147017704,1658.47588993 1500.68914549,1658.47588993 l 4945.12804133,0.190563701013 c -137.20586473,-1386.92261598 -666.972953551,-2660.07870246 -1477.63093767,-3705.32060253 z" style="fill:#ffffff" />
  </g>
</svg>
