<?xml version="1.0" encoding="UTF-8" standalone="no"?>
<svg
   width="26.466524mm"
   height="26.466524mm"
   viewBox="0 0 100.03096 100.03096"
   version="1.1"
   id="svg1"
   xmlns="http://www.w3.org/2000/svg">
  <rect
     style="fill:#255be3;fill-opacity:1"
     id="rect1"
     width="100.03096"
     height="100.03096"
     x="0"
     y="0" />
  <g transform="translate(10.0148,27.0622) scale(1.43056)">
    <path d="M 0.000499999999999,21.7796 C 0.000499999999999,16.0056 4.7285,11.5106 10.8895,11.5106 C 14.4555,11.5106 17.7105,13.0986 19.5705,15.5016 L 16.8965,18.1756 C 16.1875,17.2676 15.2825,16.5316 14.2495,16.0216 C 13.2165,15.5116 12.0805,15.2416 10.9285,15.2306 C 7.2475,15.2306 4.3015,17.9826 4.3015,21.7796 C 4.3015,25.6166 7.2475,28.3686 10.9285,28.3686 C 12.1225,28.3666 13.2995,28.0896 14.3685,27.5586 C 15.4365,27.0276 16.3685,26.2566 17.0905,25.3066 L 19.7255,27.9036 C 17.9435,30.4226 14.5325,32.0886 10.8895,32.0886 C 4.7285,32.0886 0.000499999999999,27.5936 0.000499999999999,21.7796 Z" style="fill:#ffffff" />
    <path d="M 23.2135,12.2076 L 27.4375,12.2076 L 27.4375,31.3906 L 23.2135,31.3906 Z" style="fill:#ffffff" />
    <path d="M 35.3055,26.2366 L 35.3055,15.7736 L 30.6935,15.7736 L 30.6935,12.2076 L 35.4985,12.2076 L 35.4985,8.0996 L 39.4515,6.1616 L 39.4515,12.2076 L 45.7305,12.2076 L 45.7305,15.7736 L 39.4515,15.7736 L 39.4515,25.5396 C 39.4515,27.4766 40.5375,28.3296 42.5915,28.3296 C 43.6595,28.3346 44.7175,28.1106 45.6915,27.6706 L 45.6915,31.3136 C 44.4705,31.8496 43.1485,32.1136 41.8155,32.0886 C 38.0565,32.0886 35.3055,30.0346 35.3055,26.2366 Z" style="fill:#ffffff" />
    <path d="M 49.0635,12.2076 L 53.2875,12.2076 L 53.2875,31.3906 L 49.0635,31.3906 Z" style="fill:#ffffff" />
    <path d="M 38.2115,-0.000399999999999 C 41.6815,-0.0084 45.1015,0.8186 48.1835,2.4106 C 51.2665,4.0026 53.9205,6.3126 55.9225,9.1466 L 51.0005,9.1466 C 49.3875,7.3526 47.4155,5.9196 45.2125,4.9376 C 43.0085,3.9566 40.6235,3.4486 38.2115,3.4486 C 35.7995,3.4486 33.4145,3.9566 31.2115,4.9376 C 29.0085,5.9196 27.0365,7.3526 25.4225,9.1466 L 20.5015,9.1466 C 22.5025,6.3126 25.1575,4.0026 28.2395,2.4106 C 31.3225,0.8186 34.7425,-0.0084 38.2115,-0.000399999999999 Z" style="fill:#ff3c28" />
  </g>
</svg>
