<?xml version="1.0" encoding="UTF-8" standalone="no"?>
<svg
   width="26.466524mm"
   height="26.466524mm"
   viewBox="0 0 100.03096 100.03096"
   version="1.1"
   id="svg1"
   xmlns="http://www.w3.org/2000/svg">
  <rect
     style="fill:#ffffff;fill-opacity:1"
     id="rect1"
     width="100.03096"
     height="100.03096"
     x="0"
     y="0" />
  <g transform="translate(29.6187,-64.2514) scale(0.09141)">
    <path d="m 430.618210942,1107.64818668 l -256.97440544,259.036998243 c -4.4700617855,4.5167117035 -11.7222913592,4.5167117035 -16.1703610405,0 L 3.3399495,1211.38094362 c -4.47132466542,-4.5167117035 -4.47132466542,-11.8107595965 0,-16.280821382 L 260.244380063,936.157256867 c 4.471727854,-4.51732814885 11.722457966,-4.51732814885 16.170860861,0 l 154.202970018,155.421699125 c 4.401752977,4.4467368265 4.401752977,11.622493856 0,16.0692306825 z" style="fill:#2dcd69" />
    <path d="M 434.213586765,1283.58502028 L 157.014442589,1366.21368753 L 3.13575614464,1211.14436189 L 281.933259796,1130.04514552 Z" style="fill:#ffffff" />
    <path d="M 442.9704428,1304.85405075 L 185.972712401,1563.86772403 c -4.4700617855,4.5167117035 -11.722457966,4.5167117035 -16.170860861,0 L 15.6920813949,1408.56348273 c -4.47132799756,-4.5167117035 -4.47132799756,-11.8107595965 0,-16.280821382 L 272.596611922,1133.34062901 c 4.471727854,-4.518377772 11.722457966,-4.518377772 16.170860861,0 l 154.202970017,155.420866091 c 4.401752977,4.4467368265 4.401752977,11.645818815 0,16.0925556415 z" style="fill:#2dcd69" />
  </g>
</svg>
