<?xml version="1.0" encoding="UTF-8" standalone="no"?>
<svg
   width="26.466524mm"
   height="26.466524mm"
   viewBox="0 0 100.03096 100.03096"
   version="1.1"
   id="svg1"
   xmlns="http://www.w3.org/2000/svg">
  <rect
     style="fill:#ffffff;fill-opacity:1"
     id="rect1"
     width="100.03096"
     height="100.03096"
     x="0"
     y="0" />
  <g transform="translate(20.8690,20.7769) scale(0.02337)">
    <path d="M 1251.12339967,10.2062745048 L 1845.69033592,611.421262278 c -425.658540168,-140.745187752 -823.735362728,-136.706514778 -1196.55643058,0 l 601.989494326,-601.214987773" style="fill:#fbc707" />
    <path d="M 9.29063287854,1251.01463788 L 327.073557218,1562.73764459 C 709.305979151,1152.94060772 1344.69209833,785.673020609 2289.14786739,1047.44401948 L 2041.40594306,794.759423992 C 1117.48070577,491.072228179 497.108286177,748.528468143 9.29063287854,1251.01463788 Z M 438.556079385,1679.16283791 L 810.167744258,2050.77450279 c 383.204830791,-424.713006931 878.524982478,-684.41213969 1523.56922281,-654.025584469 l 151.111848024,-146.164290387 C 1718.46114266,933.479167161 981.976264251,1133.32873357 438.556079385,1679.16283791 Z M 921.630720518,2159.7746948 L 1248.6337398,2491.80727168 L 2182.58847047,1550.34065326 C 1737.50862875,1591.14029028 1307.21282221,1728.87785163 921.630720518,2159.7746948" style="fill:#00a650" />
  </g>
</svg>
