<?xml version="1.0" encoding="UTF-8" standalone="no"?>
<svg
   width="26.466524mm"
   height="26.466524mm"
   viewBox="0 0 100.03096 100.03096"
   version="1.1"
   id="svg1"
   xmlns="http://www.w3.org/2000/svg">
  <rect
     style="fill:#ef8124;fill-opacity:1"
     id="rect1"
     width="100.03096"
     height="100.03096"
     x="0"
     y="0" />
  <g transform="translate(6.2461,6.5922) scale(0.03499)">
    <path d="M 1993.1427,1034.0872 L 1580.6878,627.62469 c -8.3523,-8.1672 -25.7972,-8.23661 -34.1495,0 L 1250.784,919.67712 L 955.37679,627.99487 c -8.72248,-8.65307 -25.40391,-8.58365 -34.05697,0 L 508.79546,1034.4112 c -55.85159,55.0418 -86.66944,128.3614 -86.66944,206.401 c 0,78.0395 30.81785,151.3129 86.66944,206.2853 l 412.52436,406.4857 c 8.28287,8.2135 25.10314,8.8845 34.05697,0 l 295.77741,-292.0755 l 295.4072,291.6822 c 9.995,9.9256 23.9001,10.1107 34.0801,0 l 412.5244,-406.4163 c 55.8516,-55.0418 86.6695,-128.3615 86.6695,-206.401 c 0,-78.0395 -30.8411,-151.313 -86.6695,-206.2854 m -135.7652,278.6333 l -293.7876,289.2992 l -176.6474,-174.6114 l 69.2245,-68.3453 c 113.6929,-124.6828 -31.7896,-233.5864 -31.7896,-233.5864 c -0.9487,-0.2314 -1.5965,-0.6247 -2.2443,-1.0643 l -483.78486,478.047 l -293.62572,-289.2992 c -40.46579,-39.8411 -40.51207,-104.7391 -0.11569,-144.6959 l 293.74141,-289.36855 l 176.67056,174.63455 l -69.317,68.4147 c -113.6467,124.6827 31.9052,233.5864 31.9052,233.5864 c 0.8792,0.2314 1.4576,0.6247 2.2443,1.0411 L 1563.59,878.67919 L 1857.262,1167.9784 c 40.4194,39.8411 40.4657,104.8316 0.1156,144.7421" style="fill:#005c46" />
  </g>
</svg>
