<?xml version="1.0" encoding="UTF-8" standalone="no"?>
<svg
   width="26.466524mm"
   height="26.466524mm"
   viewBox="0 0 100.03096 100.03096"
   version="1.1"
   id="svg1"
   xmlns="http://www.w3.org/2000/svg">
  <rect
     style="fill:#f37124;fill-opacity:1"
     id="rect1"
     width="100.03096"
     height="100.03096"
     x="0"
     y="0" />
  <g transform="translate(10.0155,34.3114) scale(0.22976)">
    <path d="M 190.2,38.75 l 27.97,-10.3 L 218.17,0.97 l -33.85,26.49 c -2.13,1.64 -3.43,3.27 -3.43,5.72 c 0,4.25 4.09,7.52 9.32,5.56 M 180.88,134.09 l 17.99,0 L 198.87,47.42 l -17.99,0 l 0,86.68 Z M 99.27,134.09 l 17.99,0 l 0,-33.36 l 44.97,0 l 0,-16.35 l -44.97,0 c -0.33,-13.57 8.83,-21.75 21.42,-21.75 c 6.87,0 12.76,2.45 17.17,5.56 l 11.45,-12.92 c -8.34,-6.21 -17.34,-9.49 -28.13,-9.49 c -23.71,0 -39.9,15.7 -39.9,38.6 l 0,49.72 Z M 18.32,81.6 c 2.62,-11.77 11.94,-18.97 24.86,-18.97 s 21.75,7.2 23.39,18.97 L 18.32,81.6 Z M 85.04,88.96 c 0,-19.95 -14.39,-43.17 -41.87,-43.17 C 18.97,45.78 0,63.93 0,90.1 s 19.13,45.63 44.97,45.63 c 16.03,0 28.95,-7.69 37.45,-18.97 l -12.59,-10.3 c -6.21,8.18 -14.72,12.43 -25.35,12.43 c -14.06,0 -23.55,-8.01 -26.17,-20.93 l 57.84,0 c 5.56,0 8.88,-2.62 8.88,-9" style="fill:#ffffff" />
    <path d="M 269.97,108.88 l -1.24,0 l 10.33,25.11 l 5.06,0 l -11.06,-25.83 c -0.62,-1.45 -1.65,-2.58 -3.62,-2.58 c -1.76,0 -3,0.93 -3.72,2.58 l -11.06,25.83 l 4.96,0 l 10.33,-25.11 Z M 227.08,133.99 l 4.65,0 l 0,-28.42 l -4.65,0 l 0,28.42 Z M 241.03,120.66 c 4.96,0 8.78,-3.41 8.78,-7.96 s -3.41,-7.13 -8.58,-7.13 l -12.09,0 l 0,4.13 l 11.47,0 c 2.58,0 4.34,1.45 4.34,3.82 s -1.65,4.13 -3.93,4.13 l 0,3 Z M 289.4,133.99 l 4.65,0 l -0.21,-25.63 l -2.48,0.93 l 16.43,22.73 c 0.93,1.34 2.17,1.96 3.31,1.96 c 1.55,0 2.69,-1.34 2.69,-3.1 l 0,-25.32 l -4.65,0 l 0.21,25.63 l 2.48,-0.93 l -16.43,-22.73 c -0.93,-1.24 -1.76,-1.96 -3.2,-1.96 c -1.55,0 -2.79,1.34 -2.79,3.1 l 0,25.32 Z M 259.95,128.3 l 19.01,0 l 0,-4.13 l -19.01,0 l 0,4.13 Z M 342.3,133.99 l 5.89,0 l -13.12,-14.26 l 13.02,-14.16 l -5.99,0 l -10.75,11.88 c -1.34,1.55 -1.45,3.1 0,4.65 l 10.95,11.88 Z M 323.29,133.99 l 4.65,0 l 0,-28.42 l -4.65,0 l 0,28.42 Z M 229.15,133.99 l 11.99,0 c 6.3,0 9.82,-3.1 9.82,-7.85 c 0,-5.48 -4.96,-8.47 -9.92,-8.47 l -11.88,0 l 0,4.13 l 12.5,0 c 2.58,0 4.34,1.34 4.34,3.72 c 0,2.69 -2.17,4.34 -5.27,4.34 l -11.57,0 l 0,4.13 Z" style="fill:#ffffff" />
  </g>
</svg>
