<?xml version="1.0" encoding="UTF-8" standalone="no"?>
<svg
   width="26.466524mm"
   height="26.466524mm"
   viewBox="0 0 100.03096 100.03096"
   version="1.1"
   id="svg1"
   xmlns="http://www.w3.org/2000/svg">
  <rect
     style="fill:#da251d;fill-opacity:1"
     id="rect1"
     width="100.03096"
     height="100.03096"
     x="0"
     y="0" />
  <g transform="translate(21.0155,30.2373) scale(0.02976)">
    <path d="M 320.334,1328.668 c 0,0 -12.333,-40.002 -34,-61.668 S 97.666,1078.334 73,1053.667 s -73,-72.665 -73,-142.666 c 0,-70 59,-120 130.333,-148.667 S 1361.667,263 1447.667,227 s 209.667,-91.333 265.667,-118 S 1928,7.25 1933.25,4.417 S 1941.333,0 1943.833,0 s 4.834,2.167 4.834,5 s -1.834,6.75 -2.417,8.667 S 1897.667,158.333 1859.667,207 S 1803,276.333 1621,340.333 S 223.665,831.001 192.999,843.001 s -100,33.333 -100,84.667 c 0,41.333 41.333,73.334 53.333,84 s 338.667,316.999 338.667,316.999 L 320.334,1328.667 z" style="fill:#ffffff" />
    <path d="M 177,997.5 c 0,0 -29.667,-27.5 -33.667,-31.5 s -12.667,-18.999 -12.667,-29.666 s 2,-36.334 47,-50.334 S 1273.001,526.333 1330.334,508.333 S 1726.25,378 1786.5,351 c 12.75,-5.5 15,-6.833 17,-6.833 s 4.583,1.25 4.583,4.333 s -1.417,5.417 -2.5,7.167 S 1746.5,476.5 1712.5,514 S 1648,578 1586,593.5 S 557.5,869 551.25,870.75 s -13.5,7.5 -13.5,15.25 c 0,12.75 10.5,13.75 10.5,13.75 L 177,997.5 z" style="fill:#ffffff" />
    <path d="M 198.5,1016.5 L 284,1096 l 443.5,-83.5 c 0,0 -11.5,-7.25 -11.5,-15.625 s 6.75,-13.875 14.875,-15.5 s 651.125,-126.374 691.125,-133.374 s 92.666,-18.667 135.666,-70.667 S 1642.375,655.875 1643.75,653.75 s 1.875,-3.375 1.875,-4.625 s -0.75,-4.375 -4,-4.375 s -5,0.75 -8.25,2 S 198.5,1016.5 198.5,1016.5 z" style="fill:#ffffff" />
    <path d="M 1456,899.5 c -1.817,0.413 -1151.667,215.833 -1151.667,215.833 l 99.667,92.166 l 531.835,-66.999 c 0,0 -10,-3.666 -10,-14 s 9.833,-14.167 15.5,-15.167 s 273.667,-40.335 305.167,-45.002 s 83.333,-15.5 127,-61.5 s 86.668,-97 88.334,-99 s 1.915,-3.248 1.915,-4.248 S 1462.5,898.5 1460,898.5 C 1459.334,898.5 1457.833,899.084 1456,899.5 z" style="fill:#ffffff" />
    <path d="M 427.667,1229 L 534.334,1329 L 1238.334,1329 L 975,1165 Z" style="fill:#ffffff" />
  </g>
</svg>
