<?xml version="1.0" encoding="UTF-8" standalone="no"?>
<svg
   width="26.466524mm"
   height="26.466524mm"
   viewBox="0 0 100.03096 100.03096"
   version="1.1"
   id="svg1"
   xmlns="http://www.w3.org/2000/svg">
  <rect
     style="fill:#000000;fill-opacity:1"
     id="rect1"
     width="100.03096"
     height="100.03096"
     x="0"
     y="0" />
  <g transform="translate(9.5578,24.4530) scale(2.27218)">
    <path d="M 35.4099,19.2554 L 32.1533,19.2554 L 32.1533,22.5048 L 35.4099,22.5048 L 35.4099,19.2554 Z" style="fill:#ffffff" />
    <path d="M 28.7196,22.5042 L 28.4,5.22902 L 22.0765,5.22902 L 22.0765,7.76395 L 25.9062,7.76395 L 26.1175,19.1861 L 18.0036,10.3805 L 17.2547,2.53249 L 21.9248,2.53249 L 21.9248,-0.00244141 L 14.4614,-0.00244141 L 15.5555,11.4686 L 25.7237,22.5042 L 28.7196,22.5042 Z" style="fill:#ffffff" />
    <path d="M 11.9637,22.5042 L 14.5279,22.5042 L 11.4475,-0.00439453 L 6.54785,-0.00439453 L 2.74189,10.1956 L 2.74189,-0.00439453 L 0.201416,-0.00439453 L 0.201416,16.507 L 3.09776,16.507 L 8.31259,2.53054 L 9.23249,2.53054 L 11.9637,22.5042 Z" style="fill:#ffffff" />
  </g>
</svg>
