<?xml version="1.0" encoding="UTF-8" standalone="no"?>
<svg
   width="26.466524mm"
   height="26.466524mm"
   viewBox="0 0 100.03096 100.03096"
   version="1.1"
   id="svg1"
   xmlns="http://www.w3.org/2000/svg">
  <defs>
<linearGradient
       id="orionpay-paint0_linear_12_93"
       x1="0.50046402"
       y1="43.026402"
       x2="25.0222"
       y2="16.749901"
       gradientUnits="userSpaceOnUse"
       gradientTransform="matrix(28.131491,0,0,28.131491,72.23571,6.920547)">
      <stop
         stop-color="#E06A2F"
         id="orionpay-stop12" />
      <stop
         offset="1"
         stop-color="#FFA43F"
         id="orionpay-stop13" />
    </linearGradient>
<linearGradient
       id="orionpay-paint1_linear_12_93"
       x1="0"
       y1="14.4291"
       x2="38.1978"
       y2="14.4291"
       gradientUnits="userSpaceOnUse"
       gradientTransform="matrix(28.131491,0,0,28.131491,72.23571,6.920547)">
      <stop
         stop-color="#E06A2F"
         id="orionpay-stop14" />
      <stop
         offset="1"
         stop-color="#FFA43F"
         id="orionpay-stop15" />
    </linearGradient>
<linearGradient
       id="orionpay-paint2_linear_12_93"
       x1="5.8138299"
       y1="31.1005"
       x2="32.785599"
       y2="36.046101"
       gradientUnits="userSpaceOnUse"
       gradientTransform="matrix(28.131491,0,0,28.131491,72.23571,6.920547)">
      <stop
         stop-color="#E06A2F"
         id="orionpay-stop16" />
      <stop
         offset="1"
         stop-color="#FFA43F"
         id="orionpay-stop17" />
    </linearGradient>
<linearGradient
       id="orionpay-paint3_linear_12_93"
       x1="24.769699"
       y1="21.374701"
       x2="49.653198"
       y2="21.374701"
       gradientUnits="userSpaceOnUse"
       gradientTransform="matrix(28.131491,0,0,28.131491,72.23571,6.920547)">
      <stop
         stop-color="#E06A2F"
         id="orionpay-stop18" />
      <stop
         offset="1"
         stop-color="#FFA43F"
         id="orionpay-stop19" />
    </linearGradient>
  </defs>
  <rect
     style="fill:#ffffff;fill-opacity:1"
     id="rect1"
     width="100.03096"
     height="100.03096"
     x="0"
     y="0" />
  <g transform="translate(20.0349,20.7463) scale(0.03890)">
    <path d="M 72.23571,1497.8896 V 682.95126 l 696.80864,348.05404 z" style="fill:url(#orionpay-paint0_linear_12_93)" />
    <path d="M 1089.2004,84.123513 C 993.66585,34.885973 885.42431,6.9205593 770.60001,6.9205593 655.77569,6.9205593 544.51566,35.61949 447.974,86.140557 224.72555,203.0452 72.23571,437.21985 72.23571,707.33845 c 0,37.8678 3.108333,75.09421 8.867834,111.31343 C 147.47507,672.40475 258.91713,551.09898 397.51172,472.42924 507.21611,410.17142 633.92595,374.59635 768.9543,374.59635 c 135.02837,0 261.8282,35.57507 371.4426,97.83289 4.1128,-31.99958 6.2171,-64.64052 6.2171,-97.83289 0,-102.96714 -20.4798,-201.07518 -57.5965,-290.564541 z" style="fill:url(#orionpay-paint1_linear_12_93)" />
    <path d="m 1146.7968,1132.4137 c -137.5883,0 -266.58527,-36.9507 -377.75245,-101.4084 C 569.92965,915.47487 428.2285,711.46535 397.60174,472.52208 259.00828,551.1918 147.56622,672.49757 81.194747,818.74194 98.107588,924.73588 138.69833,1022.6615 197.29931,1107.1066 c 126.16074,181.7295 335.87933,300.7425 573.39072,300.7425 237.51137,0 448.05307,-119.4716 574.12437,-301.8425 -63.0821,17.1462 -129.4527,26.3143 -198.0176,26.3143 z" style="fill:url(#orionpay-paint2_linear_12_93)" />
    <path d="m 1089.2004,84.123244 c 37.1167,89.489366 57.5964,187.597666 57.5964,290.565926 0,33.19239 -2.1042,65.83335 -6.217,97.83291 -30.7168,238.94327 -172.32794,442.95279 -371.44263,558.48322 111.16724,64.4577 240.16133,101.4084 377.74963,101.4084 68.5677,0 134.8455,-9.1681 198.0176,-26.3142 57.3207,-82.7967 97.1802,-178.61236 114.4586,-282.13075 6.3099,-37.86776 9.7841,-76.74549 9.7841,-116.44463 0,-271.67709 -154.3181,-507.13791 -379.8539,-623.217469 z" style="fill:url(#orionpay-paint3_linear_12_93)" />
  </g>
</svg>
