<?xml version="1.0" encoding="UTF-8" standalone="no"?>
<svg
   width="26.466524mm"
   height="26.466524mm"
   viewBox="0 0 100.03096 100.03096"
   version="1.1"
   id="svg1"
   xmlns="http://www.w3.org/2000/svg">
  <rect
     style="fill:#15252d;fill-opacity:1"
     id="rect1"
     width="100.03096"
     height="100.03096"
     x="0"
     y="0" />
  <g transform="translate(21.0155,21.8823) scale(2.02079)">
    <path d="M 9.59693,17.7967 L 13.8085,4.43455 C 13.9318,4.04454 14.2465,3.74381 14.6435,3.63417 L 28.1622,-0.0623156 C 28.488,-0.151595 28.7837,0.152268 28.6809,0.471795 L 24.5516,13.3296 C 24.4314,13.7039 24.1357,13.9953 23.7577,14.1128 L 10.1299,18.3261 C 9.80252,18.4279 9.49413,18.1225 9.59693,17.7983 L 9.59693,17.7967 Z M 16.0748,6.18568 L 13.5744,14.1206 C 13.5238,14.2835 13.6772,14.4354 13.8401,14.3837 L 22.0323,11.851 C 22.1493,11.815 22.241,11.7241 22.279,11.6082 L 24.7288,3.97875 C 24.7794,3.81899 24.6323,3.66706 24.4694,3.71248 L 16.3326,5.93664 C 16.2092,5.97109 16.1111,6.06351 16.0732,6.18568 L 16.0748,6.18568 Z" style="fill:#ffffff" />
    <path d="M 21.5863,17.1342 C 20.8604,21.9568 16.3895,25.5844 11.2053,25.008 C 7.18355,24.5616 3.40693,20.8322 2.94513,16.8507 C 2.35364,11.7523 5.95156,7.34944 10.7625,6.57099 C 10.8289,6.56003 10.8843,6.51304 10.9048,6.44882 L 11.7256,3.84562 C 11.7636,3.72658 11.6687,3.60597 11.5438,3.61224 C 4.7512,4.01478 -0.572136,9.90409 0.0493943,16.8569 C 0.572872,22.7118 5.17663,27.3057 11.0851,27.8649 C 17.6594,28.4867 23.3133,23.9429 24.3887,17.8594 C 24.4757,17.3691 24.5311,16.8695 24.5548,16.362 C 24.5611,16.2382 24.4393,16.1474 24.3191,16.1834 L 21.7081,16.9901 C 21.6417,17.0104 21.5942,17.0668 21.5847,17.1342 L 21.5863,17.1342 Z" style="fill:#ffffff" />
  </g>
</svg>
