<?xml version="1.0" encoding="UTF-8" standalone="no"?>
<svg
   width="26.466524mm"
   height="26.466524mm"
   viewBox="0 0 100.03096 100.03096"
   version="1.1"
   id="svg1"
   xmlns="http://www.w3.org/2000/svg">
  <rect
     style="fill:#1bb99a;fill-opacity:1"
     id="rect1"
     width="100.03096"
     height="100.03096"
     x="0"
     y="0" />
  <g transform="translate(21.0155,21.0155) scale(2.41667)">
    <path d="M17.482 9.712c1.64 0 3.108.69 4.1 1.813.044-.388.087-.777.087-1.208C21.67 5.007 17.353.69 12 .69c-5.353 0-9.67 4.316-9.67 9.626 0 .345 0 .69.044 1.036a8.688 8.688 0 0 1 7.943-5.137c2.848 0 5.352 1.381 6.95 3.496h.215zm-7.122-2.72c-4.36 0-7.9 3.54-7.9 7.9s3.54 7.9 7.9 7.9c2.158 0 4.1-.864 5.525-2.245a5.53 5.53 0 0 1 -3.928-5.31c0-2.676 1.9-4.92 4.446-5.438-1.468-1.684-3.626-2.806-6.043-2.806zM4.79 21.583A11.958 11.958 0 0 1 0 12C0 5.353 5.396 0 12 0s12 5.396 12 12-5.396 12-12 12c-1.554 0-3.022-.302-4.36-.82-1.079-.389-2.028-.907-2.849-1.597zm12.777-1.51a4.827 4.827 0 0 0 4.835-4.835 4.827 4.827 0 0 0 -4.835-4.834 4.827 4.827 0 0 0 -4.834 4.834 4.827 4.827 0 0 0 4.834 4.835Z" style="fill:#ffffff" />
  </g>
</svg>
