<?xml version="1.0" encoding="UTF-8" standalone="no"?>
<svg
   width="26.466524mm"
   height="26.466524mm"
   viewBox="0 0 100.03096 100.03096"
   version="1.1"
   id="svg1"
   xmlns="http://www.w3.org/2000/svg">
  <rect
     style="fill:#ffffff;fill-opacity:1"
     id="rect1"
     width="100.03096"
     height="100.03096"
     x="0"
     y="0" />
  <g transform="translate(20.9145,18.5059) scale(0.02339)">
    <path d="m 1712.8261,1274.587 c 48.074,0 91.8782,19.7302 123.7558,51.5341 l 0.589,0 c 31.8774,31.8041 51.4605,75.8289 51.4605,124.2713 c 0,48.442 -19.6566,92.4669 -51.4605,124.3447 l -0.589,0 c -31.8776,31.8038 -75.6081,51.5342 -123.7558,51.5342 L 670.28854,1626.2713 c -91.28921,0 -178.75016,-20.0249 -258.84908,-56.1724 C 329.64727,1533.1415 256.1742,1479.2513 194.92208,1412.6988 C 134.62702,1347.103 86.184862,1269.2126 53.276566,1183.2241 C 21.767061,1100.8428 4.3190507,1010.9525 4.3190507,917.23396 c 0,-93.7188 17.4480103,-183.5355 48.9575153,-265.91676 C 86.184862,565.25505 134.70064,487.43841 194.92208,421.84267 C 256.1742,355.21631 329.64727,301.39989 411.43946,264.44252 C 491.53838,228.2212 578.99933,208.19658 670.28854,208.19658 L 2256.733,208.19658 c 48.1478,0 91.9518,19.65651 123.6823,51.46059 l 0.589,0 c 31.8774,31.87763 51.5341,75.82895 51.5341,124.34472 c 0,48.51577 -19.7302,92.46711 -51.5341,124.34471 l -0.589,0 c -31.8042,31.80392 -75.5345,51.46059 -123.6823,51.46059 L 670.28854,559.80719 c -40.85927,0 -79.73081,8.83448 -115.06857,24.81013 c -38.06171,17.30068 -72.66327,42.84702 -102.03777,74.79814 c -30.18434,32.90841 -54.77354,72.5897 -71.77983,117.05635 c -16.41734,42.99422 -25.54625,90.55306 -25.54625,140.68846 c 0,50.13538 9.12891,97.69423 25.54625,140.76203 c 16.93267,44.3929 41.59549,84.148 71.77983,116.9827 c 29.3745,31.9511 63.97606,57.5711 102.03777,74.7982 c 35.33776,15.9756 74.2093,24.8101 115.06857,24.8101 L 1712.7525,1274.5133 Z" style="fill:#293a56" />
    <path d="m 1712.8261,1429.7784 c 11.4111,0 20.7609,9.2764 20.7609,20.614 c 0,11.3373 -9.2761,20.6871 -20.7609,20.6871 L 670.28854,1471.0795 c -140.83568,0 -268.71421,-62.5036 -361.4022,-163.29 c -92.24628,-100.4178 -149.44927,-238.6034 -149.44927,-390.62923 c 0,-152.02598 57.20299,-290.2114 149.44927,-390.55589 c 92.68799,-100.7861 220.49289,-163.28979 361.4022,-163.28979 L 2256.733,363.31459 c 11.4847,0 20.7611,9.27609 20.7611,20.6873 c 0,11.4112 -9.2764,20.68731 -20.7611,20.68731 L 670.28854,404.6892 c -128.76195,0 -245.96552,57.42377 -330.997,149.96455 c -85.47319,92.90889 -138.55344,221.30274 -138.55344,362.58021 c 0,141.27724 53.08025,269.67104 138.55344,362.65374 c 85.03148,92.4671 202.16143,149.8907 330.997,149.8907 L 1712.7525,1429.7784 Z" style="fill:#ffffff" />
    <path d="m 775.56569,1093.0392 c -48.07409,0 -91.80455,-19.6566 -123.68224,-51.5342 l -0.58895,-0.6627 c -31.80398,-31.804 -51.53425,-75.53437 -51.53425,-123.68203 c 0,-48.14768 19.73027,-91.80458 51.53425,-123.68221 l 0.58895,-0.58882 c 31.87769,-31.8776 75.60815,-51.53428 123.68224,-51.53428 L 1818.1032,741.35496 c 91.2891,0 178.6765,20.02479 258.7754,56.17225 c 81.7922,36.95736 155.2653,90.92117 216.5173,157.47384 c 60.2951,65.59575 108.8109,143.48595 141.7192,229.40085 c 31.5095,82.3811 49.0311,172.2718 49.0311,265.9167 c 0,93.6451 -17.4478,183.6091 -49.0311,265.9903 c -32.9083,85.9149 -81.4241,163.8053 -141.7192,229.4746 c -61.252,66.5527 -134.6515,120.4427 -216.5173,157.4001 c -80.0989,36.1478 -167.4863,56.1726 -258.7754,56.1726 L 386.70304,2159.3562 l 0,151.0687 c 0,48.0741 -19.65665,91.8047 -51.46063,123.6823 l 0,0.6624 c -31.87759,31.804 -75.82892,51.4607 -124.34473,51.4607 c -48.51579,0 -92.46713,-19.6567 -124.271102,-51.4607 l 0,-0.6624 C 54.822599,2402.2296 35.092349,2358.499 35.092349,2310.4249 L 35.092349,1807.7453 L 1818.1032,1807.7453 c 40.7856,0 79.6571,-8.8344 114.9949,-24.81 c 37.988,-17.2271 72.5898,-42.8469 102.0378,-74.7245 c 30.258,-32.9084 54.8471,-72.5897 71.7798,-117.13 c 16.4173,-43.068 25.5462,-90.5531 25.5462,-140.6884 c 0,-50.1356 -9.1289,-97.6945 -25.5462,-140.6885 c -16.9327,-44.4667 -41.5218,-84.2218 -71.7798,-117.0564 c -29.3747,-31.9512 -63.976,-57.4974 -102.0378,-74.7983 c -35.3378,-15.9756 -74.2093,-24.81 -114.9949,-24.81 z" style="fill:#293a56" />
    <path d="m 775.56569,937.92125 c -11.41116,0 -20.61371,-9.20259 -20.61371,-20.68729 c 0,-11.4849 9.20255,-20.68732 20.61371,-20.68732 L 1818.1032,896.54664 c 140.762,0 268.7142,62.50354 361.3285,163.28966 c 92.2462,100.3445 149.4493,238.6036 149.4493,390.5561 c 0,151.9522 -57.2031,290.2113 -149.4493,390.5558 c -92.688,100.7862 -220.5665,163.3634 -361.3285,163.3634 L 231.58501,2004.3116 l 0,306.1869 c 0,11.3376 -9.27617,20.6874 -20.68733,20.6874 c -11.41114,0 -20.61369,-9.2763 -20.61369,-20.6874 l 0,-347.488 L 1818.1768,1963.0105 c 128.6884,0 245.892,-57.4236 330.9233,-149.8908 c 85.4732,-92.9826 138.48,-221.3029 138.48,-362.6538 c 0,-141.3511 -53.0068,-269.6713 -138.48,-362.5802 c -85.0313,-92.61428 -202.2349,-149.96445 -330.9233,-149.96445 z" style="fill:#ffffff" />
  </g>
</svg>
