<?xml version="1.0" encoding="UTF-8" standalone="no"?>
<svg
   width="26.466524mm"
   height="26.466524mm"
   viewBox="0 0 100.03096 100.03096"
   version="1.1"
   id="svg1"
   xmlns="http://www.w3.org/2000/svg">
  <rect
     style="fill:#ffffff;fill-opacity:1"
     id="rect1"
     width="100.03096"
     height="100.03096"
     x="0"
     y="0" />
  <g transform="translate(21.0155,31.1318) scale(1.34884)">
    <path d="M 20.652,24.95 c -0.774,0 -1.548,-0.279 -2.138,-0.84 c -2.779,-2.634 -4.308,-6.136 -4.308,-9.86 c 0,-3.687 1.502,-7.162 4.23,-9.787 c 1.173,-1.128 3.088,-1.143 4.276,-0.03 c 1.19,1.11 1.204,2.925 0.032,4.053 c -1.606,1.546 -2.49,3.593 -2.49,5.764 c 0,2.193 0.9,4.255 2.537,5.807 c 1.18,1.12 1.18,2.935 0,4.054 c -0.591,0.56 -1.365,0.84 -2.139,0.84" style="fill:#50e2c6" />
    <path d="M 0,0 L 43,0 L 43,28 L 0,28 z" style="fill:#ffffff" />
    <path d="M 28.537,22.244 c -0.75,0 -1.482,-0.102 -2.188,-0.283 c 1.622,-2.261 2.576,-5.005 2.576,-7.96 c 0,-2.957 -0.954,-5.7 -2.576,-7.962 c 0.706,-0.18 1.438,-0.283 2.188,-0.283 c 4.696,0 8.517,3.699 8.517,8.245 c 0,4.545 -3.821,8.243 -8.517,8.243 M 5.946,14.001 c 0,-4.546 3.82,-8.245 8.516,-8.245 S 22.978,9.455 22.978,14 c 0,4.545 -3.82,8.243 -8.516,8.243 s -8.516,-3.698 -8.516,-8.243 M 28.537,0 c -2.51,0 -4.918,0.616 -7.046,1.77 C 19.408,0.646 17.012,0 14.462,0 C 6.488,0 0,6.28 0,14 s 6.488,14 14.462,14 c 2.55,0 4.947,-0.645 7.03,-1.771 C 23.621,27.383 26.03,28 28.536,28 C 36.512,28 43,21.72 43,14 S 36.512,0 28.537,0" style="fill:#ef294b" />
  </g>
</svg>
