<?xml version="1.0" encoding="UTF-8" standalone="no"?>
<svg
   width="26.466524mm"
   height="26.466524mm"
   viewBox="0 0 100.03096 100.03096"
   version="1.1"
   id="svg1"
   xmlns="http://www.w3.org/2000/svg">
  <rect
     style="fill:#50c3c7;fill-opacity:1"
     id="rect1"
     width="100.03096"
     height="100.03096"
     x="0"
     y="0" />
  <g transform="translate(20.9875,21.1149) scale(0.02322)">
    <path d="m 1.20588948377,859.336047615 l 0.690816148373,746.340496292 a 152.843,152.843 0 0,0 215.880046365,145.330447213 c 184.534263633,-51.0340429606 843.572869175,-347.912282722 898.924513063,-374.940464526 c 88.1654109354,-45.2484577181 123.915146613,-196.882602285 -40.0673366053,-269.763705937 c -346.098890332,-159.233122199 -877.250156408,-367.168782857 -877.250156408,-367.168782857 c 0,0 -187.124824189,-59.4965407781 -198.177882563,120.202009816 z" style="fill:#ffffff" />
    <path d="m 1309.52532247,854.84574265 l 0.690816148373,746.340496292 a 152.929,152.929 0 0,0 215.880046365,145.330447213 c 184.534263633,-51.0340429606 843.572869175,-347.912282722 898.924513063,-374.940464526 c 88.1654109354,-45.2484577181 124.001498632,-196.882602285 -40.0673366053,-269.763705937 c -346.098890332,-159.319474217 -877.250156408,-367.255134876 -877.250156408,-367.255134876 c 0,0 -187.124824189,-59.4101887596 -198.177882563,120.288361834 z" style="fill:#ffffff" />
  </g>
</svg>
