<?xml version="1.0" encoding="UTF-8" standalone="no"?>
<svg
   width="26.466524mm"
   height="26.466524mm"
   viewBox="0 0 100.03096 100.03096"
   version="1.1"
   id="svg1"
   xmlns="http://www.w3.org/2000/svg">
  <rect
     style="fill:#004a35;fill-opacity:1"
     id="rect1"
     width="100.03096"
     height="100.03096"
     x="0"
     y="0" />
  <g transform="translate(21.0155,21.3866) scale(0.02321)">
    <path d="m 2491.62685033,1449.76144201 l -603.713475851,-1037.5962585 l -3.48969986041,-8.1425796743 c -17.4483993021,-22.1012591159 -39.549598418,-34.8967286041 -65.1405973944,-34.8967286041 l -789.829368407,0 c -17.4483993021,4.65289981388 -30.2438387902,17.4483693021 -47.6922080923,34.8967286041 L 13.9587434417,1441.61884234 c 0,0 -4.65289771388,0 -4.65289771388,4.65289981388 l -4.65289781388,4.65289981388 C 4.9999998E-05,1455.57754178 4.9999998E-05,1463.72014145 4.9999998E-05,1473.02594108 c 0,22.101199116 17.4483673021,34.8966986041 34.8967336041,39.549598418 L 494.370450225,1512.5755395 c 8.1425696743,0 12.7954694882,4.65289981388 12.7954694882,12.7954994882 c 0,4.65289981388 0,4.65289981388 -4.65289981388,8.1424996743 l -464.126562435,494.370480225 l -4.65289781388,4.65289981388 c -4.65289781388,4.65289981388 -4.65289781388,8.1424996743 -8.1425716743,12.7953994882 l 0,8.1425996743 c 0,8.1425996743 4.65289781388,17.4483993021 12.7954694882,25.5908989764 c 4.65289781388,4.65289981388 12.7954694882,4.65289981388 22.1012651159,8.1425996743 L 376.884774925,2087.20841651 c 17.4483693021,0 39.549638418,-8.1425996743 52.3451079062,-22.1012991159 L 920.110603196,1540.49293838 c 4.65289981388,-4.65289981388 4.65289981388,-4.65289981388 4.65289981388,-8.1425996743 c 0,-8.1425996743 -4.65289981388,-12.7954994882 -12.7954694882,-12.7954994882 L 646.75285413,1519.55483922 c -8.1425696743,0 -12.7954694882,-8.1424996743 -12.7954694882,-12.7953994882 c 0,-4.65289981388 0,-4.65289981388 4.65289981388,-8.1425996743 l 516.471619341,-551.368407945 l 4.65289981388,-4.65289981388 c 8.1425996743,-8.1425696743 17.4483993021,-12.7954594882 25.5909989764,-12.7954594882 c 12.7953994882,0 22.101199116,4.65288981388 30.2437987902,17.4483593021 l 290.806088368,503.676209853 l 30.2438987902,52.3450979062 l 0,8.1425996743 c 0,8.1424996743 -4.65289981388,12.7953994882 -12.7954994882,12.7953994882 l -268.704889252,0 c -8.1424996743,0 -17.4482993021,8.1425996743 -17.4482993021,17.4483993021 c 0,4.65289981388 0,8.1425996743 4.65289981388,12.7954994882 l 290.806088368,503.676179853 l 0,4.65289981388 c 12.7954994882,22.1012991159 34.8966986041,34.8966986041 55.8347977666,34.8966986041 l 611.856075526,0 c 8.1425996743,0 12.7953994882,0 22.101199116,-4.65289981388 c 17.4483993021,-8.1424996743 25.5909989764,-22.101199116 25.5909989764,-39.549598418 c 0,-4.65289981388 0,-12.7954994882 -4.65289981388,-17.4483993021 l -4.65289981388,-8.1424996743 l -281.50028874,-486.227880551 l 0,-4.65289981388 c 0,-8.1425996743 4.65289981388,-12.7954994882 12.7953994882,-12.7954994882 l 503.676179853,0 c 0,0 4.65289981388,0 4.65289981388,-4.65289981388 l 4.65289981388,-4.65289981388 c 0,0 0,-4.65289981388 4.65289981388,-4.65289981388 c 0,0 0,-4.65289981388 4.65289981388,-4.65289981388 c 0,0 0,-4.65279981389 4.65289981388,-4.65279981389 l 0,-3.48969986041 c 2.32649990694,-17.4483993021 2.32649990694,-30.2438987902 -5.81609976736,-47.6921980923 M 1558.72078765,898.393004064 L 825.889416964,898.393004064 c -8.1425696743,0 -12.7954694882,-8.1425696743 -12.7954694882,-12.7954694882 c 0,-4.65288981388 0,-8.1425696743 4.65289981388,-8.1425696743 L 1251.62959993,413.328403467 c 4.65289981388,-4.65289981388 8.1424996743,-4.65289981388 12.7953994882,-8.1425696743 c 4.65289981388,-4.65289981388 12.7954994882,-8.1425696743 22.1012991159,-8.1425696743 l 4.65289981388,0 c 8.1425996743,0 22.1012991159,8.1425696743 25.5908989764,17.4483593021 l 262.888789484,458.310441668 c 0,4.65289981388 4.65289981388,4.65289981388 4.65289981388,8.1425796743 c -8.1425996743,9.30578962777 -17.4483993021,17.4483593021 -25.5909989764,17.4483593021" style="fill:#b9a557" />
  </g>
</svg>
