<?xml version="1.0" encoding="UTF-8" standalone="no"?>
<svg
   width="26.466524mm"
   height="26.466524mm"
   viewBox="0 0 100.03096 100.03096"
   version="1.1"
   id="svg1"
   xmlns="http://www.w3.org/2000/svg">
  <rect
     style="fill:#ffd900;fill-opacity:1"
     id="rect1"
     width="100.03096"
     height="100.03096"
     x="0"
     y="0" />
  <g transform="translate(10.0167,28.8613) scale(0.07941)">
    <path d="M137.5,496.9c45.1,0,78.6-19.3,98.6-58.7,20.6,44.5,59.9,58.7,96.7,58.7,90.2,0,160.5-83.8,160.5-205.6s-18-128.3-80.6-128.3-47.7,13.5-47.7,41.3c0,47.7,61.2,50.9,61.2,134.7s-16.1,103.1-67,103.1-47.1-14.2-47.1-61.2v-207.6c0-3.2-3.2-6.4-7.7-5.8l-101.2,14.2c-4.5.6-7.1,5.8-5.2,9.7l20,36.7c1.3,1.9,1.9,5.2,1.9,7.7v111.5c0,52.9-19.3,94.8-62.5,94.8s-42.5-16.1-42.5-61.2v-210c0-4.5-2.5-6.5-7.7-5.8l-101.2,14c-5.8.6-7.1,6.4-5.2,10.3l21.3,38.7c1.3,2.6,1.9,5.2,1.9,7.7v124.4c0,107.7,57.4,136.7,113.5,136.7" style="fill:#000000" />
    <path d="M597.8,140.4c29.7,0,52.2-23.9,52.2-51.6s-22.6-52.9-52.2-52.9-52.9,23.2-52.9,52.9,23.9,51.6,52.9,51.6M597.8,140.4c29.7,0,52.2-23.9,52.2-51.6s-22.6-52.9-52.2-52.9-52.9,23.2-52.9,52.9,23.9,51.6,52.9,51.6M539.7,489.8h119.3c7.1,0,11-5.2,7.1-11.6l-15.5-25.8c-1.9-3.9-4.5-9-4.5-15.5V172.1c0-5.2-2.6-7.7-10.3-6.4l-99.9,14c-5.8.6-7.7,5.2-4.5,11l20,34.2c1.9,3.9,2.6,5.8,2.6,11.6v199.2c0,6.4-1.9,11.6-5.2,16.8l-15.5,25.8c-3.9,6.4-.6,11.6,6.4,11.6" style="fill:#000000" />
    <path d="M708,489.8h119.3c7.1,0,11-5.2,7.1-11.6l-15.5-26.4c-1.9-3.9-4.5-9-4.5-15.5V44.3c0-4.5-3.9-7.1-7.7-6.4l-102.5,14.2c-3.9,1.3-6.4,5.8-4.5,9.7l20,36.7c.6,1.9,1.9,5.2,1.9,8.4v328.1c0,6.4-1.3,11.6-4.5,16.8l-15.5,26.4c-3.9,6.4-.6,11.6,6.4,11.6" style="fill:#000000" />
    <path d="M879.5,489.8h119.3c7.1,0,11-5.2,7.1-11.6l-15.5-26.4c-1.9-3.9-4.5-9-4.5-15.5V44.3c0-4.5-3.9-7.1-7.7-6.4l-102.5,14.2c-3.9,1.3-6.4,5.8-4.5,9.7l20,36.7c.6,1.9,1.9,5.2,1.9,8.4v328.1c0,6.4-1.3,11.6-4.5,16.8l-15.5,26.4c-3.9,6.4-.6,11.6,6.4,11.6" style="fill:#000000" />
  </g>
</svg>
